;Layer: Drill PTH
;EasyEDA v6.3.53, 2021-02-19T20:33:04--5:00
;278ba4fcc65f4522a46e9f3658c659ef,10
;Gerber Generator version 0.2
M48
METRIC,LZ,000.000
;Holesize 1 = 0.889 METRIC
T01C0.889
;Holesize 2 = 0.915 METRIC
T02C0.915
;Holesize 3 = 1.000 METRIC
T03C1.000
;Holesize 4 = 1.200 METRIC
T04C1.200
%
G05
G90
T01
X+050927Y+045174
X+048387Y+045174
X+045847Y+045174
X+043307Y+045174
X+040767Y+045174
X+038227Y+045174
X+008255Y+044412
X+010795Y+044412
X+013335Y+044412
T02
X+061468Y+016218
X+061468Y+039078
X+064008Y+016218
X+066548Y+016218
X+066548Y+039078
X+064008Y+039078
X+069088Y+016218
X+069088Y+039078
X+071628Y+016218
X+071628Y+039078
X+058928Y+016218
X+058928Y+039078
X+056388Y+016218
X+056388Y+039078
X+053848Y+039078
X+053848Y+016218
X+051308Y+016218
X+048768Y+016218
X+046228Y+016218
X+043688Y+016218
X+041148Y+016218
X+038608Y+016218
X+036068Y+016218
X+036068Y+039078
X+038608Y+039078
X+041148Y+039078
X+043688Y+039078
X+046228Y+039078
X+048768Y+039078
X+051308Y+039078
T03
X+060071Y+044666
X+062611Y+044666
X+065151Y+044666
X+021336Y+044285
X+023876Y+044285
X+026416Y+044285
T04
X+018661Y+023581G85X+016956Y+025410
X+012422Y+021181G85X+014127Y+019353
X+017906Y+018159G85X+019735Y+019864
M30
