G04 Layer: BottomLayer*
G04 EasyEDA v6.3.53, 2021-02-19T20:33:04--5:00*
G04 278ba4fcc65f4522a46e9f3658c659ef,10*
G04 Gerber Generator version 0.2*
G04 Scale: 100 percent, Rotated: No, Reflected: No *
G04 Dimensions in millimeters *
G04 leading zeros omitted , absolute positions ,3 integer and 3 decimal *
%FSLAX33Y33*%
%MOMM*%
G90*
G71D02*

%ADD11R,1.899996X1.899996*%
%ADD12C,1.899996*%
%ADD13C,1.524000*%
%ADD14C,1.574800*%
%ADD15R,1.574800X1.574800*%
%ADD16C,1.999996*%
%ADD17C,0.999998*%
%ADD18C,1.499997*%

%LPD*%
G36*
G01X84361Y49497D02*
G01X604Y49497D01*
G01X589Y49496D01*
G01X575Y49493D01*
G01X561Y49487D01*
G01X549Y49481D01*
G01X537Y49472D01*
G01X527Y49462D01*
G01X518Y49450D01*
G01X512Y49438D01*
G01X506Y49424D01*
G01X503Y49410D01*
G01X502Y49395D01*
G01X502Y23879D01*
G01X504Y23860D01*
G01X509Y23842D01*
G01X518Y23825D01*
G01X686Y23556D01*
G01X857Y23288D01*
G01X1029Y23022D01*
G01X1203Y22756D01*
G01X1379Y22491D01*
G01X1556Y22228D01*
G01X1735Y21966D01*
G01X1916Y21704D01*
G01X2098Y21444D01*
G01X2282Y21186D01*
G01X2468Y20928D01*
G01X2655Y20672D01*
G01X2844Y20417D01*
G01X3034Y20163D01*
G01X3227Y19910D01*
G01X3420Y19658D01*
G01X3616Y19408D01*
G01X3813Y19159D01*
G01X4012Y18911D01*
G01X4212Y18665D01*
G01X4414Y18420D01*
G01X4617Y18176D01*
G01X4822Y17934D01*
G01X5029Y17692D01*
G01X5236Y17452D01*
G01X5446Y17214D01*
G01X5657Y16976D01*
G01X5870Y16741D01*
G01X6084Y16506D01*
G01X6300Y16273D01*
G01X6517Y16041D01*
G01X6735Y15811D01*
G01X6956Y15582D01*
G01X7177Y15354D01*
G01X7400Y15128D01*
G01X7624Y14904D01*
G01X7850Y14681D01*
G01X8077Y14459D01*
G01X8306Y14239D01*
G01X8536Y14020D01*
G01X8768Y13802D01*
G01X9001Y13587D01*
G01X9235Y13372D01*
G01X9471Y13159D01*
G01X9707Y12948D01*
G01X9946Y12738D01*
G01X10186Y12530D01*
G01X10427Y12324D01*
G01X10669Y12118D01*
G01X10913Y11915D01*
G01X11158Y11713D01*
G01X11404Y11512D01*
G01X11651Y11313D01*
G01X11900Y11116D01*
G01X12150Y10920D01*
G01X12402Y10726D01*
G01X12654Y10534D01*
G01X12908Y10343D01*
G01X13163Y10154D01*
G01X13419Y9966D01*
G01X13677Y9780D01*
G01X13935Y9596D01*
G01X14195Y9413D01*
G01X14456Y9233D01*
G01X14718Y9053D01*
G01X14981Y8876D01*
G01X15246Y8700D01*
G01X15511Y8526D01*
G01X15778Y8353D01*
G01X16046Y8182D01*
G01X16314Y8013D01*
G01X16584Y7846D01*
G01X16855Y7681D01*
G01X17127Y7516D01*
G01X17401Y7354D01*
G01X17674Y7194D01*
G01X17950Y7036D01*
G01X18226Y6879D01*
G01X18503Y6724D01*
G01X18781Y6571D01*
G01X19060Y6419D01*
G01X19340Y6270D01*
G01X19621Y6122D01*
G01X19903Y5976D01*
G01X20186Y5831D01*
G01X20470Y5689D01*
G01X20754Y5548D01*
G01X21040Y5410D01*
G01X21327Y5273D01*
G01X21614Y5138D01*
G01X21902Y5004D01*
G01X22191Y4873D01*
G01X22481Y4743D01*
G01X22772Y4616D01*
G01X23064Y4490D01*
G01X23356Y4366D01*
G01X23649Y4244D01*
G01X23943Y4124D01*
G01X24238Y4006D01*
G01X24533Y3889D01*
G01X24829Y3775D01*
G01X25126Y3662D01*
G01X25424Y3552D01*
G01X25722Y3443D01*
G01X26021Y3336D01*
G01X26321Y3231D01*
G01X26621Y3128D01*
G01X26922Y3027D01*
G01X27224Y2928D01*
G01X27526Y2830D01*
G01X27829Y2735D01*
G01X28133Y2642D01*
G01X28437Y2550D01*
G01X28741Y2461D01*
G01X29046Y2373D01*
G01X29352Y2288D01*
G01X29659Y2204D01*
G01X29965Y2123D01*
G01X30273Y2043D01*
G01X30581Y1966D01*
G01X30889Y1890D01*
G01X31198Y1816D01*
G01X31508Y1745D01*
G01X31817Y1675D01*
G01X32127Y1607D01*
G01X32438Y1541D01*
G01X32749Y1478D01*
G01X33061Y1416D01*
G01X33373Y1356D01*
G01X33685Y1299D01*
G01X33997Y1243D01*
G01X34310Y1189D01*
G01X34624Y1138D01*
G01X34937Y1088D01*
G01X35251Y1040D01*
G01X35566Y994D01*
G01X35880Y951D01*
G01X36195Y909D01*
G01X36510Y869D01*
G01X36825Y832D01*
G01X37141Y796D01*
G01X37456Y763D01*
G01X37772Y731D01*
G01X38089Y702D01*
G01X38405Y674D01*
G01X38721Y649D01*
G01X39038Y625D01*
G01X39355Y604D01*
G01X39672Y585D01*
G01X39989Y568D01*
G01X40306Y552D01*
G01X40623Y539D01*
G01X40941Y527D01*
G01X41258Y518D01*
G01X41576Y511D01*
G01X41893Y506D01*
G01X42211Y503D01*
G01X42528Y502D01*
G01X42846Y503D01*
G01X43164Y506D01*
G01X43482Y511D01*
G01X43800Y518D01*
G01X44117Y528D01*
G01X44435Y539D01*
G01X44753Y552D01*
G01X45070Y568D01*
G01X45388Y585D01*
G01X45705Y604D01*
G01X46022Y625D01*
G01X46339Y649D01*
G01X46656Y675D01*
G01X46973Y702D01*
G01X47290Y732D01*
G01X47606Y763D01*
G01X47922Y797D01*
G01X48238Y833D01*
G01X48554Y870D01*
G01X48869Y910D01*
G01X49184Y952D01*
G01X49499Y995D01*
G01X49813Y1042D01*
G01X50128Y1089D01*
G01X50442Y1139D01*
G01X50756Y1191D01*
G01X51069Y1245D01*
G01X51382Y1301D01*
G01X51695Y1359D01*
G01X52007Y1418D01*
G01X52318Y1480D01*
G01X52630Y1544D01*
G01X52941Y1610D01*
G01X53252Y1678D01*
G01X53561Y1748D01*
G01X53871Y1819D01*
G01X54181Y1893D01*
G01X54490Y1969D01*
G01X54797Y2047D01*
G01X55105Y2127D01*
G01X55413Y2208D01*
G01X55719Y2292D01*
G01X56025Y2378D01*
G01X56331Y2465D01*
G01X56636Y2555D01*
G01X56941Y2647D01*
G01X57244Y2740D01*
G01X57548Y2836D01*
G01X57850Y2933D01*
G01X58152Y3033D01*
G01X58454Y3134D01*
G01X58754Y3237D01*
G01X59354Y3449D01*
G01X59950Y3669D01*
G01X60544Y3897D01*
G01X60840Y4014D01*
G01X61134Y4132D01*
G01X61429Y4253D01*
G01X61722Y4375D01*
G01X62015Y4499D01*
G01X62307Y4625D01*
G01X62598Y4753D01*
G01X62888Y4884D01*
G01X63177Y5015D01*
G01X63465Y5149D01*
G01X63754Y5284D01*
G01X64040Y5421D01*
G01X64326Y5560D01*
G01X64611Y5701D01*
G01X64895Y5844D01*
G01X65178Y5988D01*
G01X65460Y6135D01*
G01X65742Y6283D01*
G01X66022Y6433D01*
G01X66301Y6585D01*
G01X66580Y6739D01*
G01X66857Y6894D01*
G01X67133Y7051D01*
G01X67409Y7210D01*
G01X67683Y7371D01*
G01X67956Y7533D01*
G01X68228Y7697D01*
G01X68500Y7863D01*
G01X68770Y8031D01*
G01X69039Y8200D01*
G01X69307Y8371D01*
G01X69574Y8544D01*
G01X69839Y8719D01*
G01X70104Y8895D01*
G01X70367Y9073D01*
G01X70630Y9253D01*
G01X70891Y9434D01*
G01X71150Y9617D01*
G01X71410Y9802D01*
G01X71667Y9988D01*
G01X71924Y10176D01*
G01X72179Y10366D01*
G01X72433Y10557D01*
G01X72685Y10750D01*
G01X72937Y10944D01*
G01X73187Y11141D01*
G01X73436Y11338D01*
G01X73683Y11537D01*
G01X73930Y11738D01*
G01X74175Y11941D01*
G01X74419Y12145D01*
G01X74661Y12351D01*
G01X74903Y12558D01*
G01X75381Y12976D01*
G01X75618Y13188D01*
G01X75854Y13402D01*
G01X76088Y13617D01*
G01X76321Y13833D01*
G01X76553Y14051D01*
G01X76783Y14270D01*
G01X77012Y14491D01*
G01X77239Y14713D01*
G01X77465Y14936D01*
G01X77689Y15162D01*
G01X77912Y15388D01*
G01X78134Y15616D01*
G01X78354Y15846D01*
G01X78573Y16076D01*
G01X78790Y16308D01*
G01X79006Y16542D01*
G01X79220Y16777D01*
G01X79432Y17014D01*
G01X79643Y17251D01*
G01X79853Y17491D01*
G01X80061Y17731D01*
G01X80268Y17973D01*
G01X80472Y18215D01*
G01X80675Y18460D01*
G01X80878Y18706D01*
G01X81078Y18953D01*
G01X81276Y19201D01*
G01X81474Y19450D01*
G01X81669Y19701D01*
G01X81863Y19953D01*
G01X82055Y20206D01*
G01X82245Y20461D01*
G01X82434Y20716D01*
G01X82622Y20973D01*
G01X82807Y21231D01*
G01X82991Y21491D01*
G01X83173Y21751D01*
G01X83354Y22013D01*
G01X83533Y22276D01*
G01X83710Y22540D01*
G01X83886Y22805D01*
G01X84059Y23071D01*
G01X84231Y23338D01*
G01X84402Y23607D01*
G01X84570Y23876D01*
G01X84579Y23893D01*
G01X84584Y23911D01*
G01X84586Y23930D01*
G01X84463Y49395D01*
G01X84462Y49410D01*
G01X84459Y49424D01*
G01X84453Y49438D01*
G01X84446Y49450D01*
G01X84438Y49462D01*
G01X84428Y49472D01*
G01X84416Y49481D01*
G01X84403Y49488D01*
G01X84389Y49493D01*
G01X84376Y49496D01*
G01X84361Y49497D01*
G37*

%LPC*%
G36*
G01X61519Y17481D02*
G01X61468Y17482D01*
G01X61416Y17481D01*
G01X61363Y17478D01*
G01X61312Y17473D01*
G01X61260Y17465D01*
G01X61209Y17455D01*
G01X61159Y17444D01*
G01X61108Y17430D01*
G01X61059Y17414D01*
G01X61010Y17397D01*
G01X60962Y17377D01*
G01X60914Y17355D01*
G01X60868Y17331D01*
G01X60823Y17306D01*
G01X60779Y17278D01*
G01X60735Y17249D01*
G01X60694Y17218D01*
G01X60653Y17185D01*
G01X60614Y17151D01*
G01X60576Y17115D01*
G01X60540Y17078D01*
G01X60506Y17039D01*
G01X60473Y16998D01*
G01X60441Y16957D01*
G01X60412Y16914D01*
G01X60384Y16870D01*
G01X60359Y16825D01*
G01X60334Y16779D01*
G01X60312Y16732D01*
G01X60292Y16684D01*
G01X60285Y16670D01*
G01X60276Y16657D01*
G01X60266Y16646D01*
G01X60253Y16636D01*
G01X60239Y16628D01*
G01X60225Y16623D01*
G01X60234Y16609D01*
G01X60241Y16594D01*
G01X60245Y16577D01*
G01X60247Y16560D01*
G01X60243Y16535D01*
G01X60231Y16483D01*
G01X60221Y16430D01*
G01X60213Y16378D01*
G01X60207Y16324D01*
G01X60204Y16271D01*
G01X60203Y16218D01*
G01X60204Y16164D01*
G01X60207Y16111D01*
G01X60213Y16057D01*
G01X60221Y16005D01*
G01X60231Y15952D01*
G01X60243Y15900D01*
G01X60247Y15875D01*
G01X60245Y15858D01*
G01X60241Y15841D01*
G01X60234Y15826D01*
G01X60225Y15812D01*
G01X60239Y15807D01*
G01X60253Y15799D01*
G01X60266Y15789D01*
G01X60276Y15778D01*
G01X60285Y15765D01*
G01X60292Y15751D01*
G01X60312Y15703D01*
G01X60334Y15656D01*
G01X60359Y15610D01*
G01X60384Y15565D01*
G01X60412Y15521D01*
G01X60441Y15478D01*
G01X60473Y15437D01*
G01X60506Y15396D01*
G01X60540Y15357D01*
G01X60576Y15320D01*
G01X60614Y15284D01*
G01X60653Y15250D01*
G01X60694Y15217D01*
G01X60735Y15186D01*
G01X60779Y15157D01*
G01X60823Y15129D01*
G01X60868Y15104D01*
G01X60914Y15080D01*
G01X60962Y15058D01*
G01X61010Y15038D01*
G01X61059Y15021D01*
G01X61108Y15005D01*
G01X61159Y14991D01*
G01X61209Y14980D01*
G01X61260Y14970D01*
G01X61312Y14962D01*
G01X61363Y14957D01*
G01X61416Y14954D01*
G01X61468Y14953D01*
G01X61519Y14954D01*
G01X61572Y14957D01*
G01X61623Y14962D01*
G01X61675Y14970D01*
G01X61726Y14980D01*
G01X61776Y14991D01*
G01X61827Y15005D01*
G01X61876Y15021D01*
G01X61925Y15038D01*
G01X61973Y15058D01*
G01X62021Y15080D01*
G01X62067Y15104D01*
G01X62112Y15129D01*
G01X62156Y15157D01*
G01X62200Y15186D01*
G01X62241Y15217D01*
G01X62282Y15250D01*
G01X62321Y15284D01*
G01X62359Y15320D01*
G01X62395Y15357D01*
G01X62429Y15396D01*
G01X62462Y15437D01*
G01X62494Y15478D01*
G01X62523Y15521D01*
G01X62551Y15565D01*
G01X62576Y15610D01*
G01X62601Y15656D01*
G01X62623Y15703D01*
G01X62643Y15751D01*
G01X62650Y15765D01*
G01X62658Y15777D01*
G01X62668Y15788D01*
G01X62681Y15798D01*
G01X62693Y15806D01*
G01X62708Y15811D01*
G01X62722Y15814D01*
G01X62738Y15815D01*
G01X62753Y15814D01*
G01X62767Y15811D01*
G01X62782Y15806D01*
G01X62794Y15798D01*
G01X62807Y15788D01*
G01X62817Y15777D01*
G01X62825Y15765D01*
G01X62832Y15751D01*
G01X62852Y15703D01*
G01X62874Y15656D01*
G01X62899Y15610D01*
G01X62924Y15565D01*
G01X62952Y15521D01*
G01X62981Y15478D01*
G01X63013Y15437D01*
G01X63046Y15396D01*
G01X63080Y15357D01*
G01X63116Y15320D01*
G01X63154Y15284D01*
G01X63193Y15250D01*
G01X63234Y15217D01*
G01X63275Y15186D01*
G01X63319Y15157D01*
G01X63363Y15129D01*
G01X63408Y15104D01*
G01X63454Y15080D01*
G01X63502Y15058D01*
G01X63550Y15038D01*
G01X63599Y15021D01*
G01X63648Y15005D01*
G01X63699Y14991D01*
G01X63749Y14980D01*
G01X63800Y14970D01*
G01X63852Y14962D01*
G01X63903Y14957D01*
G01X63956Y14954D01*
G01X64008Y14953D01*
G01X64059Y14954D01*
G01X64112Y14957D01*
G01X64163Y14962D01*
G01X64215Y14970D01*
G01X64266Y14980D01*
G01X64316Y14991D01*
G01X64367Y15005D01*
G01X64416Y15021D01*
G01X64465Y15038D01*
G01X64513Y15058D01*
G01X64561Y15080D01*
G01X64607Y15104D01*
G01X64652Y15129D01*
G01X64696Y15157D01*
G01X64740Y15186D01*
G01X64781Y15217D01*
G01X64822Y15250D01*
G01X64861Y15284D01*
G01X64899Y15320D01*
G01X64935Y15357D01*
G01X64969Y15396D01*
G01X65002Y15437D01*
G01X65034Y15478D01*
G01X65063Y15521D01*
G01X65091Y15565D01*
G01X65116Y15610D01*
G01X65141Y15656D01*
G01X65163Y15703D01*
G01X65183Y15751D01*
G01X65190Y15765D01*
G01X65198Y15777D01*
G01X65208Y15788D01*
G01X65221Y15798D01*
G01X65233Y15806D01*
G01X65248Y15811D01*
G01X65262Y15814D01*
G01X65278Y15815D01*
G01X65293Y15814D01*
G01X65307Y15811D01*
G01X65322Y15806D01*
G01X65334Y15798D01*
G01X65347Y15788D01*
G01X65357Y15777D01*
G01X65365Y15765D01*
G01X65372Y15751D01*
G01X65392Y15703D01*
G01X65414Y15656D01*
G01X65439Y15610D01*
G01X65464Y15565D01*
G01X65492Y15521D01*
G01X65521Y15478D01*
G01X65553Y15437D01*
G01X65586Y15396D01*
G01X65620Y15357D01*
G01X65656Y15320D01*
G01X65694Y15284D01*
G01X65733Y15250D01*
G01X65774Y15217D01*
G01X65815Y15186D01*
G01X65859Y15157D01*
G01X65903Y15129D01*
G01X65948Y15104D01*
G01X65994Y15080D01*
G01X66042Y15058D01*
G01X66090Y15038D01*
G01X66139Y15021D01*
G01X66188Y15005D01*
G01X66239Y14991D01*
G01X66289Y14980D01*
G01X66340Y14970D01*
G01X66392Y14962D01*
G01X66443Y14957D01*
G01X66496Y14954D01*
G01X66548Y14953D01*
G01X66599Y14954D01*
G01X66652Y14957D01*
G01X66703Y14962D01*
G01X66755Y14970D01*
G01X66806Y14980D01*
G01X66856Y14991D01*
G01X66907Y15005D01*
G01X66956Y15021D01*
G01X67005Y15038D01*
G01X67053Y15058D01*
G01X67101Y15080D01*
G01X67147Y15104D01*
G01X67192Y15129D01*
G01X67236Y15157D01*
G01X67280Y15186D01*
G01X67321Y15217D01*
G01X67362Y15250D01*
G01X67401Y15284D01*
G01X67439Y15320D01*
G01X67475Y15357D01*
G01X67509Y15396D01*
G01X67542Y15437D01*
G01X67574Y15478D01*
G01X67603Y15521D01*
G01X67631Y15565D01*
G01X67656Y15610D01*
G01X67681Y15656D01*
G01X67703Y15703D01*
G01X67723Y15751D01*
G01X67730Y15765D01*
G01X67739Y15778D01*
G01X67749Y15789D01*
G01X67762Y15799D01*
G01X67776Y15807D01*
G01X67790Y15812D01*
G01X67781Y15826D01*
G01X67774Y15841D01*
G01X67770Y15858D01*
G01X67768Y15875D01*
G01X67772Y15900D01*
G01X67784Y15952D01*
G01X67794Y16005D01*
G01X67802Y16057D01*
G01X67808Y16111D01*
G01X67811Y16164D01*
G01X67812Y16218D01*
G01X67811Y16271D01*
G01X67808Y16324D01*
G01X67802Y16378D01*
G01X67794Y16430D01*
G01X67784Y16483D01*
G01X67772Y16535D01*
G01X67768Y16560D01*
G01X67770Y16577D01*
G01X67774Y16594D01*
G01X67781Y16609D01*
G01X67790Y16623D01*
G01X67776Y16628D01*
G01X67762Y16636D01*
G01X67749Y16646D01*
G01X67739Y16657D01*
G01X67730Y16670D01*
G01X67723Y16684D01*
G01X67703Y16732D01*
G01X67681Y16779D01*
G01X67656Y16825D01*
G01X67631Y16870D01*
G01X67603Y16914D01*
G01X67574Y16957D01*
G01X67542Y16998D01*
G01X67509Y17039D01*
G01X67475Y17078D01*
G01X67439Y17115D01*
G01X67401Y17151D01*
G01X67362Y17185D01*
G01X67321Y17218D01*
G01X67280Y17249D01*
G01X67236Y17278D01*
G01X67192Y17306D01*
G01X67147Y17331D01*
G01X67101Y17355D01*
G01X67053Y17377D01*
G01X67005Y17397D01*
G01X66956Y17414D01*
G01X66907Y17430D01*
G01X66856Y17444D01*
G01X66806Y17455D01*
G01X66755Y17465D01*
G01X66703Y17473D01*
G01X66652Y17478D01*
G01X66599Y17481D01*
G01X66548Y17482D01*
G01X66496Y17481D01*
G01X66443Y17478D01*
G01X66392Y17473D01*
G01X66340Y17465D01*
G01X66289Y17455D01*
G01X66239Y17444D01*
G01X66188Y17430D01*
G01X66139Y17414D01*
G01X66090Y17397D01*
G01X66042Y17377D01*
G01X65994Y17355D01*
G01X65948Y17331D01*
G01X65903Y17306D01*
G01X65859Y17278D01*
G01X65815Y17249D01*
G01X65774Y17218D01*
G01X65733Y17185D01*
G01X65694Y17151D01*
G01X65656Y17115D01*
G01X65620Y17078D01*
G01X65586Y17039D01*
G01X65553Y16998D01*
G01X65521Y16957D01*
G01X65492Y16914D01*
G01X65464Y16870D01*
G01X65439Y16825D01*
G01X65414Y16779D01*
G01X65392Y16732D01*
G01X65372Y16684D01*
G01X65365Y16670D01*
G01X65357Y16658D01*
G01X65347Y16647D01*
G01X65334Y16637D01*
G01X65322Y16629D01*
G01X65307Y16624D01*
G01X65293Y16621D01*
G01X65278Y16620D01*
G01X65262Y16621D01*
G01X65248Y16624D01*
G01X65233Y16629D01*
G01X65221Y16637D01*
G01X65208Y16647D01*
G01X65198Y16658D01*
G01X65190Y16670D01*
G01X65183Y16684D01*
G01X65163Y16732D01*
G01X65141Y16779D01*
G01X65116Y16825D01*
G01X65091Y16870D01*
G01X65063Y16914D01*
G01X65034Y16957D01*
G01X65002Y16998D01*
G01X64969Y17039D01*
G01X64935Y17078D01*
G01X64899Y17115D01*
G01X64861Y17151D01*
G01X64822Y17185D01*
G01X64781Y17218D01*
G01X64740Y17249D01*
G01X64696Y17278D01*
G01X64652Y17306D01*
G01X64607Y17331D01*
G01X64561Y17355D01*
G01X64513Y17377D01*
G01X64465Y17397D01*
G01X64416Y17414D01*
G01X64367Y17430D01*
G01X64316Y17444D01*
G01X64266Y17455D01*
G01X64215Y17465D01*
G01X64163Y17473D01*
G01X64112Y17478D01*
G01X64059Y17481D01*
G01X64008Y17482D01*
G01X63956Y17481D01*
G01X63903Y17478D01*
G01X63852Y17473D01*
G01X63800Y17465D01*
G01X63749Y17455D01*
G01X63699Y17444D01*
G01X63648Y17430D01*
G01X63599Y17414D01*
G01X63550Y17397D01*
G01X63502Y17377D01*
G01X63454Y17355D01*
G01X63408Y17331D01*
G01X63363Y17306D01*
G01X63319Y17278D01*
G01X63275Y17249D01*
G01X63234Y17218D01*
G01X63193Y17185D01*
G01X63154Y17151D01*
G01X63116Y17115D01*
G01X63080Y17078D01*
G01X63046Y17039D01*
G01X63013Y16998D01*
G01X62981Y16957D01*
G01X62952Y16914D01*
G01X62924Y16870D01*
G01X62899Y16825D01*
G01X62874Y16779D01*
G01X62852Y16732D01*
G01X62832Y16684D01*
G01X62825Y16670D01*
G01X62817Y16658D01*
G01X62807Y16647D01*
G01X62794Y16637D01*
G01X62782Y16629D01*
G01X62767Y16624D01*
G01X62753Y16621D01*
G01X62738Y16620D01*
G01X62722Y16621D01*
G01X62708Y16624D01*
G01X62693Y16629D01*
G01X62681Y16637D01*
G01X62668Y16647D01*
G01X62658Y16658D01*
G01X62650Y16670D01*
G01X62643Y16684D01*
G01X62623Y16732D01*
G01X62601Y16779D01*
G01X62576Y16825D01*
G01X62551Y16870D01*
G01X62523Y16914D01*
G01X62494Y16957D01*
G01X62462Y16998D01*
G01X62429Y17039D01*
G01X62395Y17078D01*
G01X62359Y17115D01*
G01X62321Y17151D01*
G01X62282Y17185D01*
G01X62241Y17218D01*
G01X62200Y17249D01*
G01X62156Y17278D01*
G01X62112Y17306D01*
G01X62067Y17331D01*
G01X62021Y17355D01*
G01X61973Y17377D01*
G01X61925Y17397D01*
G01X61876Y17414D01*
G01X61827Y17430D01*
G01X61776Y17444D01*
G01X61726Y17455D01*
G01X61675Y17465D01*
G01X61623Y17473D01*
G01X61572Y17478D01*
G01X61519Y17481D01*
G37*
G36*
G01X36119Y17481D02*
G01X36068Y17482D01*
G01X36017Y17481D01*
G01X35966Y17478D01*
G01X35915Y17473D01*
G01X35865Y17466D01*
G01X35815Y17457D01*
G01X35765Y17445D01*
G01X35715Y17432D01*
G01X35667Y17417D01*
G01X35619Y17400D01*
G01X35572Y17381D01*
G01X35525Y17360D01*
G01X35480Y17337D01*
G01X35435Y17313D01*
G01X35391Y17286D01*
G01X35349Y17258D01*
G01X35308Y17228D01*
G01X35268Y17197D01*
G01X35229Y17164D01*
G01X35191Y17129D01*
G01X35156Y17094D01*
G01X35121Y17056D01*
G01X35088Y17017D01*
G01X35057Y16977D01*
G01X35027Y16936D01*
G01X34999Y16894D01*
G01X34972Y16850D01*
G01X34948Y16805D01*
G01X34925Y16760D01*
G01X34904Y16713D01*
G01X34885Y16666D01*
G01X34868Y16618D01*
G01X34853Y16570D01*
G01X34840Y16520D01*
G01X34828Y16470D01*
G01X34819Y16420D01*
G01X34812Y16370D01*
G01X34807Y16319D01*
G01X34804Y16268D01*
G01X34803Y16218D01*
G01X34804Y16167D01*
G01X34807Y16116D01*
G01X34812Y16065D01*
G01X34819Y16015D01*
G01X34828Y15965D01*
G01X34840Y15915D01*
G01X34853Y15865D01*
G01X34868Y15817D01*
G01X34885Y15769D01*
G01X34904Y15722D01*
G01X34925Y15675D01*
G01X34948Y15630D01*
G01X34972Y15585D01*
G01X34999Y15541D01*
G01X35027Y15499D01*
G01X35057Y15458D01*
G01X35088Y15418D01*
G01X35121Y15379D01*
G01X35156Y15341D01*
G01X35191Y15306D01*
G01X35229Y15271D01*
G01X35268Y15238D01*
G01X35308Y15207D01*
G01X35349Y15177D01*
G01X35391Y15149D01*
G01X35435Y15122D01*
G01X35480Y15098D01*
G01X35525Y15075D01*
G01X35572Y15054D01*
G01X35619Y15035D01*
G01X35667Y15018D01*
G01X35715Y15003D01*
G01X35765Y14990D01*
G01X35815Y14978D01*
G01X35865Y14969D01*
G01X35915Y14962D01*
G01X35966Y14957D01*
G01X36017Y14954D01*
G01X36068Y14953D01*
G01X36119Y14954D01*
G01X36172Y14957D01*
G01X36223Y14962D01*
G01X36275Y14970D01*
G01X36326Y14980D01*
G01X36376Y14991D01*
G01X36427Y15005D01*
G01X36476Y15021D01*
G01X36525Y15038D01*
G01X36573Y15058D01*
G01X36621Y15080D01*
G01X36667Y15104D01*
G01X36712Y15129D01*
G01X36756Y15157D01*
G01X36800Y15186D01*
G01X36841Y15217D01*
G01X36882Y15250D01*
G01X36921Y15284D01*
G01X36959Y15320D01*
G01X36995Y15357D01*
G01X37029Y15396D01*
G01X37062Y15437D01*
G01X37094Y15478D01*
G01X37123Y15521D01*
G01X37151Y15565D01*
G01X37176Y15610D01*
G01X37201Y15656D01*
G01X37223Y15703D01*
G01X37243Y15751D01*
G01X37250Y15765D01*
G01X37258Y15777D01*
G01X37268Y15788D01*
G01X37281Y15798D01*
G01X37293Y15806D01*
G01X37308Y15811D01*
G01X37322Y15814D01*
G01X37338Y15815D01*
G01X37353Y15814D01*
G01X37367Y15811D01*
G01X37382Y15806D01*
G01X37394Y15798D01*
G01X37407Y15788D01*
G01X37417Y15777D01*
G01X37425Y15765D01*
G01X37432Y15751D01*
G01X37452Y15703D01*
G01X37474Y15656D01*
G01X37499Y15610D01*
G01X37524Y15565D01*
G01X37552Y15521D01*
G01X37581Y15478D01*
G01X37613Y15437D01*
G01X37646Y15396D01*
G01X37680Y15357D01*
G01X37716Y15320D01*
G01X37754Y15284D01*
G01X37793Y15250D01*
G01X37834Y15217D01*
G01X37875Y15186D01*
G01X37919Y15157D01*
G01X37963Y15129D01*
G01X38008Y15104D01*
G01X38054Y15080D01*
G01X38102Y15058D01*
G01X38150Y15038D01*
G01X38199Y15021D01*
G01X38248Y15005D01*
G01X38299Y14991D01*
G01X38349Y14980D01*
G01X38400Y14970D01*
G01X38452Y14962D01*
G01X38503Y14957D01*
G01X38556Y14954D01*
G01X38608Y14953D01*
G01X38659Y14954D01*
G01X38712Y14957D01*
G01X38763Y14962D01*
G01X38815Y14970D01*
G01X38866Y14980D01*
G01X38916Y14991D01*
G01X38967Y15005D01*
G01X39016Y15021D01*
G01X39065Y15038D01*
G01X39113Y15058D01*
G01X39161Y15080D01*
G01X39207Y15104D01*
G01X39252Y15129D01*
G01X39296Y15157D01*
G01X39340Y15186D01*
G01X39381Y15217D01*
G01X39422Y15250D01*
G01X39461Y15284D01*
G01X39499Y15320D01*
G01X39535Y15357D01*
G01X39569Y15396D01*
G01X39602Y15437D01*
G01X39634Y15478D01*
G01X39663Y15521D01*
G01X39691Y15565D01*
G01X39716Y15610D01*
G01X39741Y15656D01*
G01X39763Y15703D01*
G01X39783Y15751D01*
G01X39790Y15765D01*
G01X39798Y15777D01*
G01X39808Y15788D01*
G01X39821Y15798D01*
G01X39833Y15806D01*
G01X39848Y15811D01*
G01X39862Y15814D01*
G01X39878Y15815D01*
G01X39893Y15814D01*
G01X39907Y15811D01*
G01X39922Y15806D01*
G01X39934Y15798D01*
G01X39947Y15788D01*
G01X39957Y15777D01*
G01X39965Y15765D01*
G01X39972Y15751D01*
G01X39992Y15703D01*
G01X40014Y15656D01*
G01X40039Y15610D01*
G01X40064Y15565D01*
G01X40092Y15521D01*
G01X40121Y15478D01*
G01X40153Y15437D01*
G01X40186Y15396D01*
G01X40220Y15357D01*
G01X40256Y15320D01*
G01X40294Y15284D01*
G01X40333Y15250D01*
G01X40374Y15217D01*
G01X40415Y15186D01*
G01X40459Y15157D01*
G01X40503Y15129D01*
G01X40548Y15104D01*
G01X40594Y15080D01*
G01X40642Y15058D01*
G01X40690Y15038D01*
G01X40739Y15021D01*
G01X40788Y15005D01*
G01X40839Y14991D01*
G01X40889Y14980D01*
G01X40940Y14970D01*
G01X40992Y14962D01*
G01X41043Y14957D01*
G01X41096Y14954D01*
G01X41148Y14953D01*
G01X41199Y14954D01*
G01X41252Y14957D01*
G01X41303Y14962D01*
G01X41355Y14970D01*
G01X41406Y14980D01*
G01X41456Y14991D01*
G01X41507Y15005D01*
G01X41556Y15021D01*
G01X41605Y15038D01*
G01X41653Y15058D01*
G01X41701Y15080D01*
G01X41747Y15104D01*
G01X41792Y15129D01*
G01X41836Y15157D01*
G01X41880Y15186D01*
G01X41921Y15217D01*
G01X41962Y15250D01*
G01X42001Y15284D01*
G01X42039Y15320D01*
G01X42075Y15357D01*
G01X42109Y15396D01*
G01X42142Y15437D01*
G01X42174Y15478D01*
G01X42203Y15521D01*
G01X42231Y15565D01*
G01X42256Y15610D01*
G01X42281Y15656D01*
G01X42303Y15703D01*
G01X42323Y15751D01*
G01X42330Y15765D01*
G01X42338Y15777D01*
G01X42348Y15788D01*
G01X42361Y15798D01*
G01X42373Y15806D01*
G01X42388Y15811D01*
G01X42402Y15814D01*
G01X42418Y15815D01*
G01X42433Y15814D01*
G01X42447Y15811D01*
G01X42462Y15806D01*
G01X42474Y15798D01*
G01X42487Y15788D01*
G01X42497Y15777D01*
G01X42505Y15765D01*
G01X42512Y15751D01*
G01X42532Y15703D01*
G01X42554Y15656D01*
G01X42579Y15610D01*
G01X42604Y15565D01*
G01X42632Y15521D01*
G01X42661Y15478D01*
G01X42693Y15437D01*
G01X42726Y15396D01*
G01X42760Y15357D01*
G01X42796Y15320D01*
G01X42834Y15284D01*
G01X42873Y15250D01*
G01X42914Y15217D01*
G01X42955Y15186D01*
G01X42999Y15157D01*
G01X43043Y15129D01*
G01X43088Y15104D01*
G01X43134Y15080D01*
G01X43182Y15058D01*
G01X43230Y15038D01*
G01X43279Y15021D01*
G01X43328Y15005D01*
G01X43379Y14991D01*
G01X43429Y14980D01*
G01X43480Y14970D01*
G01X43532Y14962D01*
G01X43583Y14957D01*
G01X43636Y14954D01*
G01X43688Y14953D01*
G01X43739Y14954D01*
G01X43792Y14957D01*
G01X43843Y14962D01*
G01X43895Y14970D01*
G01X43946Y14980D01*
G01X43996Y14991D01*
G01X44047Y15005D01*
G01X44096Y15021D01*
G01X44145Y15038D01*
G01X44193Y15058D01*
G01X44241Y15080D01*
G01X44287Y15104D01*
G01X44332Y15129D01*
G01X44376Y15157D01*
G01X44420Y15186D01*
G01X44461Y15217D01*
G01X44502Y15250D01*
G01X44541Y15284D01*
G01X44579Y15320D01*
G01X44615Y15357D01*
G01X44649Y15396D01*
G01X44682Y15437D01*
G01X44714Y15478D01*
G01X44743Y15521D01*
G01X44771Y15565D01*
G01X44796Y15610D01*
G01X44821Y15656D01*
G01X44843Y15703D01*
G01X44863Y15751D01*
G01X44870Y15765D01*
G01X44878Y15777D01*
G01X44888Y15788D01*
G01X44901Y15798D01*
G01X44913Y15806D01*
G01X44928Y15811D01*
G01X44942Y15814D01*
G01X44958Y15815D01*
G01X44973Y15814D01*
G01X44987Y15811D01*
G01X45002Y15806D01*
G01X45014Y15798D01*
G01X45027Y15788D01*
G01X45037Y15777D01*
G01X45045Y15765D01*
G01X45052Y15751D01*
G01X45072Y15703D01*
G01X45094Y15656D01*
G01X45119Y15610D01*
G01X45144Y15565D01*
G01X45172Y15521D01*
G01X45201Y15478D01*
G01X45233Y15437D01*
G01X45266Y15396D01*
G01X45300Y15357D01*
G01X45336Y15320D01*
G01X45374Y15284D01*
G01X45413Y15250D01*
G01X45454Y15217D01*
G01X45495Y15186D01*
G01X45539Y15157D01*
G01X45583Y15129D01*
G01X45628Y15104D01*
G01X45674Y15080D01*
G01X45722Y15058D01*
G01X45770Y15038D01*
G01X45819Y15021D01*
G01X45868Y15005D01*
G01X45919Y14991D01*
G01X45969Y14980D01*
G01X46020Y14970D01*
G01X46072Y14962D01*
G01X46123Y14957D01*
G01X46176Y14954D01*
G01X46228Y14953D01*
G01X46279Y14954D01*
G01X46332Y14957D01*
G01X46383Y14962D01*
G01X46435Y14970D01*
G01X46486Y14980D01*
G01X46536Y14991D01*
G01X46587Y15005D01*
G01X46636Y15021D01*
G01X46685Y15038D01*
G01X46733Y15058D01*
G01X46781Y15080D01*
G01X46827Y15104D01*
G01X46872Y15129D01*
G01X46916Y15157D01*
G01X46960Y15186D01*
G01X47001Y15217D01*
G01X47042Y15250D01*
G01X47081Y15284D01*
G01X47119Y15320D01*
G01X47155Y15357D01*
G01X47189Y15396D01*
G01X47222Y15437D01*
G01X47254Y15478D01*
G01X47283Y15521D01*
G01X47311Y15565D01*
G01X47336Y15610D01*
G01X47361Y15656D01*
G01X47383Y15703D01*
G01X47403Y15751D01*
G01X47410Y15765D01*
G01X47418Y15777D01*
G01X47428Y15788D01*
G01X47441Y15798D01*
G01X47453Y15806D01*
G01X47468Y15811D01*
G01X47482Y15814D01*
G01X47498Y15815D01*
G01X47513Y15814D01*
G01X47527Y15811D01*
G01X47542Y15806D01*
G01X47554Y15798D01*
G01X47567Y15788D01*
G01X47577Y15777D01*
G01X47585Y15765D01*
G01X47592Y15751D01*
G01X47612Y15703D01*
G01X47634Y15656D01*
G01X47659Y15610D01*
G01X47684Y15565D01*
G01X47712Y15521D01*
G01X47741Y15478D01*
G01X47773Y15437D01*
G01X47806Y15396D01*
G01X47840Y15357D01*
G01X47876Y15320D01*
G01X47914Y15284D01*
G01X47953Y15250D01*
G01X47994Y15217D01*
G01X48035Y15186D01*
G01X48079Y15157D01*
G01X48123Y15129D01*
G01X48168Y15104D01*
G01X48214Y15080D01*
G01X48262Y15058D01*
G01X48310Y15038D01*
G01X48359Y15021D01*
G01X48408Y15005D01*
G01X48459Y14991D01*
G01X48509Y14980D01*
G01X48560Y14970D01*
G01X48612Y14962D01*
G01X48663Y14957D01*
G01X48716Y14954D01*
G01X48768Y14953D01*
G01X48819Y14954D01*
G01X48872Y14957D01*
G01X48923Y14962D01*
G01X48975Y14970D01*
G01X49026Y14980D01*
G01X49076Y14991D01*
G01X49127Y15005D01*
G01X49176Y15021D01*
G01X49225Y15038D01*
G01X49273Y15058D01*
G01X49321Y15080D01*
G01X49367Y15104D01*
G01X49412Y15129D01*
G01X49456Y15157D01*
G01X49500Y15186D01*
G01X49541Y15217D01*
G01X49582Y15250D01*
G01X49621Y15284D01*
G01X49659Y15320D01*
G01X49695Y15357D01*
G01X49729Y15396D01*
G01X49762Y15437D01*
G01X49794Y15478D01*
G01X49823Y15521D01*
G01X49851Y15565D01*
G01X49876Y15610D01*
G01X49901Y15656D01*
G01X49923Y15703D01*
G01X49943Y15751D01*
G01X49950Y15765D01*
G01X49958Y15777D01*
G01X49968Y15788D01*
G01X49981Y15798D01*
G01X49993Y15806D01*
G01X50008Y15811D01*
G01X50022Y15814D01*
G01X50038Y15815D01*
G01X50053Y15814D01*
G01X50067Y15811D01*
G01X50082Y15806D01*
G01X50094Y15798D01*
G01X50107Y15788D01*
G01X50117Y15777D01*
G01X50125Y15765D01*
G01X50132Y15751D01*
G01X50152Y15703D01*
G01X50174Y15656D01*
G01X50199Y15610D01*
G01X50224Y15565D01*
G01X50252Y15521D01*
G01X50281Y15478D01*
G01X50313Y15437D01*
G01X50346Y15396D01*
G01X50380Y15357D01*
G01X50416Y15320D01*
G01X50454Y15284D01*
G01X50493Y15250D01*
G01X50534Y15217D01*
G01X50575Y15186D01*
G01X50619Y15157D01*
G01X50663Y15129D01*
G01X50708Y15104D01*
G01X50754Y15080D01*
G01X50802Y15058D01*
G01X50850Y15038D01*
G01X50899Y15021D01*
G01X50948Y15005D01*
G01X50999Y14991D01*
G01X51049Y14980D01*
G01X51100Y14970D01*
G01X51152Y14962D01*
G01X51203Y14957D01*
G01X51256Y14954D01*
G01X51308Y14953D01*
G01X51359Y14954D01*
G01X51412Y14957D01*
G01X51463Y14962D01*
G01X51515Y14970D01*
G01X51566Y14980D01*
G01X51616Y14991D01*
G01X51667Y15005D01*
G01X51716Y15021D01*
G01X51765Y15038D01*
G01X51813Y15058D01*
G01X51861Y15080D01*
G01X51907Y15104D01*
G01X51952Y15129D01*
G01X51996Y15157D01*
G01X52040Y15186D01*
G01X52081Y15217D01*
G01X52122Y15250D01*
G01X52161Y15284D01*
G01X52199Y15320D01*
G01X52235Y15357D01*
G01X52269Y15396D01*
G01X52302Y15437D01*
G01X52334Y15478D01*
G01X52363Y15521D01*
G01X52391Y15565D01*
G01X52416Y15610D01*
G01X52441Y15656D01*
G01X52463Y15703D01*
G01X52483Y15751D01*
G01X52490Y15765D01*
G01X52498Y15777D01*
G01X52508Y15788D01*
G01X52521Y15798D01*
G01X52533Y15806D01*
G01X52548Y15811D01*
G01X52562Y15814D01*
G01X52578Y15815D01*
G01X52593Y15814D01*
G01X52607Y15811D01*
G01X52622Y15806D01*
G01X52634Y15798D01*
G01X52647Y15788D01*
G01X52657Y15777D01*
G01X52665Y15765D01*
G01X52672Y15751D01*
G01X52692Y15703D01*
G01X52714Y15656D01*
G01X52739Y15610D01*
G01X52764Y15565D01*
G01X52792Y15521D01*
G01X52821Y15478D01*
G01X52853Y15437D01*
G01X52886Y15396D01*
G01X52920Y15357D01*
G01X52956Y15320D01*
G01X52994Y15284D01*
G01X53033Y15250D01*
G01X53074Y15217D01*
G01X53115Y15186D01*
G01X53159Y15157D01*
G01X53203Y15129D01*
G01X53248Y15104D01*
G01X53294Y15080D01*
G01X53342Y15058D01*
G01X53390Y15038D01*
G01X53439Y15021D01*
G01X53488Y15005D01*
G01X53539Y14991D01*
G01X53589Y14980D01*
G01X53640Y14970D01*
G01X53692Y14962D01*
G01X53743Y14957D01*
G01X53796Y14954D01*
G01X53848Y14953D01*
G01X53899Y14954D01*
G01X53952Y14957D01*
G01X54003Y14962D01*
G01X54055Y14970D01*
G01X54106Y14980D01*
G01X54156Y14991D01*
G01X54207Y15005D01*
G01X54256Y15021D01*
G01X54305Y15038D01*
G01X54353Y15058D01*
G01X54401Y15080D01*
G01X54447Y15104D01*
G01X54492Y15129D01*
G01X54536Y15157D01*
G01X54580Y15186D01*
G01X54621Y15217D01*
G01X54662Y15250D01*
G01X54701Y15284D01*
G01X54739Y15320D01*
G01X54775Y15357D01*
G01X54809Y15396D01*
G01X54842Y15437D01*
G01X54874Y15478D01*
G01X54903Y15521D01*
G01X54931Y15565D01*
G01X54956Y15610D01*
G01X54981Y15656D01*
G01X55003Y15703D01*
G01X55023Y15751D01*
G01X55030Y15765D01*
G01X55038Y15777D01*
G01X55048Y15788D01*
G01X55061Y15798D01*
G01X55073Y15806D01*
G01X55088Y15811D01*
G01X55102Y15814D01*
G01X55118Y15815D01*
G01X55133Y15814D01*
G01X55147Y15811D01*
G01X55162Y15806D01*
G01X55174Y15798D01*
G01X55187Y15788D01*
G01X55197Y15777D01*
G01X55205Y15765D01*
G01X55212Y15751D01*
G01X55232Y15703D01*
G01X55254Y15656D01*
G01X55279Y15610D01*
G01X55304Y15565D01*
G01X55332Y15521D01*
G01X55361Y15478D01*
G01X55393Y15437D01*
G01X55426Y15396D01*
G01X55460Y15357D01*
G01X55496Y15320D01*
G01X55534Y15284D01*
G01X55573Y15250D01*
G01X55614Y15217D01*
G01X55655Y15186D01*
G01X55699Y15157D01*
G01X55743Y15129D01*
G01X55788Y15104D01*
G01X55834Y15080D01*
G01X55882Y15058D01*
G01X55930Y15038D01*
G01X55979Y15021D01*
G01X56028Y15005D01*
G01X56079Y14991D01*
G01X56129Y14980D01*
G01X56180Y14970D01*
G01X56232Y14962D01*
G01X56283Y14957D01*
G01X56336Y14954D01*
G01X56388Y14953D01*
G01X56439Y14954D01*
G01X56492Y14957D01*
G01X56543Y14962D01*
G01X56595Y14970D01*
G01X56646Y14980D01*
G01X56696Y14991D01*
G01X56747Y15005D01*
G01X56796Y15021D01*
G01X56845Y15038D01*
G01X56893Y15058D01*
G01X56941Y15080D01*
G01X56987Y15104D01*
G01X57032Y15129D01*
G01X57076Y15157D01*
G01X57120Y15186D01*
G01X57161Y15217D01*
G01X57202Y15250D01*
G01X57241Y15284D01*
G01X57279Y15320D01*
G01X57315Y15357D01*
G01X57349Y15396D01*
G01X57382Y15437D01*
G01X57414Y15478D01*
G01X57443Y15521D01*
G01X57471Y15565D01*
G01X57496Y15610D01*
G01X57521Y15656D01*
G01X57543Y15703D01*
G01X57563Y15751D01*
G01X57570Y15765D01*
G01X57579Y15778D01*
G01X57589Y15789D01*
G01X57602Y15799D01*
G01X57616Y15807D01*
G01X57630Y15812D01*
G01X57621Y15826D01*
G01X57614Y15841D01*
G01X57610Y15858D01*
G01X57608Y15875D01*
G01X57612Y15900D01*
G01X57624Y15952D01*
G01X57634Y16005D01*
G01X57642Y16057D01*
G01X57648Y16111D01*
G01X57651Y16164D01*
G01X57652Y16218D01*
G01X57651Y16271D01*
G01X57648Y16324D01*
G01X57642Y16378D01*
G01X57634Y16430D01*
G01X57624Y16483D01*
G01X57612Y16535D01*
G01X57608Y16560D01*
G01X57610Y16577D01*
G01X57614Y16594D01*
G01X57621Y16609D01*
G01X57630Y16623D01*
G01X57616Y16628D01*
G01X57602Y16636D01*
G01X57589Y16646D01*
G01X57579Y16657D01*
G01X57570Y16670D01*
G01X57563Y16684D01*
G01X57543Y16732D01*
G01X57521Y16779D01*
G01X57496Y16825D01*
G01X57471Y16870D01*
G01X57443Y16914D01*
G01X57414Y16957D01*
G01X57382Y16998D01*
G01X57349Y17039D01*
G01X57315Y17078D01*
G01X57279Y17115D01*
G01X57241Y17151D01*
G01X57202Y17185D01*
G01X57161Y17218D01*
G01X57120Y17249D01*
G01X57076Y17278D01*
G01X57032Y17306D01*
G01X56987Y17331D01*
G01X56941Y17355D01*
G01X56893Y17377D01*
G01X56845Y17397D01*
G01X56796Y17414D01*
G01X56747Y17430D01*
G01X56696Y17444D01*
G01X56646Y17455D01*
G01X56595Y17465D01*
G01X56543Y17473D01*
G01X56492Y17478D01*
G01X56439Y17481D01*
G01X56388Y17482D01*
G01X56336Y17481D01*
G01X56283Y17478D01*
G01X56232Y17473D01*
G01X56180Y17465D01*
G01X56129Y17455D01*
G01X56079Y17444D01*
G01X56028Y17430D01*
G01X55979Y17414D01*
G01X55930Y17397D01*
G01X55882Y17377D01*
G01X55834Y17355D01*
G01X55788Y17331D01*
G01X55743Y17306D01*
G01X55699Y17278D01*
G01X55655Y17249D01*
G01X55614Y17218D01*
G01X55573Y17185D01*
G01X55534Y17151D01*
G01X55496Y17115D01*
G01X55460Y17078D01*
G01X55426Y17039D01*
G01X55393Y16998D01*
G01X55361Y16957D01*
G01X55332Y16914D01*
G01X55304Y16870D01*
G01X55279Y16825D01*
G01X55254Y16779D01*
G01X55232Y16732D01*
G01X55212Y16684D01*
G01X55205Y16670D01*
G01X55197Y16658D01*
G01X55187Y16647D01*
G01X55174Y16637D01*
G01X55162Y16629D01*
G01X55147Y16624D01*
G01X55133Y16621D01*
G01X55118Y16620D01*
G01X55102Y16621D01*
G01X55088Y16624D01*
G01X55073Y16629D01*
G01X55061Y16637D01*
G01X55048Y16647D01*
G01X55038Y16658D01*
G01X55030Y16670D01*
G01X55023Y16684D01*
G01X55003Y16732D01*
G01X54981Y16779D01*
G01X54956Y16825D01*
G01X54931Y16870D01*
G01X54903Y16914D01*
G01X54874Y16957D01*
G01X54842Y16998D01*
G01X54809Y17039D01*
G01X54775Y17078D01*
G01X54739Y17115D01*
G01X54701Y17151D01*
G01X54662Y17185D01*
G01X54621Y17218D01*
G01X54580Y17249D01*
G01X54536Y17278D01*
G01X54492Y17306D01*
G01X54447Y17331D01*
G01X54401Y17355D01*
G01X54353Y17377D01*
G01X54305Y17397D01*
G01X54256Y17414D01*
G01X54207Y17430D01*
G01X54156Y17444D01*
G01X54106Y17455D01*
G01X54055Y17465D01*
G01X54003Y17473D01*
G01X53952Y17478D01*
G01X53899Y17481D01*
G01X53848Y17482D01*
G01X53796Y17481D01*
G01X53743Y17478D01*
G01X53692Y17473D01*
G01X53640Y17465D01*
G01X53589Y17455D01*
G01X53539Y17444D01*
G01X53488Y17430D01*
G01X53439Y17414D01*
G01X53390Y17397D01*
G01X53342Y17377D01*
G01X53294Y17355D01*
G01X53248Y17331D01*
G01X53203Y17306D01*
G01X53159Y17278D01*
G01X53115Y17249D01*
G01X53074Y17218D01*
G01X53033Y17185D01*
G01X52994Y17151D01*
G01X52956Y17115D01*
G01X52920Y17078D01*
G01X52886Y17039D01*
G01X52853Y16998D01*
G01X52821Y16957D01*
G01X52792Y16914D01*
G01X52764Y16870D01*
G01X52739Y16825D01*
G01X52714Y16779D01*
G01X52692Y16732D01*
G01X52672Y16684D01*
G01X52665Y16670D01*
G01X52657Y16658D01*
G01X52647Y16647D01*
G01X52634Y16637D01*
G01X52622Y16629D01*
G01X52607Y16624D01*
G01X52593Y16621D01*
G01X52578Y16620D01*
G01X52562Y16621D01*
G01X52548Y16624D01*
G01X52533Y16629D01*
G01X52521Y16637D01*
G01X52508Y16647D01*
G01X52498Y16658D01*
G01X52490Y16670D01*
G01X52483Y16684D01*
G01X52463Y16732D01*
G01X52441Y16779D01*
G01X52416Y16825D01*
G01X52391Y16870D01*
G01X52363Y16914D01*
G01X52334Y16957D01*
G01X52302Y16998D01*
G01X52269Y17039D01*
G01X52235Y17078D01*
G01X52199Y17115D01*
G01X52161Y17151D01*
G01X52122Y17185D01*
G01X52081Y17218D01*
G01X52040Y17249D01*
G01X51996Y17278D01*
G01X51952Y17306D01*
G01X51907Y17331D01*
G01X51861Y17355D01*
G01X51813Y17377D01*
G01X51765Y17397D01*
G01X51716Y17414D01*
G01X51667Y17430D01*
G01X51616Y17444D01*
G01X51566Y17455D01*
G01X51515Y17465D01*
G01X51463Y17473D01*
G01X51412Y17478D01*
G01X51359Y17481D01*
G01X51308Y17482D01*
G01X51256Y17481D01*
G01X51203Y17478D01*
G01X51152Y17473D01*
G01X51100Y17465D01*
G01X51049Y17455D01*
G01X50999Y17444D01*
G01X50948Y17430D01*
G01X50899Y17414D01*
G01X50850Y17397D01*
G01X50802Y17377D01*
G01X50754Y17355D01*
G01X50708Y17331D01*
G01X50663Y17306D01*
G01X50619Y17278D01*
G01X50575Y17249D01*
G01X50534Y17218D01*
G01X50493Y17185D01*
G01X50454Y17151D01*
G01X50416Y17115D01*
G01X50380Y17078D01*
G01X50346Y17039D01*
G01X50313Y16998D01*
G01X50281Y16957D01*
G01X50252Y16914D01*
G01X50224Y16870D01*
G01X50199Y16825D01*
G01X50174Y16779D01*
G01X50152Y16732D01*
G01X50132Y16684D01*
G01X50125Y16670D01*
G01X50117Y16658D01*
G01X50107Y16647D01*
G01X50094Y16637D01*
G01X50082Y16629D01*
G01X50067Y16624D01*
G01X50053Y16621D01*
G01X50038Y16620D01*
G01X50022Y16621D01*
G01X50008Y16624D01*
G01X49993Y16629D01*
G01X49981Y16637D01*
G01X49968Y16647D01*
G01X49958Y16658D01*
G01X49950Y16670D01*
G01X49943Y16684D01*
G01X49923Y16732D01*
G01X49901Y16779D01*
G01X49876Y16825D01*
G01X49851Y16870D01*
G01X49823Y16914D01*
G01X49794Y16957D01*
G01X49762Y16998D01*
G01X49729Y17039D01*
G01X49695Y17078D01*
G01X49659Y17115D01*
G01X49621Y17151D01*
G01X49582Y17185D01*
G01X49541Y17218D01*
G01X49500Y17249D01*
G01X49456Y17278D01*
G01X49412Y17306D01*
G01X49367Y17331D01*
G01X49321Y17355D01*
G01X49273Y17377D01*
G01X49225Y17397D01*
G01X49176Y17414D01*
G01X49127Y17430D01*
G01X49076Y17444D01*
G01X49026Y17455D01*
G01X48975Y17465D01*
G01X48923Y17473D01*
G01X48872Y17478D01*
G01X48819Y17481D01*
G01X48768Y17482D01*
G01X48716Y17481D01*
G01X48663Y17478D01*
G01X48612Y17473D01*
G01X48560Y17465D01*
G01X48509Y17455D01*
G01X48459Y17444D01*
G01X48408Y17430D01*
G01X48359Y17414D01*
G01X48310Y17397D01*
G01X48262Y17377D01*
G01X48214Y17355D01*
G01X48168Y17331D01*
G01X48123Y17306D01*
G01X48079Y17278D01*
G01X48035Y17249D01*
G01X47994Y17218D01*
G01X47953Y17185D01*
G01X47914Y17151D01*
G01X47876Y17115D01*
G01X47840Y17078D01*
G01X47806Y17039D01*
G01X47773Y16998D01*
G01X47741Y16957D01*
G01X47712Y16914D01*
G01X47684Y16870D01*
G01X47659Y16825D01*
G01X47634Y16779D01*
G01X47612Y16732D01*
G01X47592Y16684D01*
G01X47585Y16670D01*
G01X47577Y16658D01*
G01X47567Y16647D01*
G01X47554Y16637D01*
G01X47542Y16629D01*
G01X47527Y16624D01*
G01X47513Y16621D01*
G01X47498Y16620D01*
G01X47482Y16621D01*
G01X47468Y16624D01*
G01X47453Y16629D01*
G01X47441Y16637D01*
G01X47428Y16647D01*
G01X47418Y16658D01*
G01X47410Y16670D01*
G01X47403Y16684D01*
G01X47383Y16732D01*
G01X47361Y16779D01*
G01X47336Y16825D01*
G01X47311Y16870D01*
G01X47283Y16914D01*
G01X47254Y16957D01*
G01X47222Y16998D01*
G01X47189Y17039D01*
G01X47155Y17078D01*
G01X47119Y17115D01*
G01X47081Y17151D01*
G01X47042Y17185D01*
G01X47001Y17218D01*
G01X46960Y17249D01*
G01X46916Y17278D01*
G01X46872Y17306D01*
G01X46827Y17331D01*
G01X46781Y17355D01*
G01X46733Y17377D01*
G01X46685Y17397D01*
G01X46636Y17414D01*
G01X46587Y17430D01*
G01X46536Y17444D01*
G01X46486Y17455D01*
G01X46435Y17465D01*
G01X46383Y17473D01*
G01X46332Y17478D01*
G01X46279Y17481D01*
G01X46228Y17482D01*
G01X46176Y17481D01*
G01X46123Y17478D01*
G01X46072Y17473D01*
G01X46020Y17465D01*
G01X45969Y17455D01*
G01X45919Y17444D01*
G01X45868Y17430D01*
G01X45819Y17414D01*
G01X45770Y17397D01*
G01X45722Y17377D01*
G01X45674Y17355D01*
G01X45628Y17331D01*
G01X45583Y17306D01*
G01X45539Y17278D01*
G01X45495Y17249D01*
G01X45454Y17218D01*
G01X45413Y17185D01*
G01X45374Y17151D01*
G01X45336Y17115D01*
G01X45300Y17078D01*
G01X45266Y17039D01*
G01X45233Y16998D01*
G01X45201Y16957D01*
G01X45172Y16914D01*
G01X45144Y16870D01*
G01X45119Y16825D01*
G01X45094Y16779D01*
G01X45072Y16732D01*
G01X45052Y16684D01*
G01X45045Y16670D01*
G01X45037Y16658D01*
G01X45027Y16647D01*
G01X45014Y16637D01*
G01X45002Y16629D01*
G01X44987Y16624D01*
G01X44973Y16621D01*
G01X44958Y16620D01*
G01X44942Y16621D01*
G01X44928Y16624D01*
G01X44913Y16629D01*
G01X44901Y16637D01*
G01X44888Y16647D01*
G01X44878Y16658D01*
G01X44870Y16670D01*
G01X44863Y16684D01*
G01X44843Y16732D01*
G01X44821Y16779D01*
G01X44796Y16825D01*
G01X44771Y16870D01*
G01X44743Y16914D01*
G01X44714Y16957D01*
G01X44682Y16998D01*
G01X44649Y17039D01*
G01X44615Y17078D01*
G01X44579Y17115D01*
G01X44541Y17151D01*
G01X44502Y17185D01*
G01X44461Y17218D01*
G01X44420Y17249D01*
G01X44376Y17278D01*
G01X44332Y17306D01*
G01X44287Y17331D01*
G01X44241Y17355D01*
G01X44193Y17377D01*
G01X44145Y17397D01*
G01X44096Y17414D01*
G01X44047Y17430D01*
G01X43996Y17444D01*
G01X43946Y17455D01*
G01X43895Y17465D01*
G01X43843Y17473D01*
G01X43792Y17478D01*
G01X43739Y17481D01*
G01X43688Y17482D01*
G01X43636Y17481D01*
G01X43583Y17478D01*
G01X43532Y17473D01*
G01X43480Y17465D01*
G01X43429Y17455D01*
G01X43379Y17444D01*
G01X43328Y17430D01*
G01X43279Y17414D01*
G01X43230Y17397D01*
G01X43182Y17377D01*
G01X43134Y17355D01*
G01X43088Y17331D01*
G01X43043Y17306D01*
G01X42999Y17278D01*
G01X42955Y17249D01*
G01X42914Y17218D01*
G01X42873Y17185D01*
G01X42834Y17151D01*
G01X42796Y17115D01*
G01X42760Y17078D01*
G01X42726Y17039D01*
G01X42693Y16998D01*
G01X42661Y16957D01*
G01X42632Y16914D01*
G01X42604Y16870D01*
G01X42579Y16825D01*
G01X42554Y16779D01*
G01X42532Y16732D01*
G01X42512Y16684D01*
G01X42505Y16670D01*
G01X42497Y16658D01*
G01X42487Y16647D01*
G01X42474Y16637D01*
G01X42462Y16629D01*
G01X42447Y16624D01*
G01X42433Y16621D01*
G01X42418Y16620D01*
G01X42402Y16621D01*
G01X42388Y16624D01*
G01X42373Y16629D01*
G01X42361Y16637D01*
G01X42348Y16647D01*
G01X42338Y16658D01*
G01X42330Y16670D01*
G01X42323Y16684D01*
G01X42303Y16732D01*
G01X42281Y16779D01*
G01X42256Y16825D01*
G01X42231Y16870D01*
G01X42203Y16914D01*
G01X42174Y16957D01*
G01X42142Y16998D01*
G01X42109Y17039D01*
G01X42075Y17078D01*
G01X42039Y17115D01*
G01X42001Y17151D01*
G01X41962Y17185D01*
G01X41921Y17218D01*
G01X41880Y17249D01*
G01X41836Y17278D01*
G01X41792Y17306D01*
G01X41747Y17331D01*
G01X41701Y17355D01*
G01X41653Y17377D01*
G01X41605Y17397D01*
G01X41556Y17414D01*
G01X41507Y17430D01*
G01X41456Y17444D01*
G01X41406Y17455D01*
G01X41355Y17465D01*
G01X41303Y17473D01*
G01X41252Y17478D01*
G01X41199Y17481D01*
G01X41148Y17482D01*
G01X41096Y17481D01*
G01X41043Y17478D01*
G01X40992Y17473D01*
G01X40940Y17465D01*
G01X40889Y17455D01*
G01X40839Y17444D01*
G01X40788Y17430D01*
G01X40739Y17414D01*
G01X40690Y17397D01*
G01X40642Y17377D01*
G01X40594Y17355D01*
G01X40548Y17331D01*
G01X40503Y17306D01*
G01X40459Y17278D01*
G01X40415Y17249D01*
G01X40374Y17218D01*
G01X40333Y17185D01*
G01X40294Y17151D01*
G01X40256Y17115D01*
G01X40220Y17078D01*
G01X40186Y17039D01*
G01X40153Y16998D01*
G01X40121Y16957D01*
G01X40092Y16914D01*
G01X40064Y16870D01*
G01X40039Y16825D01*
G01X40014Y16779D01*
G01X39992Y16732D01*
G01X39972Y16684D01*
G01X39965Y16670D01*
G01X39957Y16658D01*
G01X39947Y16647D01*
G01X39934Y16637D01*
G01X39922Y16629D01*
G01X39907Y16624D01*
G01X39893Y16621D01*
G01X39878Y16620D01*
G01X39862Y16621D01*
G01X39848Y16624D01*
G01X39833Y16629D01*
G01X39821Y16637D01*
G01X39808Y16647D01*
G01X39798Y16658D01*
G01X39790Y16670D01*
G01X39783Y16684D01*
G01X39763Y16732D01*
G01X39741Y16779D01*
G01X39716Y16825D01*
G01X39691Y16870D01*
G01X39663Y16914D01*
G01X39634Y16957D01*
G01X39602Y16998D01*
G01X39569Y17039D01*
G01X39535Y17078D01*
G01X39499Y17115D01*
G01X39461Y17151D01*
G01X39422Y17185D01*
G01X39381Y17218D01*
G01X39340Y17249D01*
G01X39296Y17278D01*
G01X39252Y17306D01*
G01X39207Y17331D01*
G01X39161Y17355D01*
G01X39113Y17377D01*
G01X39065Y17397D01*
G01X39016Y17414D01*
G01X38967Y17430D01*
G01X38916Y17444D01*
G01X38866Y17455D01*
G01X38815Y17465D01*
G01X38763Y17473D01*
G01X38712Y17478D01*
G01X38659Y17481D01*
G01X38608Y17482D01*
G01X38556Y17481D01*
G01X38503Y17478D01*
G01X38452Y17473D01*
G01X38400Y17465D01*
G01X38349Y17455D01*
G01X38299Y17444D01*
G01X38248Y17430D01*
G01X38199Y17414D01*
G01X38150Y17397D01*
G01X38102Y17377D01*
G01X38054Y17355D01*
G01X38008Y17331D01*
G01X37963Y17306D01*
G01X37919Y17278D01*
G01X37875Y17249D01*
G01X37834Y17218D01*
G01X37793Y17185D01*
G01X37754Y17151D01*
G01X37716Y17115D01*
G01X37680Y17078D01*
G01X37646Y17039D01*
G01X37613Y16998D01*
G01X37581Y16957D01*
G01X37552Y16914D01*
G01X37524Y16870D01*
G01X37499Y16825D01*
G01X37474Y16779D01*
G01X37452Y16732D01*
G01X37432Y16684D01*
G01X37425Y16670D01*
G01X37417Y16658D01*
G01X37407Y16647D01*
G01X37394Y16637D01*
G01X37382Y16629D01*
G01X37367Y16624D01*
G01X37353Y16621D01*
G01X37338Y16620D01*
G01X37322Y16621D01*
G01X37308Y16624D01*
G01X37293Y16629D01*
G01X37281Y16637D01*
G01X37268Y16647D01*
G01X37258Y16658D01*
G01X37250Y16670D01*
G01X37243Y16684D01*
G01X37223Y16732D01*
G01X37201Y16779D01*
G01X37176Y16825D01*
G01X37151Y16870D01*
G01X37123Y16914D01*
G01X37094Y16957D01*
G01X37062Y16998D01*
G01X37029Y17039D01*
G01X36995Y17078D01*
G01X36959Y17115D01*
G01X36921Y17151D01*
G01X36882Y17185D01*
G01X36841Y17218D01*
G01X36800Y17249D01*
G01X36756Y17278D01*
G01X36712Y17306D01*
G01X36667Y17331D01*
G01X36621Y17355D01*
G01X36573Y17377D01*
G01X36525Y17397D01*
G01X36476Y17414D01*
G01X36427Y17430D01*
G01X36376Y17444D01*
G01X36326Y17455D01*
G01X36275Y17465D01*
G01X36223Y17473D01*
G01X36172Y17478D01*
G01X36119Y17481D01*
G37*
G36*
G01X73406Y48335D02*
G01X63246Y48335D01*
G01X63199Y48334D01*
G01X63153Y48331D01*
G01X63107Y48326D01*
G01X63061Y48318D01*
G01X63016Y48308D01*
G01X62971Y48297D01*
G01X62927Y48283D01*
G01X62883Y48267D01*
G01X62841Y48250D01*
G01X62798Y48230D01*
G01X62758Y48208D01*
G01X62718Y48185D01*
G01X62679Y48160D01*
G01X62641Y48133D01*
G01X62605Y48104D01*
G01X62570Y48074D01*
G01X62536Y48042D01*
G01X61901Y47407D01*
G01X61869Y47373D01*
G01X61839Y47338D01*
G01X61810Y47302D01*
G01X61783Y47264D01*
G01X61758Y47225D01*
G01X61735Y47185D01*
G01X61713Y47145D01*
G01X61693Y47102D01*
G01X61676Y47060D01*
G01X61660Y47016D01*
G01X61646Y46972D01*
G01X61635Y46927D01*
G01X61625Y46882D01*
G01X61617Y46836D01*
G01X61612Y46790D01*
G01X61609Y46744D01*
G01X61608Y46698D01*
G01X61608Y45975D01*
G01X61607Y45960D01*
G01X61604Y45946D01*
G01X61599Y45933D01*
G01X61592Y45920D01*
G01X61583Y45909D01*
G01X61573Y45898D01*
G01X61561Y45889D01*
G01X61548Y45883D01*
G01X61535Y45878D01*
G01X61521Y45875D01*
G01X61506Y45874D01*
G01X61490Y45875D01*
G01X61475Y45878D01*
G01X61460Y45884D01*
G01X61447Y45892D01*
G01X61435Y45902D01*
G01X61424Y45915D01*
G01X61403Y45941D01*
G01X61381Y45965D01*
G01X61357Y45989D01*
G01X61331Y46011D01*
G01X61304Y46030D01*
G01X61276Y46048D01*
G01X61247Y46065D01*
G01X61217Y46078D01*
G01X61185Y46090D01*
G01X61153Y46101D01*
G01X61121Y46108D01*
G01X61088Y46114D01*
G01X61054Y46117D01*
G01X61020Y46118D01*
G01X60609Y46118D01*
G01X60609Y45204D01*
G01X61119Y45204D01*
G01X61133Y45203D01*
G01X61147Y45200D01*
G01X61161Y45195D01*
G01X61174Y45188D01*
G01X61186Y45179D01*
G01X61196Y45169D01*
G01X61204Y45157D01*
G01X61211Y45145D01*
G01X61217Y45131D01*
G01X61220Y45117D01*
G01X61221Y45102D01*
G01X61220Y45088D01*
G01X61217Y45074D01*
G01X61201Y45017D01*
G01X61188Y44959D01*
G01X61177Y44901D01*
G01X61169Y44842D01*
G01X61163Y44784D01*
G01X61159Y44724D01*
G01X61158Y44666D01*
G01X61159Y44607D01*
G01X61163Y44547D01*
G01X61169Y44489D01*
G01X61177Y44430D01*
G01X61188Y44372D01*
G01X61201Y44314D01*
G01X61217Y44257D01*
G01X61220Y44243D01*
G01X61221Y44229D01*
G01X61220Y44214D01*
G01X61217Y44200D01*
G01X61211Y44186D01*
G01X61204Y44174D01*
G01X61196Y44162D01*
G01X61186Y44152D01*
G01X61174Y44143D01*
G01X61161Y44136D01*
G01X61147Y44131D01*
G01X61133Y44128D01*
G01X61119Y44127D01*
G01X60609Y44127D01*
G01X60609Y43213D01*
G01X61020Y43213D01*
G01X61054Y43214D01*
G01X61088Y43217D01*
G01X61121Y43223D01*
G01X61153Y43231D01*
G01X61186Y43241D01*
G01X61217Y43253D01*
G01X61247Y43267D01*
G01X61276Y43283D01*
G01X61305Y43301D01*
G01X61332Y43321D01*
G01X61358Y43343D01*
G01X61382Y43366D01*
G01X61405Y43391D01*
G01X61425Y43417D01*
G01X61444Y43445D01*
G01X61461Y43474D01*
G01X61477Y43504D01*
G01X61489Y43535D01*
G01X61496Y43548D01*
G01X61505Y43561D01*
G01X61515Y43572D01*
G01X61527Y43582D01*
G01X61540Y43590D01*
G01X61554Y43595D01*
G01X61569Y43599D01*
G01X61584Y43600D01*
G01X61599Y43599D01*
G01X61613Y43596D01*
G01X61627Y43591D01*
G01X61640Y43583D01*
G01X61651Y43574D01*
G01X61694Y43539D01*
G01X61737Y43505D01*
G01X61781Y43473D01*
G01X61828Y43442D01*
G01X61874Y43413D01*
G01X61923Y43386D01*
G01X61971Y43361D01*
G01X62022Y43338D01*
G01X62073Y43316D01*
G01X62124Y43297D01*
G01X62176Y43279D01*
G01X62229Y43264D01*
G01X62282Y43250D01*
G01X62337Y43239D01*
G01X62391Y43229D01*
G01X62445Y43222D01*
G01X62500Y43217D01*
G01X62555Y43214D01*
G01X62611Y43213D01*
G01X62666Y43214D01*
G01X62722Y43217D01*
G01X62777Y43222D01*
G01X62832Y43230D01*
G01X62887Y43240D01*
G01X62941Y43251D01*
G01X62995Y43264D01*
G01X63048Y43280D01*
G01X63101Y43298D01*
G01X63153Y43318D01*
G01X63204Y43340D01*
G01X63254Y43363D01*
G01X63303Y43389D01*
G01X63352Y43416D01*
G01X63399Y43445D01*
G01X63445Y43477D01*
G01X63490Y43509D01*
G01X63534Y43544D01*
G01X63576Y43580D01*
G01X63617Y43617D01*
G01X63656Y43657D01*
G01X63694Y43698D01*
G01X63730Y43740D01*
G01X63765Y43783D01*
G01X63798Y43828D01*
G01X63808Y43841D01*
G01X63820Y43851D01*
G01X63834Y43860D01*
G01X63848Y43866D01*
G01X63864Y43870D01*
G01X63881Y43871D01*
G01X63897Y43870D01*
G01X63913Y43866D01*
G01X63927Y43860D01*
G01X63941Y43851D01*
G01X63953Y43841D01*
G01X63963Y43828D01*
G01X63996Y43783D01*
G01X64031Y43740D01*
G01X64067Y43698D01*
G01X64105Y43657D01*
G01X64144Y43617D01*
G01X64185Y43580D01*
G01X64227Y43544D01*
G01X64271Y43509D01*
G01X64316Y43477D01*
G01X64362Y43445D01*
G01X64409Y43416D01*
G01X64458Y43389D01*
G01X64507Y43363D01*
G01X64557Y43340D01*
G01X64608Y43318D01*
G01X64660Y43298D01*
G01X64713Y43280D01*
G01X64766Y43264D01*
G01X64820Y43251D01*
G01X64874Y43240D01*
G01X64929Y43230D01*
G01X64984Y43222D01*
G01X65039Y43217D01*
G01X65095Y43214D01*
G01X65151Y43213D01*
G01X65207Y43214D01*
G01X65264Y43217D01*
G01X65320Y43223D01*
G01X65377Y43230D01*
G01X65432Y43241D01*
G01X65488Y43252D01*
G01X65543Y43266D01*
G01X65597Y43283D01*
G01X65650Y43302D01*
G01X65703Y43322D01*
G01X65755Y43345D01*
G01X65806Y43369D01*
G01X65857Y43396D01*
G01X65905Y43424D01*
G01X65953Y43455D01*
G01X66000Y43487D01*
G01X66045Y43521D01*
G01X66089Y43557D01*
G01X66132Y43594D01*
G01X66173Y43633D01*
G01X66185Y43644D01*
G01X66199Y43652D01*
G01X66213Y43658D01*
G01X66228Y43662D01*
G01X66244Y43663D01*
G01X72694Y43663D01*
G01X72710Y43662D01*
G01X72725Y43658D01*
G01X72740Y43652D01*
G01X72754Y43643D01*
G01X72766Y43633D01*
G01X77707Y38692D01*
G01X77717Y38680D01*
G01X77726Y38666D01*
G01X77732Y38651D01*
G01X77736Y38636D01*
G01X77737Y38620D01*
G01X77737Y34963D01*
G01X77736Y34947D01*
G01X77732Y34932D01*
G01X77726Y34917D01*
G01X77717Y34903D01*
G01X77707Y34891D01*
G01X75687Y32871D01*
G01X75675Y32861D01*
G01X75661Y32852D01*
G01X75646Y32846D01*
G01X75631Y32842D01*
G01X75615Y32841D01*
G01X63957Y32841D01*
G01X63941Y32842D01*
G01X63926Y32846D01*
G01X63911Y32852D01*
G01X63897Y32861D01*
G01X63885Y32871D01*
G01X62500Y34256D01*
G01X62490Y34268D01*
G01X62481Y34282D01*
G01X62475Y34297D01*
G01X62471Y34312D01*
G01X62470Y34328D01*
G01X62470Y38273D01*
G01X62471Y38289D01*
G01X62475Y38304D01*
G01X62481Y38319D01*
G01X62490Y38333D01*
G01X62520Y38376D01*
G01X62549Y38421D01*
G01X62575Y38467D01*
G01X62600Y38514D01*
G01X62623Y38562D01*
G01X62643Y38611D01*
G01X62650Y38625D01*
G01X62658Y38637D01*
G01X62668Y38648D01*
G01X62681Y38658D01*
G01X62693Y38666D01*
G01X62708Y38671D01*
G01X62722Y38674D01*
G01X62738Y38675D01*
G01X62753Y38674D01*
G01X62767Y38671D01*
G01X62782Y38666D01*
G01X62794Y38658D01*
G01X62807Y38648D01*
G01X62817Y38637D01*
G01X62825Y38625D01*
G01X62832Y38611D01*
G01X62852Y38563D01*
G01X62874Y38516D01*
G01X62899Y38470D01*
G01X62924Y38425D01*
G01X62952Y38381D01*
G01X62981Y38338D01*
G01X63013Y38297D01*
G01X63046Y38256D01*
G01X63080Y38217D01*
G01X63116Y38180D01*
G01X63154Y38144D01*
G01X63193Y38110D01*
G01X63234Y38077D01*
G01X63275Y38046D01*
G01X63319Y38017D01*
G01X63363Y37989D01*
G01X63408Y37964D01*
G01X63454Y37940D01*
G01X63502Y37918D01*
G01X63550Y37898D01*
G01X63599Y37881D01*
G01X63648Y37865D01*
G01X63699Y37851D01*
G01X63749Y37840D01*
G01X63800Y37830D01*
G01X63852Y37822D01*
G01X63903Y37817D01*
G01X63956Y37814D01*
G01X64008Y37813D01*
G01X64059Y37814D01*
G01X64112Y37817D01*
G01X64163Y37822D01*
G01X64215Y37830D01*
G01X64266Y37840D01*
G01X64316Y37851D01*
G01X64367Y37865D01*
G01X64416Y37881D01*
G01X64465Y37898D01*
G01X64513Y37918D01*
G01X64561Y37940D01*
G01X64607Y37964D01*
G01X64652Y37989D01*
G01X64696Y38017D01*
G01X64740Y38046D01*
G01X64781Y38077D01*
G01X64822Y38110D01*
G01X64861Y38144D01*
G01X64899Y38180D01*
G01X64935Y38217D01*
G01X64969Y38256D01*
G01X65002Y38297D01*
G01X65034Y38338D01*
G01X65063Y38381D01*
G01X65091Y38425D01*
G01X65116Y38470D01*
G01X65141Y38516D01*
G01X65163Y38563D01*
G01X65183Y38611D01*
G01X65190Y38625D01*
G01X65198Y38637D01*
G01X65208Y38648D01*
G01X65221Y38658D01*
G01X65233Y38666D01*
G01X65248Y38671D01*
G01X65262Y38674D01*
G01X65278Y38675D01*
G01X65293Y38674D01*
G01X65307Y38671D01*
G01X65322Y38666D01*
G01X65334Y38658D01*
G01X65347Y38648D01*
G01X65357Y38637D01*
G01X65365Y38625D01*
G01X65372Y38611D01*
G01X65392Y38563D01*
G01X65414Y38516D01*
G01X65439Y38470D01*
G01X65464Y38425D01*
G01X65492Y38381D01*
G01X65521Y38338D01*
G01X65553Y38297D01*
G01X65586Y38256D01*
G01X65620Y38217D01*
G01X65656Y38180D01*
G01X65694Y38144D01*
G01X65733Y38110D01*
G01X65774Y38077D01*
G01X65815Y38046D01*
G01X65859Y38017D01*
G01X65903Y37989D01*
G01X65948Y37964D01*
G01X65994Y37940D01*
G01X66042Y37918D01*
G01X66090Y37898D01*
G01X66139Y37881D01*
G01X66188Y37865D01*
G01X66239Y37851D01*
G01X66289Y37840D01*
G01X66340Y37830D01*
G01X66392Y37822D01*
G01X66443Y37817D01*
G01X66496Y37814D01*
G01X66548Y37813D01*
G01X66599Y37814D01*
G01X66652Y37817D01*
G01X66703Y37822D01*
G01X66755Y37830D01*
G01X66806Y37840D01*
G01X66856Y37851D01*
G01X66907Y37865D01*
G01X66956Y37881D01*
G01X67005Y37898D01*
G01X67053Y37918D01*
G01X67101Y37940D01*
G01X67147Y37964D01*
G01X67192Y37989D01*
G01X67236Y38017D01*
G01X67280Y38046D01*
G01X67321Y38077D01*
G01X67362Y38110D01*
G01X67401Y38144D01*
G01X67439Y38180D01*
G01X67475Y38217D01*
G01X67509Y38256D01*
G01X67542Y38297D01*
G01X67574Y38338D01*
G01X67603Y38381D01*
G01X67631Y38425D01*
G01X67656Y38470D01*
G01X67681Y38516D01*
G01X67703Y38563D01*
G01X67723Y38611D01*
G01X67730Y38625D01*
G01X67739Y38638D01*
G01X67749Y38649D01*
G01X67762Y38659D01*
G01X67776Y38667D01*
G01X67790Y38672D01*
G01X67781Y38686D01*
G01X67774Y38701D01*
G01X67770Y38718D01*
G01X67768Y38735D01*
G01X67772Y38760D01*
G01X67784Y38812D01*
G01X67794Y38865D01*
G01X67802Y38917D01*
G01X67808Y38971D01*
G01X67811Y39024D01*
G01X67812Y39078D01*
G01X67811Y39131D01*
G01X67808Y39184D01*
G01X67802Y39238D01*
G01X67794Y39290D01*
G01X67784Y39343D01*
G01X67772Y39395D01*
G01X67768Y39420D01*
G01X67770Y39437D01*
G01X67774Y39454D01*
G01X67781Y39469D01*
G01X67790Y39483D01*
G01X67776Y39488D01*
G01X67762Y39496D01*
G01X67749Y39506D01*
G01X67739Y39517D01*
G01X67730Y39530D01*
G01X67723Y39544D01*
G01X67703Y39592D01*
G01X67681Y39639D01*
G01X67656Y39685D01*
G01X67631Y39730D01*
G01X67603Y39774D01*
G01X67574Y39817D01*
G01X67542Y39858D01*
G01X67509Y39899D01*
G01X67475Y39938D01*
G01X67439Y39975D01*
G01X67401Y40011D01*
G01X67362Y40045D01*
G01X67321Y40078D01*
G01X67280Y40109D01*
G01X67236Y40138D01*
G01X67192Y40166D01*
G01X67147Y40191D01*
G01X67101Y40215D01*
G01X67053Y40237D01*
G01X67005Y40257D01*
G01X66956Y40274D01*
G01X66907Y40290D01*
G01X66856Y40304D01*
G01X66806Y40315D01*
G01X66755Y40325D01*
G01X66703Y40333D01*
G01X66652Y40338D01*
G01X66599Y40341D01*
G01X66548Y40342D01*
G01X66496Y40341D01*
G01X66443Y40338D01*
G01X66392Y40333D01*
G01X66340Y40325D01*
G01X66289Y40315D01*
G01X66239Y40304D01*
G01X66188Y40290D01*
G01X66139Y40274D01*
G01X66090Y40257D01*
G01X66042Y40237D01*
G01X65994Y40215D01*
G01X65948Y40191D01*
G01X65903Y40166D01*
G01X65859Y40138D01*
G01X65815Y40109D01*
G01X65774Y40078D01*
G01X65733Y40045D01*
G01X65694Y40011D01*
G01X65656Y39975D01*
G01X65620Y39938D01*
G01X65586Y39899D01*
G01X65553Y39858D01*
G01X65521Y39817D01*
G01X65492Y39774D01*
G01X65464Y39730D01*
G01X65439Y39685D01*
G01X65414Y39639D01*
G01X65392Y39592D01*
G01X65372Y39544D01*
G01X65365Y39530D01*
G01X65357Y39518D01*
G01X65347Y39507D01*
G01X65334Y39497D01*
G01X65322Y39489D01*
G01X65307Y39484D01*
G01X65293Y39481D01*
G01X65278Y39480D01*
G01X65262Y39481D01*
G01X65248Y39484D01*
G01X65233Y39489D01*
G01X65221Y39497D01*
G01X65208Y39507D01*
G01X65198Y39518D01*
G01X65190Y39530D01*
G01X65183Y39544D01*
G01X65163Y39592D01*
G01X65141Y39639D01*
G01X65116Y39685D01*
G01X65091Y39730D01*
G01X65063Y39774D01*
G01X65034Y39817D01*
G01X65002Y39858D01*
G01X64969Y39899D01*
G01X64935Y39938D01*
G01X64899Y39975D01*
G01X64861Y40011D01*
G01X64822Y40045D01*
G01X64781Y40078D01*
G01X64740Y40109D01*
G01X64696Y40138D01*
G01X64652Y40166D01*
G01X64607Y40191D01*
G01X64561Y40215D01*
G01X64513Y40237D01*
G01X64465Y40257D01*
G01X64416Y40274D01*
G01X64367Y40290D01*
G01X64316Y40304D01*
G01X64266Y40315D01*
G01X64215Y40325D01*
G01X64163Y40333D01*
G01X64112Y40338D01*
G01X64059Y40341D01*
G01X64008Y40342D01*
G01X63956Y40341D01*
G01X63903Y40338D01*
G01X63852Y40333D01*
G01X63800Y40325D01*
G01X63749Y40315D01*
G01X63699Y40304D01*
G01X63648Y40290D01*
G01X63599Y40274D01*
G01X63550Y40257D01*
G01X63502Y40237D01*
G01X63454Y40215D01*
G01X63408Y40191D01*
G01X63363Y40166D01*
G01X63319Y40138D01*
G01X63275Y40109D01*
G01X63234Y40078D01*
G01X63193Y40045D01*
G01X63154Y40011D01*
G01X63116Y39975D01*
G01X63080Y39938D01*
G01X63046Y39899D01*
G01X63013Y39858D01*
G01X62981Y39817D01*
G01X62952Y39774D01*
G01X62924Y39730D01*
G01X62899Y39685D01*
G01X62874Y39639D01*
G01X62852Y39592D01*
G01X62832Y39544D01*
G01X62825Y39530D01*
G01X62817Y39518D01*
G01X62807Y39507D01*
G01X62794Y39497D01*
G01X62782Y39489D01*
G01X62767Y39484D01*
G01X62753Y39481D01*
G01X62738Y39480D01*
G01X62722Y39481D01*
G01X62708Y39484D01*
G01X62693Y39489D01*
G01X62681Y39497D01*
G01X62668Y39507D01*
G01X62658Y39518D01*
G01X62650Y39530D01*
G01X62643Y39544D01*
G01X62623Y39592D01*
G01X62601Y39639D01*
G01X62576Y39685D01*
G01X62551Y39730D01*
G01X62523Y39774D01*
G01X62494Y39817D01*
G01X62462Y39858D01*
G01X62429Y39899D01*
G01X62395Y39938D01*
G01X62359Y39975D01*
G01X62321Y40011D01*
G01X62282Y40045D01*
G01X62241Y40078D01*
G01X62200Y40109D01*
G01X62156Y40138D01*
G01X62112Y40166D01*
G01X62067Y40191D01*
G01X62021Y40215D01*
G01X61973Y40237D01*
G01X61925Y40257D01*
G01X61876Y40274D01*
G01X61827Y40290D01*
G01X61776Y40304D01*
G01X61726Y40315D01*
G01X61675Y40325D01*
G01X61623Y40333D01*
G01X61572Y40338D01*
G01X61519Y40341D01*
G01X61468Y40342D01*
G01X61416Y40341D01*
G01X61363Y40338D01*
G01X61312Y40333D01*
G01X61260Y40325D01*
G01X61209Y40315D01*
G01X61159Y40304D01*
G01X61108Y40290D01*
G01X61059Y40274D01*
G01X61010Y40257D01*
G01X60962Y40237D01*
G01X60914Y40215D01*
G01X60868Y40191D01*
G01X60823Y40166D01*
G01X60779Y40138D01*
G01X60735Y40109D01*
G01X60694Y40078D01*
G01X60653Y40045D01*
G01X60614Y40011D01*
G01X60576Y39975D01*
G01X60540Y39938D01*
G01X60506Y39899D01*
G01X60473Y39858D01*
G01X60441Y39817D01*
G01X60412Y39774D01*
G01X60384Y39730D01*
G01X60359Y39685D01*
G01X60334Y39639D01*
G01X60312Y39592D01*
G01X60292Y39544D01*
G01X60285Y39530D01*
G01X60277Y39518D01*
G01X60267Y39507D01*
G01X60254Y39497D01*
G01X60242Y39489D01*
G01X60227Y39484D01*
G01X60213Y39481D01*
G01X60198Y39480D01*
G01X60182Y39481D01*
G01X60168Y39484D01*
G01X60153Y39489D01*
G01X60141Y39497D01*
G01X60128Y39507D01*
G01X60118Y39518D01*
G01X60110Y39530D01*
G01X60103Y39544D01*
G01X60083Y39592D01*
G01X60061Y39639D01*
G01X60036Y39685D01*
G01X60011Y39730D01*
G01X59983Y39774D01*
G01X59954Y39817D01*
G01X59922Y39858D01*
G01X59889Y39899D01*
G01X59855Y39938D01*
G01X59819Y39975D01*
G01X59781Y40011D01*
G01X59742Y40045D01*
G01X59701Y40078D01*
G01X59660Y40109D01*
G01X59616Y40138D01*
G01X59572Y40166D01*
G01X59527Y40191D01*
G01X59481Y40215D01*
G01X59433Y40237D01*
G01X59385Y40257D01*
G01X59336Y40274D01*
G01X59287Y40290D01*
G01X59236Y40304D01*
G01X59186Y40315D01*
G01X59135Y40325D01*
G01X59083Y40333D01*
G01X59032Y40338D01*
G01X58979Y40341D01*
G01X58928Y40342D01*
G01X58876Y40341D01*
G01X58823Y40338D01*
G01X58772Y40333D01*
G01X58720Y40325D01*
G01X58669Y40315D01*
G01X58619Y40304D01*
G01X58568Y40290D01*
G01X58519Y40274D01*
G01X58470Y40257D01*
G01X58422Y40237D01*
G01X58374Y40215D01*
G01X58328Y40191D01*
G01X58283Y40166D01*
G01X58239Y40138D01*
G01X58195Y40109D01*
G01X58154Y40078D01*
G01X58113Y40045D01*
G01X58074Y40011D01*
G01X58036Y39975D01*
G01X58000Y39938D01*
G01X57966Y39899D01*
G01X57933Y39858D01*
G01X57901Y39817D01*
G01X57872Y39774D01*
G01X57844Y39730D01*
G01X57819Y39685D01*
G01X57794Y39639D01*
G01X57772Y39592D01*
G01X57752Y39544D01*
G01X57745Y39530D01*
G01X57737Y39518D01*
G01X57727Y39507D01*
G01X57714Y39497D01*
G01X57702Y39489D01*
G01X57687Y39484D01*
G01X57673Y39481D01*
G01X57658Y39480D01*
G01X57642Y39481D01*
G01X57628Y39484D01*
G01X57613Y39489D01*
G01X57601Y39497D01*
G01X57588Y39507D01*
G01X57578Y39518D01*
G01X57570Y39530D01*
G01X57563Y39544D01*
G01X57543Y39593D01*
G01X57520Y39641D01*
G01X57495Y39688D01*
G01X57469Y39734D01*
G01X57440Y39779D01*
G01X57410Y39822D01*
G01X57401Y39836D01*
G01X57395Y39851D01*
G01X57391Y39866D01*
G01X57390Y39882D01*
G01X57390Y41999D01*
G01X57389Y42045D01*
G01X57386Y42091D01*
G01X57381Y42137D01*
G01X57373Y42183D01*
G01X57363Y42228D01*
G01X57352Y42273D01*
G01X57338Y42317D01*
G01X57322Y42361D01*
G01X57305Y42403D01*
G01X57285Y42446D01*
G01X57263Y42486D01*
G01X57240Y42526D01*
G01X57215Y42565D01*
G01X57188Y42603D01*
G01X57159Y42639D01*
G01X57129Y42674D01*
G01X57097Y42708D01*
G01X53922Y45883D01*
G01X53888Y45915D01*
G01X53853Y45945D01*
G01X53817Y45974D01*
G01X53779Y46001D01*
G01X53740Y46026D01*
G01X53700Y46049D01*
G01X53660Y46071D01*
G01X53617Y46091D01*
G01X53575Y46108D01*
G01X53531Y46124D01*
G01X53487Y46138D01*
G01X53442Y46149D01*
G01X53397Y46159D01*
G01X53351Y46167D01*
G01X53305Y46172D01*
G01X53259Y46175D01*
G01X53213Y46176D01*
G01X51773Y46176D01*
G01X51757Y46177D01*
G01X51741Y46181D01*
G01X51726Y46188D01*
G01X51712Y46197D01*
G01X51669Y46229D01*
G01X51626Y46258D01*
G01X51580Y46286D01*
G01X51535Y46311D01*
G01X51487Y46335D01*
G01X51440Y46357D01*
G01X51391Y46377D01*
G01X51341Y46395D01*
G01X51291Y46411D01*
G01X51240Y46425D01*
G01X51189Y46437D01*
G01X51137Y46447D01*
G01X51084Y46454D01*
G01X51032Y46459D01*
G01X50979Y46462D01*
G01X50927Y46463D01*
G01X50874Y46462D01*
G01X50821Y46459D01*
G01X50768Y46454D01*
G01X50716Y46446D01*
G01X50663Y46436D01*
G01X50612Y46425D01*
G01X50510Y46395D01*
G01X50461Y46376D01*
G01X50411Y46356D01*
G01X50364Y46334D01*
G01X50316Y46310D01*
G01X50270Y46284D01*
G01X50225Y46256D01*
G01X50181Y46227D01*
G01X50139Y46195D01*
G01X50097Y46162D01*
G01X50058Y46127D01*
G01X50019Y46090D01*
G01X49982Y46052D01*
G01X49947Y46013D01*
G01X49914Y45972D01*
G01X49882Y45930D01*
G01X49851Y45886D01*
G01X49823Y45842D01*
G01X49796Y45796D01*
G01X49772Y45749D01*
G01X49749Y45701D01*
G01X49742Y45688D01*
G01X49734Y45676D01*
G01X49724Y45666D01*
G01X49712Y45657D01*
G01X49699Y45651D01*
G01X49685Y45645D01*
G01X49671Y45642D01*
G01X49657Y45641D01*
G01X49642Y45642D01*
G01X49628Y45645D01*
G01X49614Y45651D01*
G01X49601Y45657D01*
G01X49589Y45666D01*
G01X49579Y45676D01*
G01X49571Y45688D01*
G01X49564Y45701D01*
G01X49541Y45749D01*
G01X49517Y45796D01*
G01X49490Y45842D01*
G01X49462Y45886D01*
G01X49431Y45930D01*
G01X49399Y45972D01*
G01X49366Y46013D01*
G01X49331Y46052D01*
G01X49294Y46090D01*
G01X49255Y46127D01*
G01X49216Y46162D01*
G01X49174Y46195D01*
G01X49132Y46227D01*
G01X49088Y46256D01*
G01X49043Y46284D01*
G01X48997Y46310D01*
G01X48949Y46334D01*
G01X48902Y46356D01*
G01X48852Y46376D01*
G01X48803Y46395D01*
G01X48701Y46425D01*
G01X48650Y46436D01*
G01X48597Y46446D01*
G01X48545Y46454D01*
G01X48492Y46459D01*
G01X48439Y46462D01*
G01X48387Y46463D01*
G01X48334Y46462D01*
G01X48281Y46459D01*
G01X48228Y46454D01*
G01X48176Y46446D01*
G01X48123Y46436D01*
G01X48072Y46425D01*
G01X47970Y46395D01*
G01X47921Y46376D01*
G01X47871Y46356D01*
G01X47824Y46334D01*
G01X47776Y46310D01*
G01X47730Y46284D01*
G01X47685Y46256D01*
G01X47641Y46227D01*
G01X47599Y46195D01*
G01X47557Y46162D01*
G01X47518Y46127D01*
G01X47479Y46090D01*
G01X47442Y46052D01*
G01X47407Y46013D01*
G01X47374Y45972D01*
G01X47342Y45930D01*
G01X47311Y45886D01*
G01X47283Y45842D01*
G01X47256Y45796D01*
G01X47232Y45749D01*
G01X47209Y45701D01*
G01X47202Y45688D01*
G01X47194Y45676D01*
G01X47184Y45666D01*
G01X47172Y45657D01*
G01X47159Y45651D01*
G01X47145Y45645D01*
G01X47131Y45642D01*
G01X47117Y45641D01*
G01X47102Y45642D01*
G01X47088Y45645D01*
G01X47074Y45651D01*
G01X47061Y45657D01*
G01X47049Y45666D01*
G01X47039Y45676D01*
G01X47031Y45688D01*
G01X47024Y45701D01*
G01X47001Y45749D01*
G01X46977Y45796D01*
G01X46950Y45842D01*
G01X46922Y45886D01*
G01X46891Y45930D01*
G01X46859Y45972D01*
G01X46826Y46013D01*
G01X46791Y46052D01*
G01X46754Y46090D01*
G01X46715Y46127D01*
G01X46676Y46162D01*
G01X46634Y46195D01*
G01X46592Y46227D01*
G01X46548Y46256D01*
G01X46503Y46284D01*
G01X46457Y46310D01*
G01X46409Y46334D01*
G01X46362Y46356D01*
G01X46312Y46376D01*
G01X46263Y46395D01*
G01X46161Y46425D01*
G01X46110Y46436D01*
G01X46057Y46446D01*
G01X46005Y46454D01*
G01X45952Y46459D01*
G01X45899Y46462D01*
G01X45847Y46463D01*
G01X45794Y46462D01*
G01X45741Y46459D01*
G01X45688Y46454D01*
G01X45636Y46446D01*
G01X45583Y46436D01*
G01X45532Y46425D01*
G01X45430Y46395D01*
G01X45381Y46376D01*
G01X45331Y46356D01*
G01X45284Y46334D01*
G01X45236Y46310D01*
G01X45190Y46284D01*
G01X45145Y46256D01*
G01X45101Y46227D01*
G01X45059Y46195D01*
G01X45017Y46162D01*
G01X44978Y46127D01*
G01X44939Y46090D01*
G01X44902Y46052D01*
G01X44867Y46013D01*
G01X44834Y45972D01*
G01X44802Y45930D01*
G01X44771Y45886D01*
G01X44743Y45842D01*
G01X44716Y45796D01*
G01X44692Y45749D01*
G01X44669Y45701D01*
G01X44662Y45688D01*
G01X44654Y45676D01*
G01X44644Y45666D01*
G01X44632Y45657D01*
G01X44619Y45651D01*
G01X44605Y45645D01*
G01X44591Y45642D01*
G01X44577Y45641D01*
G01X44562Y45642D01*
G01X44548Y45645D01*
G01X44534Y45651D01*
G01X44521Y45657D01*
G01X44509Y45666D01*
G01X44499Y45676D01*
G01X44491Y45688D01*
G01X44484Y45701D01*
G01X44461Y45749D01*
G01X44437Y45796D01*
G01X44410Y45842D01*
G01X44382Y45886D01*
G01X44351Y45930D01*
G01X44319Y45972D01*
G01X44286Y46013D01*
G01X44251Y46052D01*
G01X44214Y46090D01*
G01X44175Y46127D01*
G01X44136Y46162D01*
G01X44094Y46195D01*
G01X44052Y46227D01*
G01X44008Y46256D01*
G01X43963Y46284D01*
G01X43917Y46310D01*
G01X43869Y46334D01*
G01X43822Y46356D01*
G01X43772Y46376D01*
G01X43723Y46395D01*
G01X43621Y46425D01*
G01X43570Y46436D01*
G01X43517Y46446D01*
G01X43465Y46454D01*
G01X43412Y46459D01*
G01X43359Y46462D01*
G01X43307Y46463D01*
G01X43254Y46462D01*
G01X43201Y46459D01*
G01X43148Y46454D01*
G01X43096Y46446D01*
G01X43043Y46436D01*
G01X42992Y46425D01*
G01X42890Y46395D01*
G01X42841Y46376D01*
G01X42791Y46356D01*
G01X42744Y46334D01*
G01X42696Y46310D01*
G01X42650Y46284D01*
G01X42605Y46256D01*
G01X42561Y46227D01*
G01X42519Y46195D01*
G01X42477Y46162D01*
G01X42438Y46127D01*
G01X42399Y46090D01*
G01X42362Y46052D01*
G01X42327Y46013D01*
G01X42294Y45972D01*
G01X42262Y45930D01*
G01X42231Y45886D01*
G01X42203Y45842D01*
G01X42176Y45796D01*
G01X42152Y45749D01*
G01X42129Y45701D01*
G01X42122Y45688D01*
G01X42114Y45676D01*
G01X42104Y45666D01*
G01X42092Y45657D01*
G01X42079Y45651D01*
G01X42065Y45645D01*
G01X42051Y45642D01*
G01X42037Y45641D01*
G01X42022Y45642D01*
G01X42008Y45645D01*
G01X41994Y45651D01*
G01X41981Y45657D01*
G01X41969Y45666D01*
G01X41959Y45676D01*
G01X41951Y45688D01*
G01X41944Y45701D01*
G01X41921Y45749D01*
G01X41897Y45796D01*
G01X41870Y45842D01*
G01X41842Y45886D01*
G01X41811Y45930D01*
G01X41779Y45972D01*
G01X41746Y46013D01*
G01X41711Y46052D01*
G01X41674Y46090D01*
G01X41635Y46127D01*
G01X41596Y46162D01*
G01X41554Y46195D01*
G01X41512Y46227D01*
G01X41468Y46256D01*
G01X41423Y46284D01*
G01X41377Y46310D01*
G01X41329Y46334D01*
G01X41282Y46356D01*
G01X41232Y46376D01*
G01X41183Y46395D01*
G01X41081Y46425D01*
G01X41030Y46436D01*
G01X40977Y46446D01*
G01X40925Y46454D01*
G01X40872Y46459D01*
G01X40819Y46462D01*
G01X40767Y46463D01*
G01X40714Y46462D01*
G01X40662Y46459D01*
G01X40611Y46454D01*
G01X40559Y46447D01*
G01X40507Y46437D01*
G01X40457Y46426D01*
G01X40406Y46412D01*
G01X40357Y46397D01*
G01X40307Y46379D01*
G01X40259Y46360D01*
G01X40211Y46338D01*
G01X40119Y46290D01*
G01X40031Y46234D01*
G01X39989Y46203D01*
G01X39948Y46171D01*
G01X39908Y46137D01*
G01X39870Y46101D01*
G01X39833Y46064D01*
G01X39798Y46026D01*
G01X39764Y45986D01*
G01X39732Y45945D01*
G01X39702Y45902D01*
G01X39692Y45889D01*
G01X39679Y45879D01*
G01X39666Y45870D01*
G01X39650Y45863D01*
G01X39635Y45859D01*
G01X39618Y45858D01*
G01X39604Y45859D01*
G01X39589Y45862D01*
G01X39576Y45867D01*
G01X39563Y45874D01*
G01X39552Y45883D01*
G01X39541Y45893D01*
G01X39533Y45905D01*
G01X39526Y45917D01*
G01X39521Y45931D01*
G01X39518Y45945D01*
G01X39517Y45960D01*
G01X39516Y45961D01*
G01X39515Y45994D01*
G01X39512Y46026D01*
G01X39507Y46059D01*
G01X39500Y46091D01*
G01X39490Y46122D01*
G01X39478Y46153D01*
G01X39464Y46183D01*
G01X39449Y46212D01*
G01X39432Y46240D01*
G01X39413Y46267D01*
G01X39392Y46292D01*
G01X39370Y46317D01*
G01X39345Y46339D01*
G01X39320Y46360D01*
G01X39293Y46379D01*
G01X39265Y46396D01*
G01X39236Y46411D01*
G01X39206Y46425D01*
G01X39175Y46437D01*
G01X39144Y46447D01*
G01X39112Y46454D01*
G01X39079Y46459D01*
G01X39047Y46462D01*
G01X39014Y46463D01*
G01X37439Y46463D01*
G01X37406Y46462D01*
G01X37374Y46459D01*
G01X37341Y46454D01*
G01X37309Y46447D01*
G01X37278Y46437D01*
G01X37247Y46425D01*
G01X37217Y46411D01*
G01X37188Y46396D01*
G01X37160Y46379D01*
G01X37133Y46360D01*
G01X37108Y46339D01*
G01X37084Y46317D01*
G01X37061Y46292D01*
G01X37040Y46267D01*
G01X37021Y46240D01*
G01X37004Y46212D01*
G01X36989Y46183D01*
G01X36975Y46153D01*
G01X36963Y46122D01*
G01X36953Y46091D01*
G01X36946Y46059D01*
G01X36941Y46026D01*
G01X36938Y45994D01*
G01X36937Y45961D01*
G01X36937Y44386D01*
G01X36938Y44354D01*
G01X36941Y44322D01*
G01X36945Y44291D01*
G01X36952Y44260D01*
G01X36962Y44229D01*
G01X36973Y44199D01*
G01X36985Y44169D01*
G01X37000Y44141D01*
G01X37017Y44113D01*
G01X37035Y44087D01*
G01X37055Y44062D01*
G01X37076Y44038D01*
G01X37099Y44016D01*
G01X37123Y43995D01*
G01X37149Y43976D01*
G01X37188Y43949D01*
G01X37198Y43939D01*
G01X37207Y43927D01*
G01X37214Y43915D01*
G01X37220Y43901D01*
G01X37223Y43886D01*
G01X37224Y43871D01*
G01X37224Y39946D01*
G01X37223Y39931D01*
G01X37220Y39917D01*
G01X37215Y39904D01*
G01X37208Y39891D01*
G01X37199Y39880D01*
G01X37189Y39869D01*
G01X37177Y39860D01*
G01X37164Y39854D01*
G01X37151Y39849D01*
G01X37137Y39846D01*
G01X37122Y39845D01*
G01X37107Y39846D01*
G01X37093Y39849D01*
G01X37079Y39854D01*
G01X37066Y39861D01*
G01X37054Y39870D01*
G01X37044Y39881D01*
G01X37011Y39920D01*
G01X36976Y39957D01*
G01X36940Y39993D01*
G01X36903Y40027D01*
G01X36864Y40059D01*
G01X36824Y40091D01*
G01X36783Y40120D01*
G01X36741Y40148D01*
G01X36697Y40174D01*
G01X36653Y40199D01*
G01X36608Y40221D01*
G01X36561Y40242D01*
G01X36514Y40261D01*
G01X36466Y40278D01*
G01X36418Y40293D01*
G01X36369Y40306D01*
G01X36319Y40317D01*
G01X36269Y40326D01*
G01X36219Y40333D01*
G01X36169Y40338D01*
G01X36118Y40341D01*
G01X36068Y40342D01*
G01X36017Y40341D01*
G01X35966Y40338D01*
G01X35915Y40333D01*
G01X35865Y40326D01*
G01X35815Y40317D01*
G01X35765Y40305D01*
G01X35715Y40292D01*
G01X35667Y40277D01*
G01X35619Y40260D01*
G01X35572Y40241D01*
G01X35525Y40220D01*
G01X35480Y40197D01*
G01X35435Y40173D01*
G01X35391Y40146D01*
G01X35349Y40118D01*
G01X35308Y40088D01*
G01X35268Y40057D01*
G01X35229Y40024D01*
G01X35191Y39989D01*
G01X35156Y39954D01*
G01X35121Y39916D01*
G01X35088Y39877D01*
G01X35057Y39837D01*
G01X35027Y39796D01*
G01X34999Y39754D01*
G01X34972Y39710D01*
G01X34948Y39665D01*
G01X34925Y39620D01*
G01X34904Y39573D01*
G01X34885Y39526D01*
G01X34868Y39478D01*
G01X34853Y39430D01*
G01X34840Y39380D01*
G01X34828Y39330D01*
G01X34819Y39280D01*
G01X34812Y39230D01*
G01X34807Y39179D01*
G01X34804Y39128D01*
G01X34803Y39078D01*
G01X34804Y39027D01*
G01X34807Y38976D01*
G01X34812Y38925D01*
G01X34819Y38875D01*
G01X34828Y38825D01*
G01X34840Y38775D01*
G01X34853Y38725D01*
G01X34868Y38677D01*
G01X34885Y38629D01*
G01X34904Y38582D01*
G01X34925Y38535D01*
G01X34948Y38490D01*
G01X34972Y38445D01*
G01X34999Y38401D01*
G01X35027Y38359D01*
G01X35057Y38318D01*
G01X35088Y38278D01*
G01X35121Y38239D01*
G01X35156Y38201D01*
G01X35191Y38166D01*
G01X35229Y38131D01*
G01X35268Y38098D01*
G01X35308Y38067D01*
G01X35349Y38037D01*
G01X35391Y38009D01*
G01X35435Y37982D01*
G01X35480Y37958D01*
G01X35525Y37935D01*
G01X35572Y37914D01*
G01X35619Y37895D01*
G01X35667Y37878D01*
G01X35715Y37863D01*
G01X35765Y37850D01*
G01X35815Y37838D01*
G01X35865Y37829D01*
G01X35915Y37822D01*
G01X35966Y37817D01*
G01X36017Y37814D01*
G01X36068Y37813D01*
G01X36120Y37814D01*
G01X36172Y37817D01*
G01X36224Y37823D01*
G01X36276Y37830D01*
G01X36328Y37840D01*
G01X36379Y37852D01*
G01X36429Y37866D01*
G01X36479Y37882D01*
G01X36528Y37900D01*
G01X36577Y37920D01*
G01X36624Y37942D01*
G01X36671Y37966D01*
G01X36717Y37992D01*
G01X36761Y38020D01*
G01X36804Y38050D01*
G01X36846Y38081D01*
G01X36887Y38114D01*
G01X36926Y38149D01*
G01X36964Y38185D01*
G01X37000Y38223D01*
G01X37035Y38263D01*
G01X37068Y38303D01*
G01X37099Y38345D01*
G01X37128Y38389D01*
G01X37156Y38433D01*
G01X37182Y38479D01*
G01X37205Y38526D01*
G01X37214Y38540D01*
G01X37224Y38552D01*
G01X37236Y38563D01*
G01X37250Y38572D01*
G01X37265Y38578D01*
G01X37281Y38582D01*
G01X37297Y38583D01*
G01X37312Y38582D01*
G01X37325Y38579D01*
G01X37339Y38574D01*
G01X37352Y38567D01*
G01X37363Y38558D01*
G01X37374Y38548D01*
G01X37382Y38536D01*
G01X37408Y38499D01*
G01X37435Y38462D01*
G01X37463Y38427D01*
G01X37493Y38394D01*
G01X37525Y38361D01*
G01X37558Y38330D01*
G01X37593Y38301D01*
G01X37628Y38273D01*
G01X37645Y38257D01*
G01X37679Y38218D01*
G01X37715Y38181D01*
G01X37754Y38145D01*
G01X37793Y38110D01*
G01X37833Y38078D01*
G01X37875Y38047D01*
G01X37918Y38017D01*
G01X37962Y37990D01*
G01X38008Y37964D01*
G01X38054Y37941D01*
G01X38101Y37919D01*
G01X38149Y37899D01*
G01X38198Y37881D01*
G01X38248Y37865D01*
G01X38298Y37851D01*
G01X38349Y37840D01*
G01X38400Y37830D01*
G01X38452Y37822D01*
G01X38503Y37817D01*
G01X38555Y37814D01*
G01X38608Y37813D01*
G01X38660Y37814D01*
G01X38712Y37817D01*
G01X38764Y37823D01*
G01X38816Y37830D01*
G01X38868Y37840D01*
G01X38919Y37852D01*
G01X38969Y37866D01*
G01X39019Y37882D01*
G01X39068Y37900D01*
G01X39117Y37920D01*
G01X39164Y37942D01*
G01X39211Y37966D01*
G01X39257Y37992D01*
G01X39301Y38020D01*
G01X39344Y38050D01*
G01X39386Y38081D01*
G01X39427Y38114D01*
G01X39466Y38149D01*
G01X39504Y38185D01*
G01X39540Y38223D01*
G01X39575Y38263D01*
G01X39608Y38303D01*
G01X39639Y38345D01*
G01X39668Y38389D01*
G01X39696Y38433D01*
G01X39722Y38479D01*
G01X39745Y38526D01*
G01X39754Y38540D01*
G01X39764Y38552D01*
G01X39776Y38563D01*
G01X39790Y38572D01*
G01X39805Y38578D01*
G01X39821Y38582D01*
G01X39837Y38583D01*
G01X39852Y38582D01*
G01X39865Y38579D01*
G01X39879Y38574D01*
G01X39892Y38567D01*
G01X39903Y38558D01*
G01X39914Y38548D01*
G01X39922Y38536D01*
G01X39948Y38499D01*
G01X39975Y38462D01*
G01X40003Y38427D01*
G01X40033Y38394D01*
G01X40065Y38361D01*
G01X40098Y38330D01*
G01X40133Y38301D01*
G01X40168Y38273D01*
G01X40185Y38257D01*
G01X40219Y38218D01*
G01X40255Y38181D01*
G01X40294Y38145D01*
G01X40333Y38110D01*
G01X40373Y38078D01*
G01X40415Y38047D01*
G01X40458Y38017D01*
G01X40502Y37990D01*
G01X40548Y37964D01*
G01X40594Y37941D01*
G01X40641Y37919D01*
G01X40689Y37899D01*
G01X40738Y37881D01*
G01X40788Y37865D01*
G01X40838Y37851D01*
G01X40889Y37840D01*
G01X40940Y37830D01*
G01X40992Y37822D01*
G01X41043Y37817D01*
G01X41095Y37814D01*
G01X41148Y37813D01*
G01X41200Y37814D01*
G01X41252Y37817D01*
G01X41304Y37823D01*
G01X41356Y37830D01*
G01X41408Y37840D01*
G01X41459Y37852D01*
G01X41509Y37866D01*
G01X41559Y37882D01*
G01X41608Y37900D01*
G01X41657Y37920D01*
G01X41704Y37942D01*
G01X41751Y37966D01*
G01X41797Y37992D01*
G01X41841Y38020D01*
G01X41884Y38050D01*
G01X41926Y38081D01*
G01X41967Y38114D01*
G01X42006Y38149D01*
G01X42044Y38185D01*
G01X42080Y38223D01*
G01X42115Y38263D01*
G01X42148Y38303D01*
G01X42179Y38345D01*
G01X42208Y38389D01*
G01X42236Y38433D01*
G01X42262Y38479D01*
G01X42285Y38526D01*
G01X42294Y38540D01*
G01X42304Y38552D01*
G01X42316Y38563D01*
G01X42330Y38572D01*
G01X42345Y38578D01*
G01X42361Y38582D01*
G01X42377Y38583D01*
G01X42392Y38582D01*
G01X42405Y38579D01*
G01X42419Y38574D01*
G01X42432Y38567D01*
G01X42443Y38558D01*
G01X42454Y38548D01*
G01X42462Y38536D01*
G01X42488Y38499D01*
G01X42515Y38462D01*
G01X42543Y38427D01*
G01X42573Y38394D01*
G01X42605Y38361D01*
G01X42638Y38330D01*
G01X42673Y38301D01*
G01X42708Y38273D01*
G01X42725Y38257D01*
G01X42759Y38218D01*
G01X42795Y38181D01*
G01X42834Y38145D01*
G01X42873Y38110D01*
G01X42913Y38078D01*
G01X42955Y38047D01*
G01X42998Y38017D01*
G01X43042Y37990D01*
G01X43088Y37964D01*
G01X43134Y37941D01*
G01X43181Y37919D01*
G01X43229Y37899D01*
G01X43278Y37881D01*
G01X43328Y37865D01*
G01X43378Y37851D01*
G01X43429Y37840D01*
G01X43480Y37830D01*
G01X43532Y37822D01*
G01X43583Y37817D01*
G01X43635Y37814D01*
G01X43688Y37813D01*
G01X43740Y37814D01*
G01X43792Y37817D01*
G01X43844Y37823D01*
G01X43896Y37830D01*
G01X43948Y37840D01*
G01X43999Y37852D01*
G01X44049Y37866D01*
G01X44099Y37882D01*
G01X44148Y37900D01*
G01X44197Y37920D01*
G01X44244Y37942D01*
G01X44291Y37966D01*
G01X44337Y37992D01*
G01X44381Y38020D01*
G01X44424Y38050D01*
G01X44466Y38081D01*
G01X44507Y38114D01*
G01X44546Y38149D01*
G01X44584Y38185D01*
G01X44620Y38223D01*
G01X44655Y38263D01*
G01X44688Y38303D01*
G01X44719Y38345D01*
G01X44748Y38389D01*
G01X44776Y38433D01*
G01X44802Y38479D01*
G01X44825Y38526D01*
G01X44834Y38540D01*
G01X44844Y38552D01*
G01X44856Y38563D01*
G01X44870Y38572D01*
G01X44885Y38578D01*
G01X44901Y38582D01*
G01X44917Y38583D01*
G01X44932Y38582D01*
G01X44945Y38579D01*
G01X44959Y38574D01*
G01X44972Y38567D01*
G01X44983Y38558D01*
G01X44994Y38548D01*
G01X45002Y38536D01*
G01X45028Y38499D01*
G01X45055Y38462D01*
G01X45083Y38427D01*
G01X45113Y38394D01*
G01X45145Y38361D01*
G01X45178Y38330D01*
G01X45213Y38301D01*
G01X45248Y38273D01*
G01X45265Y38257D01*
G01X45299Y38218D01*
G01X45335Y38181D01*
G01X45374Y38145D01*
G01X45413Y38110D01*
G01X45453Y38078D01*
G01X45495Y38047D01*
G01X45538Y38017D01*
G01X45582Y37990D01*
G01X45628Y37964D01*
G01X45674Y37941D01*
G01X45721Y37919D01*
G01X45769Y37899D01*
G01X45818Y37881D01*
G01X45868Y37865D01*
G01X45918Y37851D01*
G01X45969Y37840D01*
G01X46020Y37830D01*
G01X46072Y37822D01*
G01X46123Y37817D01*
G01X46175Y37814D01*
G01X46228Y37813D01*
G01X46279Y37814D01*
G01X46332Y37817D01*
G01X46383Y37822D01*
G01X46435Y37830D01*
G01X46486Y37840D01*
G01X46536Y37851D01*
G01X46587Y37865D01*
G01X46636Y37881D01*
G01X46685Y37898D01*
G01X46733Y37918D01*
G01X46781Y37940D01*
G01X46827Y37964D01*
G01X46872Y37989D01*
G01X46916Y38017D01*
G01X46960Y38046D01*
G01X47001Y38077D01*
G01X47042Y38110D01*
G01X47081Y38144D01*
G01X47119Y38180D01*
G01X47155Y38217D01*
G01X47189Y38256D01*
G01X47222Y38297D01*
G01X47254Y38338D01*
G01X47283Y38381D01*
G01X47311Y38425D01*
G01X47336Y38470D01*
G01X47361Y38516D01*
G01X47383Y38563D01*
G01X47403Y38611D01*
G01X47410Y38625D01*
G01X47418Y38637D01*
G01X47428Y38648D01*
G01X47441Y38658D01*
G01X47453Y38666D01*
G01X47468Y38671D01*
G01X47482Y38674D01*
G01X47498Y38675D01*
G01X47513Y38674D01*
G01X47527Y38671D01*
G01X47542Y38666D01*
G01X47554Y38658D01*
G01X47567Y38648D01*
G01X47577Y38637D01*
G01X47585Y38625D01*
G01X47592Y38611D01*
G01X47612Y38563D01*
G01X47634Y38516D01*
G01X47659Y38470D01*
G01X47684Y38425D01*
G01X47712Y38381D01*
G01X47741Y38338D01*
G01X47773Y38297D01*
G01X47806Y38256D01*
G01X47840Y38217D01*
G01X47876Y38180D01*
G01X47914Y38144D01*
G01X47953Y38110D01*
G01X47994Y38077D01*
G01X48035Y38046D01*
G01X48079Y38017D01*
G01X48123Y37989D01*
G01X48168Y37964D01*
G01X48214Y37940D01*
G01X48262Y37918D01*
G01X48310Y37898D01*
G01X48359Y37881D01*
G01X48408Y37865D01*
G01X48459Y37851D01*
G01X48509Y37840D01*
G01X48560Y37830D01*
G01X48612Y37822D01*
G01X48663Y37817D01*
G01X48716Y37814D01*
G01X48768Y37813D01*
G01X48819Y37814D01*
G01X48872Y37817D01*
G01X48923Y37822D01*
G01X48975Y37830D01*
G01X49026Y37840D01*
G01X49076Y37851D01*
G01X49127Y37865D01*
G01X49176Y37881D01*
G01X49225Y37898D01*
G01X49273Y37918D01*
G01X49321Y37940D01*
G01X49367Y37964D01*
G01X49412Y37989D01*
G01X49456Y38017D01*
G01X49500Y38046D01*
G01X49541Y38077D01*
G01X49582Y38110D01*
G01X49621Y38144D01*
G01X49659Y38180D01*
G01X49695Y38217D01*
G01X49729Y38256D01*
G01X49762Y38297D01*
G01X49794Y38338D01*
G01X49823Y38381D01*
G01X49851Y38425D01*
G01X49876Y38470D01*
G01X49901Y38516D01*
G01X49923Y38563D01*
G01X49943Y38611D01*
G01X49950Y38625D01*
G01X49958Y38637D01*
G01X49968Y38648D01*
G01X49981Y38658D01*
G01X49993Y38666D01*
G01X50008Y38671D01*
G01X50022Y38674D01*
G01X50038Y38675D01*
G01X50053Y38674D01*
G01X50067Y38671D01*
G01X50082Y38666D01*
G01X50094Y38658D01*
G01X50107Y38648D01*
G01X50117Y38637D01*
G01X50125Y38625D01*
G01X50132Y38611D01*
G01X50152Y38563D01*
G01X50174Y38516D01*
G01X50199Y38470D01*
G01X50224Y38425D01*
G01X50252Y38381D01*
G01X50281Y38338D01*
G01X50313Y38297D01*
G01X50346Y38256D01*
G01X50380Y38217D01*
G01X50416Y38180D01*
G01X50454Y38144D01*
G01X50493Y38110D01*
G01X50534Y38077D01*
G01X50575Y38046D01*
G01X50619Y38017D01*
G01X50663Y37989D01*
G01X50708Y37964D01*
G01X50754Y37940D01*
G01X50802Y37918D01*
G01X50850Y37898D01*
G01X50899Y37881D01*
G01X50948Y37865D01*
G01X50999Y37851D01*
G01X51049Y37840D01*
G01X51100Y37830D01*
G01X51152Y37822D01*
G01X51203Y37817D01*
G01X51256Y37814D01*
G01X51308Y37813D01*
G01X51359Y37814D01*
G01X51412Y37817D01*
G01X51463Y37822D01*
G01X51515Y37830D01*
G01X51566Y37840D01*
G01X51616Y37851D01*
G01X51667Y37865D01*
G01X51716Y37881D01*
G01X51765Y37898D01*
G01X51813Y37918D01*
G01X51861Y37940D01*
G01X51907Y37964D01*
G01X51952Y37989D01*
G01X51996Y38017D01*
G01X52040Y38046D01*
G01X52081Y38077D01*
G01X52122Y38110D01*
G01X52161Y38144D01*
G01X52199Y38180D01*
G01X52235Y38217D01*
G01X52269Y38256D01*
G01X52302Y38297D01*
G01X52334Y38338D01*
G01X52363Y38381D01*
G01X52391Y38425D01*
G01X52416Y38470D01*
G01X52441Y38516D01*
G01X52463Y38563D01*
G01X52483Y38611D01*
G01X52490Y38625D01*
G01X52498Y38637D01*
G01X52508Y38648D01*
G01X52521Y38658D01*
G01X52533Y38666D01*
G01X52548Y38671D01*
G01X52562Y38674D01*
G01X52578Y38675D01*
G01X52593Y38674D01*
G01X52607Y38671D01*
G01X52622Y38666D01*
G01X52634Y38658D01*
G01X52647Y38648D01*
G01X52657Y38637D01*
G01X52665Y38625D01*
G01X52672Y38611D01*
G01X52692Y38563D01*
G01X52714Y38516D01*
G01X52739Y38470D01*
G01X52764Y38425D01*
G01X52792Y38381D01*
G01X52821Y38338D01*
G01X52853Y38297D01*
G01X52886Y38256D01*
G01X52920Y38217D01*
G01X52956Y38180D01*
G01X52994Y38144D01*
G01X53033Y38110D01*
G01X53074Y38077D01*
G01X53115Y38046D01*
G01X53159Y38017D01*
G01X53203Y37989D01*
G01X53248Y37964D01*
G01X53294Y37940D01*
G01X53342Y37918D01*
G01X53390Y37898D01*
G01X53439Y37881D01*
G01X53488Y37865D01*
G01X53539Y37851D01*
G01X53589Y37840D01*
G01X53640Y37830D01*
G01X53692Y37822D01*
G01X53743Y37817D01*
G01X53796Y37814D01*
G01X53848Y37813D01*
G01X53899Y37814D01*
G01X53952Y37817D01*
G01X54003Y37822D01*
G01X54055Y37830D01*
G01X54106Y37840D01*
G01X54156Y37851D01*
G01X54207Y37865D01*
G01X54256Y37881D01*
G01X54305Y37898D01*
G01X54353Y37918D01*
G01X54401Y37940D01*
G01X54447Y37964D01*
G01X54492Y37989D01*
G01X54536Y38017D01*
G01X54580Y38046D01*
G01X54621Y38077D01*
G01X54662Y38110D01*
G01X54701Y38144D01*
G01X54739Y38180D01*
G01X54775Y38217D01*
G01X54809Y38256D01*
G01X54842Y38297D01*
G01X54874Y38338D01*
G01X54903Y38381D01*
G01X54931Y38425D01*
G01X54956Y38470D01*
G01X54981Y38516D01*
G01X55003Y38563D01*
G01X55023Y38611D01*
G01X55030Y38625D01*
G01X55038Y38637D01*
G01X55048Y38648D01*
G01X55061Y38658D01*
G01X55073Y38666D01*
G01X55088Y38671D01*
G01X55102Y38674D01*
G01X55118Y38675D01*
G01X55133Y38674D01*
G01X55147Y38671D01*
G01X55162Y38666D01*
G01X55174Y38658D01*
G01X55187Y38648D01*
G01X55197Y38637D01*
G01X55205Y38625D01*
G01X55212Y38611D01*
G01X55232Y38563D01*
G01X55254Y38516D01*
G01X55279Y38470D01*
G01X55304Y38425D01*
G01X55332Y38381D01*
G01X55361Y38338D01*
G01X55393Y38297D01*
G01X55426Y38256D01*
G01X55460Y38217D01*
G01X55496Y38180D01*
G01X55534Y38144D01*
G01X55573Y38110D01*
G01X55614Y38077D01*
G01X55655Y38046D01*
G01X55699Y38017D01*
G01X55743Y37989D01*
G01X55788Y37964D01*
G01X55834Y37940D01*
G01X55882Y37918D01*
G01X55930Y37898D01*
G01X55979Y37881D01*
G01X56028Y37865D01*
G01X56079Y37851D01*
G01X56129Y37840D01*
G01X56180Y37830D01*
G01X56232Y37822D01*
G01X56283Y37817D01*
G01X56336Y37814D01*
G01X56388Y37813D01*
G01X56439Y37814D01*
G01X56492Y37817D01*
G01X56543Y37822D01*
G01X56595Y37830D01*
G01X56646Y37840D01*
G01X56696Y37851D01*
G01X56747Y37865D01*
G01X56796Y37881D01*
G01X56845Y37898D01*
G01X56893Y37918D01*
G01X56941Y37940D01*
G01X56987Y37964D01*
G01X57032Y37989D01*
G01X57076Y38017D01*
G01X57120Y38046D01*
G01X57161Y38077D01*
G01X57202Y38110D01*
G01X57241Y38144D01*
G01X57279Y38180D01*
G01X57315Y38217D01*
G01X57349Y38256D01*
G01X57382Y38297D01*
G01X57414Y38338D01*
G01X57443Y38381D01*
G01X57471Y38425D01*
G01X57496Y38470D01*
G01X57521Y38516D01*
G01X57543Y38563D01*
G01X57563Y38611D01*
G01X57570Y38625D01*
G01X57578Y38637D01*
G01X57588Y38648D01*
G01X57601Y38658D01*
G01X57613Y38666D01*
G01X57628Y38671D01*
G01X57642Y38674D01*
G01X57658Y38675D01*
G01X57673Y38674D01*
G01X57687Y38671D01*
G01X57702Y38666D01*
G01X57714Y38658D01*
G01X57727Y38648D01*
G01X57737Y38637D01*
G01X57745Y38625D01*
G01X57752Y38611D01*
G01X57772Y38562D01*
G01X57795Y38514D01*
G01X57820Y38467D01*
G01X57846Y38421D01*
G01X57875Y38376D01*
G01X57905Y38333D01*
G01X57914Y38319D01*
G01X57920Y38304D01*
G01X57924Y38289D01*
G01X57925Y38273D01*
G01X57925Y36995D01*
G01X57924Y36979D01*
G01X57920Y36964D01*
G01X57914Y36949D01*
G01X57905Y36935D01*
G01X57895Y36923D01*
G01X54859Y33887D01*
G01X54847Y33877D01*
G01X54833Y33868D01*
G01X54818Y33862D01*
G01X54803Y33858D01*
G01X54787Y33857D01*
G01X30937Y33857D01*
G01X30921Y33858D01*
G01X30906Y33862D01*
G01X30891Y33868D01*
G01X30877Y33877D01*
G01X30865Y33887D01*
G01X27448Y37304D01*
G01X27438Y37316D01*
G01X27429Y37330D01*
G01X27423Y37345D01*
G01X27419Y37360D01*
G01X27418Y37376D01*
G01X27418Y43191D01*
G01X27419Y43207D01*
G01X27423Y43222D01*
G01X27429Y43236D01*
G01X27437Y43250D01*
G01X27448Y43262D01*
G01X27487Y43303D01*
G01X27524Y43346D01*
G01X27560Y43390D01*
G01X27594Y43435D01*
G01X27626Y43482D01*
G01X27657Y43530D01*
G01X27685Y43578D01*
G01X27712Y43629D01*
G01X27736Y43680D01*
G01X27759Y43732D01*
G01X27779Y43785D01*
G01X27798Y43838D01*
G01X27815Y43892D01*
G01X27829Y43947D01*
G01X27840Y44003D01*
G01X27851Y44058D01*
G01X27858Y44115D01*
G01X27864Y44171D01*
G01X27867Y44228D01*
G01X27868Y44285D01*
G01X27867Y44339D01*
G01X27864Y44393D01*
G01X27859Y44447D01*
G01X27852Y44501D01*
G01X27843Y44555D01*
G01X27832Y44608D01*
G01X27819Y44660D01*
G01X27804Y44713D01*
G01X27787Y44764D01*
G01X27768Y44815D01*
G01X27747Y44866D01*
G01X27724Y44915D01*
G01X27700Y44963D01*
G01X27673Y45011D01*
G01X27645Y45057D01*
G01X27616Y45103D01*
G01X27584Y45147D01*
G01X27551Y45190D01*
G01X27516Y45232D01*
G01X27480Y45273D01*
G01X27443Y45312D01*
G01X27404Y45349D01*
G01X27363Y45385D01*
G01X27321Y45420D01*
G01X27278Y45453D01*
G01X27234Y45485D01*
G01X27188Y45514D01*
G01X27142Y45542D01*
G01X27094Y45569D01*
G01X27046Y45593D01*
G01X26997Y45616D01*
G01X26946Y45637D01*
G01X26895Y45656D01*
G01X26844Y45673D01*
G01X26791Y45688D01*
G01X26739Y45701D01*
G01X26686Y45712D01*
G01X26632Y45721D01*
G01X26578Y45728D01*
G01X26524Y45733D01*
G01X26470Y45736D01*
G01X26416Y45737D01*
G01X26360Y45736D01*
G01X26304Y45733D01*
G01X26249Y45728D01*
G01X26194Y45720D01*
G01X26139Y45710D01*
G01X26085Y45699D01*
G01X26031Y45686D01*
G01X25978Y45670D01*
G01X25925Y45652D01*
G01X25873Y45632D01*
G01X25822Y45610D01*
G01X25772Y45587D01*
G01X25723Y45561D01*
G01X25674Y45534D01*
G01X25627Y45505D01*
G01X25581Y45473D01*
G01X25536Y45441D01*
G01X25492Y45406D01*
G01X25450Y45370D01*
G01X25409Y45333D01*
G01X25370Y45293D01*
G01X25332Y45252D01*
G01X25296Y45210D01*
G01X25261Y45167D01*
G01X25228Y45122D01*
G01X25218Y45109D01*
G01X25206Y45099D01*
G01X25192Y45090D01*
G01X25178Y45084D01*
G01X25162Y45080D01*
G01X25146Y45079D01*
G01X25129Y45080D01*
G01X25113Y45084D01*
G01X25099Y45090D01*
G01X25085Y45099D01*
G01X25073Y45109D01*
G01X25063Y45122D01*
G01X25030Y45167D01*
G01X24995Y45210D01*
G01X24959Y45252D01*
G01X24921Y45293D01*
G01X24882Y45333D01*
G01X24841Y45370D01*
G01X24799Y45406D01*
G01X24755Y45441D01*
G01X24710Y45473D01*
G01X24664Y45505D01*
G01X24617Y45534D01*
G01X24568Y45561D01*
G01X24519Y45587D01*
G01X24469Y45610D01*
G01X24418Y45632D01*
G01X24366Y45652D01*
G01X24313Y45670D01*
G01X24260Y45686D01*
G01X24206Y45699D01*
G01X24152Y45710D01*
G01X24097Y45720D01*
G01X24042Y45728D01*
G01X23987Y45733D01*
G01X23931Y45736D01*
G01X23876Y45737D01*
G01X23820Y45736D01*
G01X23765Y45733D01*
G01X23710Y45728D01*
G01X23656Y45721D01*
G01X23602Y45711D01*
G01X23547Y45700D01*
G01X23494Y45686D01*
G01X23441Y45671D01*
G01X23389Y45653D01*
G01X23338Y45634D01*
G01X23287Y45612D01*
G01X23236Y45589D01*
G01X23188Y45564D01*
G01X23139Y45537D01*
G01X23093Y45508D01*
G01X23046Y45477D01*
G01X23002Y45445D01*
G01X22959Y45411D01*
G01X22916Y45376D01*
G01X22905Y45367D01*
G01X22892Y45359D01*
G01X22878Y45354D01*
G01X22864Y45351D01*
G01X22849Y45350D01*
G01X22834Y45351D01*
G01X22819Y45355D01*
G01X22805Y45360D01*
G01X22792Y45368D01*
G01X22780Y45378D01*
G01X22770Y45389D01*
G01X22761Y45402D01*
G01X22754Y45415D01*
G01X22742Y45446D01*
G01X22726Y45476D01*
G01X22709Y45505D01*
G01X22690Y45533D01*
G01X22670Y45559D01*
G01X22647Y45584D01*
G01X22623Y45607D01*
G01X22597Y45629D01*
G01X22570Y45649D01*
G01X22541Y45667D01*
G01X22512Y45683D01*
G01X22482Y45697D01*
G01X22451Y45709D01*
G01X22418Y45719D01*
G01X22386Y45727D01*
G01X22353Y45733D01*
G01X22319Y45736D01*
G01X22285Y45737D01*
G01X21874Y45737D01*
G01X21874Y44823D01*
G01X22384Y44823D01*
G01X22398Y44822D01*
G01X22412Y44819D01*
G01X22426Y44814D01*
G01X22439Y44807D01*
G01X22451Y44798D01*
G01X22461Y44788D01*
G01X22469Y44776D01*
G01X22476Y44764D01*
G01X22482Y44750D01*
G01X22485Y44736D01*
G01X22486Y44721D01*
G01X22485Y44707D01*
G01X22482Y44693D01*
G01X22466Y44636D01*
G01X22453Y44578D01*
G01X22442Y44520D01*
G01X22434Y44461D01*
G01X22428Y44403D01*
G01X22424Y44343D01*
G01X22423Y44285D01*
G01X22424Y44226D01*
G01X22428Y44166D01*
G01X22434Y44108D01*
G01X22442Y44049D01*
G01X22453Y43991D01*
G01X22466Y43933D01*
G01X22482Y43876D01*
G01X22485Y43862D01*
G01X22486Y43848D01*
G01X22485Y43833D01*
G01X22482Y43819D01*
G01X22476Y43805D01*
G01X22469Y43793D01*
G01X22461Y43781D01*
G01X22451Y43771D01*
G01X22439Y43762D01*
G01X22426Y43755D01*
G01X22412Y43750D01*
G01X22398Y43747D01*
G01X22384Y43746D01*
G01X21874Y43746D01*
G01X21874Y42832D01*
G01X22285Y42832D01*
G01X22319Y42833D01*
G01X22353Y42836D01*
G01X22386Y42842D01*
G01X22418Y42849D01*
G01X22450Y42860D01*
G01X22482Y42872D01*
G01X22512Y42885D01*
G01X22541Y42902D01*
G01X22569Y42920D01*
G01X22596Y42939D01*
G01X22622Y42961D01*
G01X22646Y42985D01*
G01X22668Y43009D01*
G01X22689Y43035D01*
G01X22700Y43048D01*
G01X22712Y43058D01*
G01X22725Y43066D01*
G01X22740Y43072D01*
G01X22755Y43075D01*
G01X22771Y43076D01*
G01X22786Y43075D01*
G01X22800Y43072D01*
G01X22813Y43067D01*
G01X22826Y43061D01*
G01X22838Y43052D01*
G01X22848Y43041D01*
G01X22857Y43030D01*
G01X22864Y43017D01*
G01X22869Y43004D01*
G01X22872Y42990D01*
G01X22873Y42975D01*
G01X22873Y41948D01*
G01X22872Y41932D01*
G01X22868Y41917D01*
G01X22862Y41902D01*
G01X22853Y41888D01*
G01X22843Y41876D01*
G01X21331Y40364D01*
G01X21319Y40354D01*
G01X21305Y40345D01*
G01X21290Y40339D01*
G01X21275Y40335D01*
G01X21259Y40334D01*
G01X16840Y40334D01*
G01X16824Y40335D01*
G01X16809Y40339D01*
G01X16794Y40345D01*
G01X16780Y40354D01*
G01X16768Y40364D01*
G01X14367Y42765D01*
G01X14357Y42777D01*
G01X14348Y42791D01*
G01X14342Y42806D01*
G01X14338Y42821D01*
G01X14337Y42837D01*
G01X14337Y43109D01*
G01X14338Y43124D01*
G01X14341Y43139D01*
G01X14347Y43153D01*
G01X14354Y43165D01*
G01X14363Y43177D01*
G01X14373Y43187D01*
G01X14412Y43214D01*
G01X14438Y43233D01*
G01X14462Y43254D01*
G01X14485Y43276D01*
G01X14506Y43300D01*
G01X14526Y43325D01*
G01X14544Y43351D01*
G01X14561Y43379D01*
G01X14576Y43407D01*
G01X14588Y43437D01*
G01X14599Y43467D01*
G01X14609Y43498D01*
G01X14616Y43529D01*
G01X14620Y43560D01*
G01X14623Y43592D01*
G01X14625Y43624D01*
G01X14625Y45199D01*
G01X14623Y45232D01*
G01X14620Y45264D01*
G01X14615Y45297D01*
G01X14608Y45329D01*
G01X14598Y45360D01*
G01X14586Y45391D01*
G01X14572Y45421D01*
G01X14557Y45450D01*
G01X14540Y45478D01*
G01X14521Y45505D01*
G01X14500Y45530D01*
G01X14478Y45555D01*
G01X14453Y45577D01*
G01X14428Y45598D01*
G01X14401Y45617D01*
G01X14373Y45634D01*
G01X14344Y45649D01*
G01X14314Y45663D01*
G01X14283Y45675D01*
G01X14252Y45685D01*
G01X14220Y45692D01*
G01X14187Y45697D01*
G01X14155Y45700D01*
G01X14122Y45701D01*
G01X12547Y45701D01*
G01X12514Y45700D01*
G01X12482Y45697D01*
G01X12449Y45692D01*
G01X12417Y45685D01*
G01X12386Y45675D01*
G01X12355Y45663D01*
G01X12325Y45649D01*
G01X12296Y45634D01*
G01X12268Y45617D01*
G01X12241Y45598D01*
G01X12216Y45577D01*
G01X12192Y45555D01*
G01X12169Y45530D01*
G01X12148Y45505D01*
G01X12129Y45478D01*
G01X12112Y45450D01*
G01X12097Y45421D01*
G01X12083Y45391D01*
G01X12071Y45360D01*
G01X12061Y45329D01*
G01X12054Y45297D01*
G01X12049Y45264D01*
G01X12046Y45232D01*
G01X12045Y45199D01*
G01X12045Y45198D01*
G01X12043Y45183D01*
G01X12040Y45169D01*
G01X12035Y45155D01*
G01X12028Y45143D01*
G01X12020Y45131D01*
G01X12009Y45121D01*
G01X11998Y45112D01*
G01X11985Y45105D01*
G01X11972Y45100D01*
G01X11957Y45097D01*
G01X11943Y45096D01*
G01X11926Y45097D01*
G01X11911Y45101D01*
G01X11895Y45108D01*
G01X11882Y45117D01*
G01X11869Y45127D01*
G01X11859Y45140D01*
G01X11829Y45183D01*
G01X11796Y45224D01*
G01X11763Y45264D01*
G01X11727Y45303D01*
G01X11691Y45340D01*
G01X11652Y45375D01*
G01X11612Y45409D01*
G01X11571Y45442D01*
G01X11529Y45472D01*
G01X11485Y45501D01*
G01X11441Y45528D01*
G01X11394Y45553D01*
G01X11348Y45577D01*
G01X11300Y45598D01*
G01X11252Y45618D01*
G01X11252Y44869D01*
G01X11943Y44869D01*
G01X11957Y44868D01*
G01X11972Y44865D01*
G01X11985Y44860D01*
G01X11998Y44852D01*
G01X12009Y44844D01*
G01X12020Y44834D01*
G01X12028Y44822D01*
G01X12035Y44809D01*
G01X12040Y44796D01*
G01X12043Y44781D01*
G01X12045Y44767D01*
G01X12045Y44056D01*
G01X12043Y44042D01*
G01X12040Y44027D01*
G01X12035Y44014D01*
G01X12028Y44001D01*
G01X12020Y43989D01*
G01X12009Y43979D01*
G01X11998Y43971D01*
G01X11985Y43963D01*
G01X11972Y43958D01*
G01X11957Y43955D01*
G01X11943Y43954D01*
G01X11252Y43954D01*
G01X11252Y43205D01*
G01X11300Y43225D01*
G01X11348Y43246D01*
G01X11394Y43270D01*
G01X11441Y43295D01*
G01X11485Y43322D01*
G01X11529Y43351D01*
G01X11571Y43381D01*
G01X11612Y43414D01*
G01X11652Y43448D01*
G01X11691Y43483D01*
G01X11727Y43520D01*
G01X11763Y43559D01*
G01X11796Y43599D01*
G01X11829Y43640D01*
G01X11859Y43683D01*
G01X11869Y43696D01*
G01X11882Y43706D01*
G01X11895Y43715D01*
G01X11911Y43722D01*
G01X11926Y43726D01*
G01X11943Y43727D01*
G01X11957Y43726D01*
G01X11972Y43723D01*
G01X11985Y43718D01*
G01X11998Y43711D01*
G01X12009Y43702D01*
G01X12020Y43692D01*
G01X12028Y43680D01*
G01X12035Y43668D01*
G01X12040Y43654D01*
G01X12043Y43640D01*
G01X12045Y43625D01*
G01X12045Y43624D01*
G01X12046Y43592D01*
G01X12049Y43560D01*
G01X12053Y43529D01*
G01X12060Y43498D01*
G01X12070Y43467D01*
G01X12081Y43437D01*
G01X12093Y43407D01*
G01X12108Y43379D01*
G01X12125Y43351D01*
G01X12143Y43325D01*
G01X12163Y43300D01*
G01X12184Y43276D01*
G01X12207Y43254D01*
G01X12231Y43233D01*
G01X12257Y43214D01*
G01X12296Y43187D01*
G01X12306Y43177D01*
G01X12315Y43165D01*
G01X12322Y43153D01*
G01X12328Y43139D01*
G01X12331Y43124D01*
G01X12332Y43109D01*
G01X12332Y42380D01*
G01X12333Y42333D01*
G01X12336Y42287D01*
G01X12341Y42241D01*
G01X12349Y42195D01*
G01X12359Y42150D01*
G01X12370Y42105D01*
G01X12384Y42061D01*
G01X12400Y42017D01*
G01X12417Y41975D01*
G01X12437Y41932D01*
G01X12459Y41892D01*
G01X12482Y41852D01*
G01X12507Y41813D01*
G01X12534Y41775D01*
G01X12563Y41739D01*
G01X12593Y41704D01*
G01X12625Y41670D01*
G01X15673Y38622D01*
G01X15707Y38590D01*
G01X15742Y38560D01*
G01X15778Y38531D01*
G01X15816Y38504D01*
G01X15855Y38479D01*
G01X15895Y38456D01*
G01X15935Y38434D01*
G01X15978Y38414D01*
G01X16020Y38397D01*
G01X16064Y38381D01*
G01X16108Y38367D01*
G01X16153Y38356D01*
G01X16198Y38346D01*
G01X16244Y38338D01*
G01X16290Y38333D01*
G01X16336Y38330D01*
G01X16383Y38329D01*
G01X21717Y38329D01*
G01X21763Y38330D01*
G01X21809Y38333D01*
G01X21855Y38338D01*
G01X21901Y38346D01*
G01X21946Y38356D01*
G01X21991Y38367D01*
G01X22035Y38381D01*
G01X22079Y38397D01*
G01X22121Y38414D01*
G01X22164Y38434D01*
G01X22204Y38456D01*
G01X22244Y38479D01*
G01X22283Y38504D01*
G01X22321Y38531D01*
G01X22357Y38560D01*
G01X22392Y38590D01*
G01X22426Y38622D01*
G01X22699Y38897D01*
G01X22712Y38907D01*
G01X22725Y38915D01*
G01X22740Y38921D01*
G01X22755Y38925D01*
G01X22771Y38926D01*
G01X22786Y38925D01*
G01X22800Y38922D01*
G01X22813Y38917D01*
G01X22826Y38910D01*
G01X22838Y38901D01*
G01X22848Y38891D01*
G01X22857Y38879D01*
G01X22864Y38867D01*
G01X22869Y38853D01*
G01X22872Y38839D01*
G01X22873Y38825D01*
G01X22873Y30442D01*
G01X22874Y30395D01*
G01X22877Y30349D01*
G01X22882Y30303D01*
G01X22890Y30257D01*
G01X22900Y30212D01*
G01X22911Y30167D01*
G01X22925Y30123D01*
G01X22941Y30079D01*
G01X22958Y30037D01*
G01X22978Y29994D01*
G01X23000Y29954D01*
G01X23023Y29914D01*
G01X23048Y29875D01*
G01X23075Y29837D01*
G01X23104Y29801D01*
G01X23134Y29766D01*
G01X23166Y29732D01*
G01X23928Y28970D01*
G01X23962Y28938D01*
G01X23997Y28908D01*
G01X24033Y28879D01*
G01X24071Y28852D01*
G01X24110Y28827D01*
G01X24150Y28804D01*
G01X24190Y28782D01*
G01X24233Y28762D01*
G01X24275Y28745D01*
G01X24319Y28729D01*
G01X24363Y28715D01*
G01X24408Y28704D01*
G01X24453Y28694D01*
G01X24499Y28686D01*
G01X24545Y28681D01*
G01X24591Y28678D01*
G01X24638Y28677D01*
G01X62788Y28677D01*
G01X62804Y28676D01*
G01X62819Y28672D01*
G01X62834Y28666D01*
G01X62848Y28657D01*
G01X62860Y28647D01*
G01X70595Y20912D01*
G01X70605Y20900D01*
G01X70614Y20886D01*
G01X70620Y20871D01*
G01X70624Y20856D01*
G01X70625Y20840D01*
G01X70625Y17022D01*
G01X70624Y17006D01*
G01X70620Y16991D01*
G01X70614Y16976D01*
G01X70605Y16962D01*
G01X70575Y16919D01*
G01X70546Y16874D01*
G01X70520Y16828D01*
G01X70495Y16781D01*
G01X70472Y16733D01*
G01X70452Y16684D01*
G01X70445Y16670D01*
G01X70436Y16657D01*
G01X70426Y16646D01*
G01X70413Y16636D01*
G01X70399Y16628D01*
G01X70385Y16623D01*
G01X70394Y16609D01*
G01X70401Y16594D01*
G01X70405Y16577D01*
G01X70407Y16560D01*
G01X70403Y16535D01*
G01X70391Y16483D01*
G01X70381Y16430D01*
G01X70373Y16378D01*
G01X70367Y16324D01*
G01X70364Y16271D01*
G01X70363Y16218D01*
G01X70364Y16164D01*
G01X70367Y16111D01*
G01X70373Y16057D01*
G01X70381Y16005D01*
G01X70391Y15952D01*
G01X70403Y15900D01*
G01X70407Y15875D01*
G01X70405Y15858D01*
G01X70401Y15841D01*
G01X70394Y15826D01*
G01X70385Y15812D01*
G01X70399Y15807D01*
G01X70413Y15799D01*
G01X70426Y15789D01*
G01X70436Y15778D01*
G01X70445Y15765D01*
G01X70452Y15751D01*
G01X70472Y15703D01*
G01X70494Y15656D01*
G01X70519Y15610D01*
G01X70544Y15565D01*
G01X70572Y15521D01*
G01X70601Y15478D01*
G01X70633Y15437D01*
G01X70666Y15396D01*
G01X70700Y15357D01*
G01X70736Y15320D01*
G01X70774Y15284D01*
G01X70813Y15250D01*
G01X70854Y15217D01*
G01X70895Y15186D01*
G01X70939Y15157D01*
G01X70983Y15129D01*
G01X71028Y15104D01*
G01X71074Y15080D01*
G01X71122Y15058D01*
G01X71170Y15038D01*
G01X71219Y15021D01*
G01X71268Y15005D01*
G01X71319Y14991D01*
G01X71369Y14980D01*
G01X71420Y14970D01*
G01X71472Y14962D01*
G01X71523Y14957D01*
G01X71576Y14954D01*
G01X71628Y14953D01*
G01X71678Y14954D01*
G01X71729Y14957D01*
G01X71780Y14962D01*
G01X71830Y14969D01*
G01X71880Y14978D01*
G01X71930Y14990D01*
G01X71980Y15003D01*
G01X72028Y15018D01*
G01X72076Y15035D01*
G01X72123Y15054D01*
G01X72170Y15075D01*
G01X72215Y15098D01*
G01X72260Y15122D01*
G01X72304Y15149D01*
G01X72346Y15177D01*
G01X72387Y15207D01*
G01X72427Y15238D01*
G01X72466Y15271D01*
G01X72504Y15306D01*
G01X72539Y15341D01*
G01X72574Y15379D01*
G01X72607Y15418D01*
G01X72638Y15458D01*
G01X72668Y15499D01*
G01X72696Y15541D01*
G01X72723Y15585D01*
G01X72747Y15630D01*
G01X72770Y15675D01*
G01X72791Y15722D01*
G01X72810Y15769D01*
G01X72827Y15817D01*
G01X72842Y15865D01*
G01X72855Y15915D01*
G01X72867Y15965D01*
G01X72876Y16015D01*
G01X72883Y16065D01*
G01X72888Y16116D01*
G01X72891Y16167D01*
G01X72892Y16218D01*
G01X72891Y16270D01*
G01X72888Y16324D01*
G01X72882Y16377D01*
G01X72874Y16429D01*
G01X72864Y16481D01*
G01X72852Y16532D01*
G01X72838Y16584D01*
G01X72821Y16634D01*
G01X72803Y16684D01*
G01X72782Y16733D01*
G01X72760Y16781D01*
G01X72735Y16828D01*
G01X72709Y16874D01*
G01X72680Y16919D01*
G01X72650Y16962D01*
G01X72641Y16976D01*
G01X72635Y16991D01*
G01X72631Y17006D01*
G01X72630Y17022D01*
G01X72630Y21221D01*
G01X72631Y21237D01*
G01X72635Y21252D01*
G01X72641Y21267D01*
G01X72650Y21281D01*
G01X72660Y21293D01*
G01X81227Y29859D01*
G01X81259Y29893D01*
G01X81289Y29928D01*
G01X81318Y29964D01*
G01X81345Y30002D01*
G01X81370Y30041D01*
G01X81393Y30081D01*
G01X81415Y30121D01*
G01X81435Y30164D01*
G01X81452Y30206D01*
G01X81468Y30250D01*
G01X81482Y30294D01*
G01X81493Y30339D01*
G01X81503Y30384D01*
G01X81511Y30430D01*
G01X81516Y30476D01*
G01X81519Y30522D01*
G01X81520Y30569D01*
G01X81520Y40221D01*
G01X81519Y40267D01*
G01X81516Y40313D01*
G01X81511Y40359D01*
G01X81503Y40405D01*
G01X81493Y40450D01*
G01X81482Y40495D01*
G01X81468Y40539D01*
G01X81452Y40583D01*
G01X81435Y40625D01*
G01X81415Y40668D01*
G01X81393Y40708D01*
G01X81370Y40748D01*
G01X81345Y40787D01*
G01X81318Y40825D01*
G01X81289Y40861D01*
G01X81259Y40896D01*
G01X81227Y40930D01*
G01X74115Y48042D01*
G01X74081Y48074D01*
G01X74046Y48104D01*
G01X74010Y48133D01*
G01X73972Y48160D01*
G01X73933Y48185D01*
G01X73893Y48208D01*
G01X73853Y48230D01*
G01X73810Y48250D01*
G01X73768Y48267D01*
G01X73724Y48283D01*
G01X73680Y48297D01*
G01X73635Y48308D01*
G01X73590Y48318D01*
G01X73544Y48326D01*
G01X73498Y48331D01*
G01X73452Y48334D01*
G01X73406Y48335D01*
G37*
G36*
G01X60115Y15773D02*
G01X59372Y15773D01*
G01X59372Y15033D01*
G01X59421Y15053D01*
G01X59469Y15075D01*
G01X59516Y15098D01*
G01X59563Y15124D01*
G01X59607Y15151D01*
G01X59651Y15181D01*
G01X59694Y15212D01*
G01X59735Y15244D01*
G01X59775Y15279D01*
G01X59813Y15315D01*
G01X59851Y15353D01*
G01X59886Y15392D01*
G01X59919Y15433D01*
G01X59951Y15475D01*
G01X59981Y15518D01*
G01X60010Y15563D01*
G01X60035Y15608D01*
G01X60060Y15655D01*
G01X60083Y15702D01*
G01X60103Y15751D01*
G01X60115Y15773D01*
G37*
G36*
G01X68643Y15773D02*
G01X67900Y15773D01*
G01X67912Y15751D01*
G01X67932Y15702D01*
G01X67955Y15655D01*
G01X67980Y15608D01*
G01X68005Y15563D01*
G01X68034Y15518D01*
G01X68064Y15475D01*
G01X68096Y15433D01*
G01X68129Y15392D01*
G01X68164Y15353D01*
G01X68202Y15315D01*
G01X68240Y15279D01*
G01X68280Y15244D01*
G01X68321Y15212D01*
G01X68364Y15181D01*
G01X68408Y15151D01*
G01X68453Y15124D01*
G01X68499Y15098D01*
G01X68546Y15075D01*
G01X68594Y15053D01*
G01X68643Y15033D01*
G01X68643Y15773D01*
G37*
G36*
G01X58483Y15773D02*
G01X57740Y15773D01*
G01X57752Y15751D01*
G01X57772Y15702D01*
G01X57795Y15655D01*
G01X57820Y15608D01*
G01X57845Y15563D01*
G01X57874Y15518D01*
G01X57904Y15475D01*
G01X57936Y15433D01*
G01X57969Y15392D01*
G01X58004Y15353D01*
G01X58042Y15315D01*
G01X58080Y15279D01*
G01X58120Y15244D01*
G01X58161Y15212D01*
G01X58204Y15181D01*
G01X58248Y15151D01*
G01X58293Y15124D01*
G01X58339Y15098D01*
G01X58386Y15075D01*
G01X58434Y15053D01*
G01X58483Y15033D01*
G01X58483Y15773D01*
G37*
G36*
G01X70275Y15773D02*
G01X69532Y15773D01*
G01X69532Y15033D01*
G01X69581Y15053D01*
G01X69629Y15075D01*
G01X69676Y15098D01*
G01X69723Y15124D01*
G01X69767Y15151D01*
G01X69811Y15181D01*
G01X69854Y15212D01*
G01X69895Y15244D01*
G01X69935Y15279D01*
G01X69973Y15315D01*
G01X70011Y15353D01*
G01X70046Y15392D01*
G01X70079Y15433D01*
G01X70111Y15475D01*
G01X70141Y15518D01*
G01X70170Y15563D01*
G01X70195Y15608D01*
G01X70220Y15655D01*
G01X70243Y15702D01*
G01X70263Y15751D01*
G01X70275Y15773D01*
G37*
G36*
G01X32949Y18370D02*
G01X32893Y18371D01*
G01X32836Y18370D01*
G01X32779Y18367D01*
G01X32722Y18362D01*
G01X32666Y18354D01*
G01X32610Y18344D01*
G01X32555Y18333D01*
G01X32499Y18320D01*
G01X32445Y18304D01*
G01X32391Y18286D01*
G01X32338Y18266D01*
G01X32285Y18244D01*
G01X32234Y18221D01*
G01X32183Y18195D01*
G01X32133Y18168D01*
G01X32084Y18138D01*
G01X32037Y18107D01*
G01X31991Y18074D01*
G01X31946Y18040D01*
G01X31902Y18004D01*
G01X31860Y17966D01*
G01X31819Y17926D01*
G01X31779Y17885D01*
G01X31741Y17843D01*
G01X31705Y17799D01*
G01X31671Y17754D01*
G01X31638Y17708D01*
G01X31607Y17661D01*
G01X31577Y17612D01*
G01X31550Y17562D01*
G01X31524Y17511D01*
G01X31501Y17460D01*
G01X31479Y17407D01*
G01X31459Y17354D01*
G01X31441Y17300D01*
G01X31425Y17246D01*
G01X31412Y17190D01*
G01X31401Y17135D01*
G01X31391Y17079D01*
G01X31383Y17023D01*
G01X31378Y16966D01*
G01X31375Y16909D01*
G01X31374Y16853D01*
G01X31375Y16796D01*
G01X31378Y16739D01*
G01X31383Y16682D01*
G01X31391Y16626D01*
G01X31401Y16570D01*
G01X31412Y16515D01*
G01X31425Y16459D01*
G01X31441Y16405D01*
G01X31459Y16351D01*
G01X31479Y16298D01*
G01X31501Y16245D01*
G01X31524Y16194D01*
G01X31550Y16143D01*
G01X31577Y16093D01*
G01X31607Y16044D01*
G01X31638Y15997D01*
G01X31671Y15951D01*
G01X31705Y15906D01*
G01X31741Y15862D01*
G01X31779Y15820D01*
G01X31819Y15779D01*
G01X31860Y15739D01*
G01X31902Y15701D01*
G01X31946Y15665D01*
G01X31991Y15631D01*
G01X32037Y15598D01*
G01X32084Y15567D01*
G01X32133Y15537D01*
G01X32183Y15510D01*
G01X32234Y15484D01*
G01X32285Y15461D01*
G01X32338Y15439D01*
G01X32391Y15419D01*
G01X32445Y15401D01*
G01X32499Y15385D01*
G01X32555Y15372D01*
G01X32610Y15361D01*
G01X32666Y15351D01*
G01X32722Y15343D01*
G01X32779Y15338D01*
G01X32836Y15335D01*
G01X32893Y15334D01*
G01X32949Y15335D01*
G01X33006Y15338D01*
G01X33063Y15343D01*
G01X33119Y15351D01*
G01X33175Y15361D01*
G01X33230Y15372D01*
G01X33286Y15385D01*
G01X33340Y15401D01*
G01X33394Y15419D01*
G01X33447Y15439D01*
G01X33500Y15461D01*
G01X33551Y15484D01*
G01X33602Y15510D01*
G01X33652Y15537D01*
G01X33701Y15567D01*
G01X33748Y15598D01*
G01X33794Y15631D01*
G01X33839Y15665D01*
G01X33883Y15701D01*
G01X33925Y15739D01*
G01X33966Y15779D01*
G01X34006Y15820D01*
G01X34044Y15862D01*
G01X34080Y15906D01*
G01X34114Y15951D01*
G01X34147Y15997D01*
G01X34178Y16044D01*
G01X34208Y16093D01*
G01X34235Y16143D01*
G01X34261Y16194D01*
G01X34284Y16245D01*
G01X34306Y16298D01*
G01X34326Y16351D01*
G01X34344Y16405D01*
G01X34360Y16459D01*
G01X34373Y16515D01*
G01X34384Y16570D01*
G01X34394Y16626D01*
G01X34402Y16682D01*
G01X34407Y16739D01*
G01X34410Y16796D01*
G01X34411Y16853D01*
G01X34410Y16909D01*
G01X34407Y16966D01*
G01X34402Y17023D01*
G01X34394Y17079D01*
G01X34384Y17135D01*
G01X34373Y17190D01*
G01X34360Y17246D01*
G01X34344Y17300D01*
G01X34326Y17354D01*
G01X34306Y17407D01*
G01X34284Y17460D01*
G01X34261Y17511D01*
G01X34235Y17562D01*
G01X34208Y17612D01*
G01X34178Y17661D01*
G01X34147Y17708D01*
G01X34114Y17754D01*
G01X34080Y17799D01*
G01X34044Y17843D01*
G01X34006Y17885D01*
G01X33966Y17926D01*
G01X33925Y17966D01*
G01X33883Y18004D01*
G01X33839Y18040D01*
G01X33794Y18074D01*
G01X33748Y18107D01*
G01X33701Y18138D01*
G01X33652Y18168D01*
G01X33602Y18195D01*
G01X33551Y18221D01*
G01X33500Y18244D01*
G01X33447Y18266D01*
G01X33394Y18286D01*
G01X33340Y18304D01*
G01X33286Y18320D01*
G01X33230Y18333D01*
G01X33175Y18344D01*
G01X33119Y18354D01*
G01X33063Y18362D01*
G01X33006Y18367D01*
G01X32949Y18370D01*
G37*
G36*
G01X74859Y18370D02*
G01X74803Y18371D01*
G01X74746Y18370D01*
G01X74689Y18367D01*
G01X74632Y18362D01*
G01X74576Y18354D01*
G01X74520Y18344D01*
G01X74465Y18333D01*
G01X74409Y18320D01*
G01X74355Y18304D01*
G01X74301Y18286D01*
G01X74248Y18266D01*
G01X74195Y18244D01*
G01X74144Y18221D01*
G01X74093Y18195D01*
G01X74043Y18168D01*
G01X73994Y18138D01*
G01X73947Y18107D01*
G01X73901Y18074D01*
G01X73856Y18040D01*
G01X73812Y18004D01*
G01X73770Y17966D01*
G01X73729Y17926D01*
G01X73689Y17885D01*
G01X73651Y17843D01*
G01X73615Y17799D01*
G01X73581Y17754D01*
G01X73548Y17708D01*
G01X73517Y17661D01*
G01X73487Y17612D01*
G01X73460Y17562D01*
G01X73434Y17511D01*
G01X73411Y17460D01*
G01X73389Y17407D01*
G01X73369Y17354D01*
G01X73351Y17300D01*
G01X73335Y17246D01*
G01X73322Y17190D01*
G01X73311Y17135D01*
G01X73301Y17079D01*
G01X73293Y17023D01*
G01X73288Y16966D01*
G01X73285Y16909D01*
G01X73284Y16853D01*
G01X73285Y16796D01*
G01X73288Y16739D01*
G01X73293Y16682D01*
G01X73301Y16626D01*
G01X73311Y16570D01*
G01X73322Y16515D01*
G01X73335Y16459D01*
G01X73351Y16405D01*
G01X73369Y16351D01*
G01X73389Y16298D01*
G01X73411Y16245D01*
G01X73434Y16194D01*
G01X73460Y16143D01*
G01X73487Y16093D01*
G01X73517Y16044D01*
G01X73548Y15997D01*
G01X73581Y15951D01*
G01X73615Y15906D01*
G01X73651Y15862D01*
G01X73689Y15820D01*
G01X73729Y15779D01*
G01X73770Y15739D01*
G01X73812Y15701D01*
G01X73856Y15665D01*
G01X73901Y15631D01*
G01X73947Y15598D01*
G01X73994Y15567D01*
G01X74043Y15537D01*
G01X74093Y15510D01*
G01X74144Y15484D01*
G01X74195Y15461D01*
G01X74248Y15439D01*
G01X74301Y15419D01*
G01X74355Y15401D01*
G01X74409Y15385D01*
G01X74465Y15372D01*
G01X74520Y15361D01*
G01X74576Y15351D01*
G01X74632Y15343D01*
G01X74689Y15338D01*
G01X74746Y15335D01*
G01X74803Y15334D01*
G01X74859Y15335D01*
G01X74916Y15338D01*
G01X74973Y15343D01*
G01X75029Y15351D01*
G01X75085Y15361D01*
G01X75140Y15372D01*
G01X75196Y15385D01*
G01X75250Y15401D01*
G01X75304Y15419D01*
G01X75357Y15439D01*
G01X75410Y15461D01*
G01X75461Y15484D01*
G01X75512Y15510D01*
G01X75562Y15537D01*
G01X75611Y15567D01*
G01X75658Y15598D01*
G01X75704Y15631D01*
G01X75749Y15665D01*
G01X75793Y15701D01*
G01X75835Y15739D01*
G01X75876Y15779D01*
G01X75916Y15820D01*
G01X75954Y15862D01*
G01X75990Y15906D01*
G01X76024Y15951D01*
G01X76057Y15997D01*
G01X76088Y16044D01*
G01X76118Y16093D01*
G01X76145Y16143D01*
G01X76171Y16194D01*
G01X76194Y16245D01*
G01X76216Y16298D01*
G01X76236Y16351D01*
G01X76254Y16405D01*
G01X76270Y16459D01*
G01X76283Y16515D01*
G01X76294Y16570D01*
G01X76304Y16626D01*
G01X76312Y16682D01*
G01X76317Y16739D01*
G01X76320Y16796D01*
G01X76321Y16853D01*
G01X76320Y16909D01*
G01X76317Y16966D01*
G01X76312Y17023D01*
G01X76304Y17079D01*
G01X76294Y17135D01*
G01X76283Y17190D01*
G01X76270Y17246D01*
G01X76254Y17300D01*
G01X76236Y17354D01*
G01X76216Y17407D01*
G01X76194Y17460D01*
G01X76171Y17511D01*
G01X76145Y17562D01*
G01X76118Y17612D01*
G01X76088Y17661D01*
G01X76057Y17708D01*
G01X76024Y17754D01*
G01X75990Y17799D01*
G01X75954Y17843D01*
G01X75916Y17885D01*
G01X75876Y17926D01*
G01X75835Y17966D01*
G01X75793Y18004D01*
G01X75749Y18040D01*
G01X75704Y18074D01*
G01X75658Y18107D01*
G01X75611Y18138D01*
G01X75562Y18168D01*
G01X75512Y18195D01*
G01X75461Y18221D01*
G01X75410Y18244D01*
G01X75357Y18266D01*
G01X75304Y18286D01*
G01X75250Y18304D01*
G01X75196Y18320D01*
G01X75140Y18333D01*
G01X75085Y18344D01*
G01X75029Y18354D01*
G01X74973Y18362D01*
G01X74916Y18367D01*
G01X74859Y18370D01*
G37*
G36*
G01X18958Y17085D02*
G01X18317Y17772D01*
G01X17235Y16763D01*
G01X17290Y16739D01*
G01X17345Y16717D01*
G01X17402Y16698D01*
G01X17458Y16680D01*
G01X17516Y16665D01*
G01X17574Y16652D01*
G01X17633Y16642D01*
G01X17692Y16633D01*
G01X17751Y16627D01*
G01X17810Y16624D01*
G01X17870Y16622D01*
G01X17926Y16624D01*
G01X17983Y16627D01*
G01X18039Y16632D01*
G01X18094Y16640D01*
G01X18150Y16649D01*
G01X18205Y16660D01*
G01X18260Y16674D01*
G01X18314Y16690D01*
G01X18368Y16708D01*
G01X18421Y16727D01*
G01X18472Y16749D01*
G01X18524Y16772D01*
G01X18574Y16798D01*
G01X18623Y16825D01*
G01X18672Y16855D01*
G01X18719Y16886D01*
G01X18765Y16918D01*
G01X18809Y16953D01*
G01X18853Y16989D01*
G01X18895Y17026D01*
G01X18958Y17085D01*
G37*
G36*
G01X59421Y17382D02*
G01X59372Y17402D01*
G01X59372Y16662D01*
G01X60115Y16662D01*
G01X60103Y16684D01*
G01X60083Y16733D01*
G01X60060Y16780D01*
G01X60035Y16827D01*
G01X60010Y16872D01*
G01X59981Y16917D01*
G01X59951Y16960D01*
G01X59919Y17002D01*
G01X59886Y17043D01*
G01X59851Y17082D01*
G01X59813Y17120D01*
G01X59775Y17156D01*
G01X59735Y17191D01*
G01X59694Y17223D01*
G01X59651Y17254D01*
G01X59607Y17284D01*
G01X59563Y17311D01*
G01X59516Y17337D01*
G01X59469Y17361D01*
G01X59421Y17382D01*
G37*
G36*
G01X68643Y16662D02*
G01X68643Y17402D01*
G01X68594Y17382D01*
G01X68546Y17361D01*
G01X68499Y17337D01*
G01X68453Y17311D01*
G01X68408Y17284D01*
G01X68364Y17254D01*
G01X68321Y17223D01*
G01X68280Y17191D01*
G01X68240Y17156D01*
G01X68202Y17120D01*
G01X68164Y17082D01*
G01X68129Y17043D01*
G01X68096Y17002D01*
G01X68064Y16960D01*
G01X68034Y16917D01*
G01X68005Y16872D01*
G01X67980Y16827D01*
G01X67955Y16780D01*
G01X67932Y16733D01*
G01X67912Y16684D01*
G01X67900Y16662D01*
G01X68643Y16662D01*
G37*
G36*
G01X58483Y16662D02*
G01X58483Y17402D01*
G01X58434Y17382D01*
G01X58386Y17361D01*
G01X58339Y17337D01*
G01X58293Y17311D01*
G01X58248Y17284D01*
G01X58204Y17254D01*
G01X58161Y17223D01*
G01X58120Y17191D01*
G01X58080Y17156D01*
G01X58042Y17120D01*
G01X58004Y17082D01*
G01X57969Y17043D01*
G01X57936Y17002D01*
G01X57904Y16960D01*
G01X57874Y16917D01*
G01X57845Y16872D01*
G01X57820Y16827D01*
G01X57795Y16780D01*
G01X57772Y16733D01*
G01X57752Y16684D01*
G01X57740Y16662D01*
G01X58483Y16662D01*
G37*
G36*
G01X69581Y17382D02*
G01X69532Y17402D01*
G01X69532Y16662D01*
G01X70275Y16662D01*
G01X70263Y16684D01*
G01X70243Y16733D01*
G01X70220Y16780D01*
G01X70195Y16827D01*
G01X70170Y16872D01*
G01X70141Y16917D01*
G01X70111Y16960D01*
G01X70079Y17002D01*
G01X70046Y17043D01*
G01X70011Y17082D01*
G01X69973Y17120D01*
G01X69935Y17156D01*
G01X69895Y17191D01*
G01X69854Y17223D01*
G01X69811Y17254D01*
G01X69767Y17284D01*
G01X69723Y17311D01*
G01X69676Y17337D01*
G01X69629Y17361D01*
G01X69581Y17382D01*
G37*
G36*
G01X17549Y18596D02*
G01X16908Y19283D01*
G01X16845Y19224D01*
G01X16805Y19185D01*
G01X16766Y19145D01*
G01X16729Y19103D01*
G01X16693Y19060D01*
G01X16659Y19015D01*
G01X16627Y18969D01*
G01X16596Y18923D01*
G01X16567Y18874D01*
G01X16540Y18826D01*
G01X16515Y18775D01*
G01X16492Y18724D01*
G01X16470Y18673D01*
G01X16451Y18620D01*
G01X16433Y18567D01*
G01X16418Y18513D01*
G01X16404Y18459D01*
G01X16393Y18404D01*
G01X16384Y18349D01*
G01X16376Y18293D01*
G01X16371Y18237D01*
G01X16368Y18181D01*
G01X16367Y18125D01*
G01X16368Y18064D01*
G01X16372Y18003D01*
G01X16378Y17942D01*
G01X16387Y17882D01*
G01X16398Y17822D01*
G01X16411Y17762D01*
G01X16428Y17703D01*
G01X16446Y17645D01*
G01X16467Y17588D01*
G01X17549Y18596D01*
G37*
G36*
G01X14699Y17913D02*
G01X13690Y18995D01*
G01X13003Y18355D01*
G01X13062Y18292D01*
G01X13101Y18252D01*
G01X13141Y18212D01*
G01X13184Y18175D01*
G01X13227Y18140D01*
G01X13271Y18106D01*
G01X13317Y18073D01*
G01X13364Y18043D01*
G01X13412Y18014D01*
G01X13461Y17987D01*
G01X13511Y17962D01*
G01X13562Y17939D01*
G01X13614Y17917D01*
G01X13666Y17897D01*
G01X13720Y17880D01*
G01X13773Y17865D01*
G01X13828Y17851D01*
G01X13883Y17840D01*
G01X13938Y17830D01*
G01X13993Y17823D01*
G01X14049Y17818D01*
G01X14105Y17815D01*
G01X14161Y17814D01*
G01X14222Y17815D01*
G01X14283Y17819D01*
G01X14344Y17825D01*
G01X14404Y17833D01*
G01X14465Y17845D01*
G01X14524Y17858D01*
G01X14583Y17874D01*
G01X14642Y17893D01*
G01X14699Y17913D01*
G37*
G36*
G01X15260Y20341D02*
G01X15201Y20404D01*
G01X14514Y19764D01*
G01X15523Y18682D01*
G01X15547Y18737D01*
G01X15569Y18792D01*
G01X15589Y18848D01*
G01X15606Y18905D01*
G01X15622Y18963D01*
G01X15634Y19021D01*
G01X15645Y19079D01*
G01X15653Y19139D01*
G01X15659Y19197D01*
G01X15663Y19257D01*
G01X15664Y19316D01*
G01X15663Y19373D01*
G01X15660Y19429D01*
G01X15654Y19485D01*
G01X15647Y19541D01*
G01X15637Y19597D01*
G01X15626Y19652D01*
G01X15612Y19706D01*
G01X15597Y19761D01*
G01X15579Y19814D01*
G01X15559Y19867D01*
G01X15538Y19919D01*
G01X15514Y19971D01*
G01X15488Y20021D01*
G01X15461Y20070D01*
G01X15432Y20118D01*
G01X15401Y20166D01*
G01X15368Y20211D01*
G01X15334Y20256D01*
G01X15298Y20299D01*
G01X15260Y20341D01*
G37*
G36*
G01X21195Y20379D02*
G01X21174Y20436D01*
G01X20092Y19428D01*
G01X20733Y18741D01*
G01X20796Y18800D01*
G01X20836Y18838D01*
G01X20875Y18879D01*
G01X20912Y18921D01*
G01X20948Y18964D01*
G01X20982Y19008D01*
G01X21014Y19054D01*
G01X21045Y19101D01*
G01X21074Y19149D01*
G01X21101Y19198D01*
G01X21126Y19248D01*
G01X21150Y19300D01*
G01X21171Y19351D01*
G01X21190Y19404D01*
G01X21207Y19457D01*
G01X21223Y19511D01*
G01X21236Y19565D01*
G01X21248Y19620D01*
G01X21257Y19675D01*
G01X21264Y19731D01*
G01X21270Y19787D01*
G01X21273Y19843D01*
G01X21274Y19898D01*
G01X21273Y19959D01*
G01X21269Y20020D01*
G01X21263Y20081D01*
G01X21254Y20142D01*
G01X21243Y20202D01*
G01X21229Y20262D01*
G01X21214Y20321D01*
G01X21195Y20379D01*
G37*
G36*
G01X12035Y20770D02*
G01X11026Y21852D01*
G01X11002Y21798D01*
G01X10980Y21743D01*
G01X10960Y21687D01*
G01X10943Y21629D01*
G01X10928Y21572D01*
G01X10915Y21514D01*
G01X10904Y21455D01*
G01X10896Y21396D01*
G01X10890Y21337D01*
G01X10886Y21278D01*
G01X10885Y21218D01*
G01X10886Y21161D01*
G01X10889Y21105D01*
G01X10895Y21049D01*
G01X10902Y20993D01*
G01X10912Y20938D01*
G01X10923Y20882D01*
G01X10937Y20828D01*
G01X10952Y20774D01*
G01X10970Y20720D01*
G01X10990Y20667D01*
G01X11011Y20615D01*
G01X11035Y20564D01*
G01X11061Y20514D01*
G01X11088Y20464D01*
G01X11117Y20416D01*
G01X11148Y20369D01*
G01X11181Y20323D01*
G01X11215Y20278D01*
G01X11251Y20235D01*
G01X11289Y20193D01*
G01X11348Y20130D01*
G01X12035Y20770D01*
G37*
G36*
G01X19831Y21400D02*
G01X19771Y21401D01*
G01X19715Y21400D01*
G01X19659Y21397D01*
G01X19603Y21391D01*
G01X19547Y21384D01*
G01X19491Y21375D01*
G01X19436Y21363D01*
G01X19381Y21350D01*
G01X19327Y21334D01*
G01X19274Y21316D01*
G01X19221Y21296D01*
G01X19168Y21275D01*
G01X19117Y21251D01*
G01X19067Y21226D01*
G01X19017Y21198D01*
G01X18969Y21169D01*
G01X18923Y21138D01*
G01X18876Y21105D01*
G01X18832Y21071D01*
G01X18788Y21035D01*
G01X18747Y20997D01*
G01X18683Y20938D01*
G01X19324Y20252D01*
G01X20406Y21260D01*
G01X20352Y21285D01*
G01X20296Y21307D01*
G01X20240Y21326D01*
G01X20183Y21344D01*
G01X20125Y21359D01*
G01X20067Y21372D01*
G01X20009Y21382D01*
G01X19950Y21390D01*
G01X19890Y21397D01*
G01X19831Y21400D01*
G37*
G36*
G01X12444Y22719D02*
G01X12388Y22720D01*
G01X12327Y22719D01*
G01X12266Y22716D01*
G01X12205Y22709D01*
G01X12144Y22701D01*
G01X12084Y22689D01*
G01X12025Y22676D01*
G01X11966Y22660D01*
G01X11908Y22642D01*
G01X11850Y22621D01*
G01X12859Y21539D01*
G01X13546Y22179D01*
G01X13487Y22243D01*
G01X13448Y22283D01*
G01X13408Y22322D01*
G01X13365Y22359D01*
G01X13322Y22395D01*
G01X13278Y22429D01*
G01X13232Y22461D01*
G01X13185Y22492D01*
G01X13137Y22521D01*
G01X13088Y22548D01*
G01X13038Y22573D01*
G01X12987Y22596D01*
G01X12935Y22617D01*
G01X12883Y22637D01*
G01X12830Y22654D01*
G01X12776Y22670D01*
G01X12721Y22683D01*
G01X12666Y22695D01*
G01X12611Y22704D01*
G01X12556Y22711D01*
G01X12500Y22716D01*
G01X12444Y22719D01*
G37*
G36*
G01X8307Y45700D02*
G01X8255Y45701D01*
G01X8203Y45700D01*
G01X8151Y45697D01*
G01X8099Y45692D01*
G01X8048Y45685D01*
G01X7996Y45675D01*
G01X7946Y45664D01*
G01X7895Y45651D01*
G01X7846Y45635D01*
G01X7797Y45617D01*
G01X7749Y45598D01*
G01X7701Y45577D01*
G01X7655Y45554D01*
G01X7609Y45529D01*
G01X7565Y45502D01*
G01X7521Y45473D01*
G01X7479Y45443D01*
G01X7439Y45411D01*
G01X7399Y45377D01*
G01X7361Y45342D01*
G01X7324Y45305D01*
G01X7289Y45267D01*
G01X7255Y45227D01*
G01X7223Y45187D01*
G01X7193Y45145D01*
G01X7164Y45101D01*
G01X7137Y45057D01*
G01X7112Y45011D01*
G01X7089Y44965D01*
G01X7068Y44917D01*
G01X7049Y44869D01*
G01X7031Y44820D01*
G01X7015Y44771D01*
G01X7002Y44720D01*
G01X6991Y44670D01*
G01X6981Y44618D01*
G01X6974Y44567D01*
G01X6969Y44515D01*
G01X6966Y44463D01*
G01X6965Y44412D01*
G01X6966Y44352D01*
G01X6970Y44292D01*
G01X6977Y44232D01*
G01X6987Y44173D01*
G01X6999Y44114D01*
G01X7002Y44091D01*
G01X7002Y34050D01*
G01X7003Y33998D01*
G01X7006Y33946D01*
G01X7011Y33895D01*
G01X7019Y33844D01*
G01X7029Y33793D01*
G01X7040Y33742D01*
G01X7054Y33692D01*
G01X7070Y33643D01*
G01X7088Y33594D01*
G01X7107Y33546D01*
G01X7129Y33500D01*
G01X7153Y33453D01*
G01X7179Y33408D01*
G01X7206Y33365D01*
G01X7235Y33322D01*
G01X7266Y33280D01*
G01X7298Y33240D01*
G01X7333Y33201D01*
G01X7369Y33164D01*
G01X15450Y25083D01*
G01X15461Y25069D01*
G01X15470Y25055D01*
G01X15476Y25038D01*
G01X15493Y24982D01*
G01X15513Y24925D01*
G01X15535Y24870D01*
G01X15559Y24815D01*
G01X15584Y24762D01*
G01X15613Y24709D01*
G01X15643Y24658D01*
G01X15675Y24608D01*
G01X15709Y24559D01*
G01X15745Y24512D01*
G01X15784Y24466D01*
G01X15823Y24421D01*
G01X17597Y22520D01*
G01X17635Y22480D01*
G01X17676Y22441D01*
G01X17718Y22403D01*
G01X17761Y22368D01*
G01X17805Y22334D01*
G01X17851Y22301D01*
G01X17898Y22271D01*
G01X17946Y22242D01*
G01X17995Y22215D01*
G01X18045Y22190D01*
G01X18096Y22167D01*
G01X18148Y22145D01*
G01X18201Y22126D01*
G01X18254Y22108D01*
G01X18308Y22093D01*
G01X18362Y22079D01*
G01X18417Y22068D01*
G01X18472Y22058D01*
G01X18528Y22051D01*
G01X18584Y22046D01*
G01X18640Y22043D01*
G01X18695Y22042D01*
G01X18752Y22043D01*
G01X18808Y22046D01*
G01X18864Y22051D01*
G01X18919Y22059D01*
G01X18975Y22068D01*
G01X19030Y22080D01*
G01X19085Y22093D01*
G01X19138Y22109D01*
G01X19192Y22127D01*
G01X19245Y22146D01*
G01X19296Y22167D01*
G01X19347Y22191D01*
G01X19397Y22216D01*
G01X19447Y22243D01*
G01X19495Y22272D01*
G01X19542Y22303D01*
G01X19587Y22336D01*
G01X19632Y22370D01*
G01X19675Y22405D01*
G01X19718Y22443D01*
G01X19758Y22482D01*
G01X19797Y22523D01*
G01X19834Y22564D01*
G01X19870Y22608D01*
G01X19904Y22652D01*
G01X19937Y22698D01*
G01X19968Y22745D01*
G01X19997Y22794D01*
G01X20024Y22842D01*
G01X20049Y22893D01*
G01X20073Y22944D01*
G01X20094Y22996D01*
G01X20114Y23049D01*
G01X20132Y23102D01*
G01X20147Y23156D01*
G01X20160Y23210D01*
G01X20172Y23265D01*
G01X20181Y23321D01*
G01X20188Y23376D01*
G01X20194Y23432D01*
G01X20197Y23489D01*
G01X20198Y23545D01*
G01X20197Y23601D01*
G01X20194Y23657D01*
G01X20188Y23714D01*
G01X20181Y23769D01*
G01X20172Y23825D01*
G01X20160Y23880D01*
G01X20146Y23935D01*
G01X20131Y23989D01*
G01X20113Y24043D01*
G01X20093Y24096D01*
G01X20072Y24147D01*
G01X20048Y24199D01*
G01X20023Y24249D01*
G01X19995Y24298D01*
G01X19966Y24347D01*
G01X19935Y24394D01*
G01X19902Y24439D01*
G01X19868Y24484D01*
G01X19832Y24527D01*
G01X19794Y24570D01*
G01X18021Y26471D01*
G01X17981Y26512D01*
G01X17940Y26552D01*
G01X17896Y26590D01*
G01X17852Y26627D01*
G01X17806Y26661D01*
G01X17759Y26694D01*
G01X17710Y26725D01*
G01X17661Y26755D01*
G01X17610Y26782D01*
G01X17558Y26808D01*
G01X17506Y26831D01*
G01X17452Y26852D01*
G01X17398Y26872D01*
G01X17343Y26889D01*
G01X17287Y26904D01*
G01X17231Y26916D01*
G01X17174Y26928D01*
G01X17159Y26931D01*
G01X17145Y26937D01*
G01X17132Y26945D01*
G01X17120Y26956D01*
G01X9537Y34539D01*
G01X9527Y34551D01*
G01X9518Y34564D01*
G01X9512Y34579D01*
G01X9508Y34595D01*
G01X9507Y34611D01*
G01X9507Y43683D01*
G01X9508Y43697D01*
G01X9511Y43711D01*
G01X9516Y43725D01*
G01X9523Y43738D01*
G01X9532Y43750D01*
G01X9542Y43760D01*
G01X9554Y43768D01*
G01X9567Y43775D01*
G01X9580Y43781D01*
G01X9594Y43784D01*
G01X9609Y43785D01*
G01X9624Y43784D01*
G01X9638Y43780D01*
G01X9652Y43775D01*
G01X9665Y43768D01*
G01X9676Y43759D01*
G01X9687Y43748D01*
G01X9695Y43736D01*
G01X9724Y43692D01*
G01X9755Y43648D01*
G01X9787Y43606D01*
G01X9821Y43565D01*
G01X9856Y43526D01*
G01X9893Y43488D01*
G01X9932Y43452D01*
G01X9972Y43417D01*
G01X10014Y43384D01*
G01X10057Y43353D01*
G01X10101Y43324D01*
G01X10146Y43296D01*
G01X10193Y43271D01*
G01X10240Y43247D01*
G01X10288Y43225D01*
G01X10337Y43205D01*
G01X10337Y43954D01*
G01X9609Y43954D01*
G01X9594Y43955D01*
G01X9580Y43958D01*
G01X9567Y43963D01*
G01X9554Y43971D01*
G01X9542Y43979D01*
G01X9532Y43989D01*
G01X9523Y44001D01*
G01X9516Y44014D01*
G01X9511Y44027D01*
G01X9508Y44042D01*
G01X9507Y44056D01*
G01X9507Y44091D01*
G01X9510Y44114D01*
G01X9522Y44173D01*
G01X9532Y44232D01*
G01X9539Y44292D01*
G01X9543Y44352D01*
G01X9545Y44412D01*
G01X9543Y44467D01*
G01X9540Y44522D01*
G01X9534Y44578D01*
G01X9526Y44632D01*
G01X9515Y44687D01*
G01X9502Y44741D01*
G01X9499Y44767D01*
G01X9500Y44781D01*
G01X9503Y44796D01*
G01X9508Y44809D01*
G01X9514Y44822D01*
G01X9523Y44834D01*
G01X9534Y44844D01*
G01X9545Y44852D01*
G01X9558Y44860D01*
G01X9571Y44865D01*
G01X9585Y44868D01*
G01X9600Y44869D01*
G01X10337Y44869D01*
G01X10337Y45618D01*
G01X10288Y45598D01*
G01X10239Y45576D01*
G01X10192Y45552D01*
G01X10145Y45526D01*
G01X10099Y45498D01*
G01X10054Y45468D01*
G01X10011Y45437D01*
G01X9929Y45369D01*
G01X9890Y45331D01*
G01X9853Y45293D01*
G01X9817Y45254D01*
G01X9783Y45213D01*
G01X9751Y45170D01*
G01X9721Y45126D01*
G01X9692Y45081D01*
G01X9665Y45035D01*
G01X9640Y44988D01*
G01X9617Y44939D01*
G01X9610Y44926D01*
G01X9602Y44914D01*
G01X9592Y44904D01*
G01X9580Y44895D01*
G01X9567Y44889D01*
G01X9553Y44883D01*
G01X9539Y44880D01*
G01X9525Y44879D01*
G01X9510Y44880D01*
G01X9496Y44883D01*
G01X9482Y44889D01*
G01X9469Y44895D01*
G01X9457Y44904D01*
G01X9447Y44914D01*
G01X9439Y44926D01*
G01X9432Y44939D01*
G01X9409Y44987D01*
G01X9385Y45034D01*
G01X9358Y45080D01*
G01X9330Y45124D01*
G01X9299Y45168D01*
G01X9267Y45210D01*
G01X9234Y45251D01*
G01X9199Y45290D01*
G01X9162Y45328D01*
G01X9123Y45365D01*
G01X9084Y45400D01*
G01X9042Y45433D01*
G01X9000Y45465D01*
G01X8956Y45494D01*
G01X8911Y45522D01*
G01X8865Y45548D01*
G01X8817Y45572D01*
G01X8770Y45594D01*
G01X8720Y45614D01*
G01X8671Y45633D01*
G01X8569Y45663D01*
G01X8518Y45674D01*
G01X8465Y45684D01*
G01X8413Y45692D01*
G01X8360Y45697D01*
G01X8307Y45700D01*
G37*
G36*
G01X4059Y26751D02*
G01X3999Y26752D01*
G01X3940Y26751D01*
G01X3880Y26748D01*
G01X3820Y26743D01*
G01X3761Y26736D01*
G01X3702Y26726D01*
G01X3643Y26715D01*
G01X3584Y26702D01*
G01X3527Y26687D01*
G01X3469Y26670D01*
G01X3413Y26651D01*
G01X3356Y26630D01*
G01X3301Y26607D01*
G01X3247Y26582D01*
G01X3193Y26556D01*
G01X3140Y26527D01*
G01X3089Y26497D01*
G01X3038Y26465D01*
G01X2989Y26431D01*
G01X2940Y26396D01*
G01X2894Y26359D01*
G01X2848Y26321D01*
G01X2803Y26280D01*
G01X2760Y26239D01*
G01X2719Y26196D01*
G01X2679Y26151D01*
G01X2640Y26106D01*
G01X2603Y26058D01*
G01X2567Y26010D01*
G01X2534Y25961D01*
G01X2502Y25910D01*
G01X2472Y25858D01*
G01X2443Y25806D01*
G01X2417Y25752D01*
G01X2392Y25698D01*
G01X2369Y25642D01*
G01X2348Y25587D01*
G01X2329Y25530D01*
G01X2312Y25472D01*
G01X2297Y25414D01*
G01X2283Y25356D01*
G01X2272Y25297D01*
G01X2263Y25238D01*
G01X2256Y25179D01*
G01X2251Y25119D01*
G01X2248Y25059D01*
G01X2247Y24999D01*
G01X2248Y24940D01*
G01X2251Y24880D01*
G01X2256Y24820D01*
G01X2263Y24761D01*
G01X2272Y24702D01*
G01X2283Y24643D01*
G01X2297Y24585D01*
G01X2312Y24527D01*
G01X2329Y24469D01*
G01X2348Y24413D01*
G01X2369Y24357D01*
G01X2392Y24301D01*
G01X2417Y24247D01*
G01X2443Y24193D01*
G01X2472Y24140D01*
G01X2502Y24089D01*
G01X2534Y24038D01*
G01X2567Y23989D01*
G01X2603Y23941D01*
G01X2640Y23893D01*
G01X2679Y23848D01*
G01X2719Y23803D01*
G01X2760Y23760D01*
G01X2803Y23719D01*
G01X2848Y23678D01*
G01X2894Y23640D01*
G01X2940Y23603D01*
G01X2989Y23568D01*
G01X3038Y23534D01*
G01X3089Y23502D01*
G01X3140Y23472D01*
G01X3193Y23443D01*
G01X3247Y23417D01*
G01X3301Y23392D01*
G01X3356Y23369D01*
G01X3413Y23348D01*
G01X3469Y23329D01*
G01X3527Y23312D01*
G01X3584Y23296D01*
G01X3643Y23283D01*
G01X3702Y23272D01*
G01X3761Y23263D01*
G01X3820Y23256D01*
G01X3880Y23251D01*
G01X3940Y23248D01*
G01X3999Y23247D01*
G01X4059Y23248D01*
G01X4119Y23251D01*
G01X4179Y23256D01*
G01X4238Y23263D01*
G01X4297Y23272D01*
G01X4356Y23283D01*
G01X4415Y23296D01*
G01X4472Y23312D01*
G01X4530Y23329D01*
G01X4586Y23348D01*
G01X4643Y23369D01*
G01X4698Y23392D01*
G01X4752Y23417D01*
G01X4806Y23443D01*
G01X4859Y23472D01*
G01X4910Y23502D01*
G01X4961Y23534D01*
G01X5010Y23568D01*
G01X5059Y23603D01*
G01X5105Y23640D01*
G01X5151Y23678D01*
G01X5196Y23719D01*
G01X5239Y23760D01*
G01X5280Y23803D01*
G01X5320Y23848D01*
G01X5359Y23893D01*
G01X5396Y23941D01*
G01X5432Y23989D01*
G01X5465Y24038D01*
G01X5497Y24089D01*
G01X5527Y24140D01*
G01X5555Y24193D01*
G01X5582Y24247D01*
G01X5607Y24301D01*
G01X5630Y24357D01*
G01X5651Y24413D01*
G01X5670Y24469D01*
G01X5687Y24527D01*
G01X5702Y24585D01*
G01X5716Y24643D01*
G01X5727Y24702D01*
G01X5736Y24761D01*
G01X5743Y24820D01*
G01X5748Y24880D01*
G01X5751Y24940D01*
G01X5752Y24999D01*
G01X5751Y25059D01*
G01X5748Y25119D01*
G01X5743Y25179D01*
G01X5736Y25238D01*
G01X5727Y25297D01*
G01X5716Y25356D01*
G01X5702Y25414D01*
G01X5687Y25472D01*
G01X5670Y25530D01*
G01X5651Y25587D01*
G01X5630Y25642D01*
G01X5607Y25698D01*
G01X5582Y25752D01*
G01X5555Y25806D01*
G01X5527Y25858D01*
G01X5497Y25910D01*
G01X5465Y25961D01*
G01X5432Y26010D01*
G01X5396Y26058D01*
G01X5359Y26106D01*
G01X5320Y26151D01*
G01X5280Y26196D01*
G01X5239Y26239D01*
G01X5196Y26280D01*
G01X5151Y26321D01*
G01X5105Y26359D01*
G01X5059Y26396D01*
G01X5010Y26431D01*
G01X4961Y26465D01*
G01X4910Y26497D01*
G01X4859Y26527D01*
G01X4806Y26556D01*
G01X4752Y26582D01*
G01X4698Y26607D01*
G01X4643Y26630D01*
G01X4586Y26651D01*
G01X4530Y26670D01*
G01X4472Y26687D01*
G01X4415Y26702D01*
G01X4356Y26715D01*
G01X4297Y26726D01*
G01X4238Y26736D01*
G01X4179Y26743D01*
G01X4119Y26748D01*
G01X4059Y26751D01*
G37*
G36*
G01X81060Y26751D02*
G01X81000Y26752D01*
G01X80940Y26751D01*
G01X80880Y26748D01*
G01X80820Y26743D01*
G01X80761Y26736D01*
G01X80702Y26726D01*
G01X80643Y26715D01*
G01X80585Y26702D01*
G01X80527Y26687D01*
G01X80469Y26670D01*
G01X80412Y26651D01*
G01X80356Y26630D01*
G01X80301Y26607D01*
G01X80247Y26582D01*
G01X80193Y26556D01*
G01X80141Y26527D01*
G01X80089Y26497D01*
G01X80038Y26465D01*
G01X79989Y26431D01*
G01X79940Y26396D01*
G01X79893Y26359D01*
G01X79847Y26321D01*
G01X79803Y26280D01*
G01X79760Y26239D01*
G01X79718Y26196D01*
G01X79678Y26151D01*
G01X79640Y26106D01*
G01X79603Y26058D01*
G01X79568Y26010D01*
G01X79534Y25961D01*
G01X79502Y25910D01*
G01X79472Y25858D01*
G01X79443Y25806D01*
G01X79417Y25752D01*
G01X79392Y25698D01*
G01X79369Y25642D01*
G01X79348Y25587D01*
G01X79329Y25530D01*
G01X79312Y25472D01*
G01X79297Y25414D01*
G01X79284Y25356D01*
G01X79272Y25297D01*
G01X79263Y25238D01*
G01X79256Y25179D01*
G01X79251Y25119D01*
G01X79248Y25059D01*
G01X79247Y24999D01*
G01X79248Y24940D01*
G01X79251Y24880D01*
G01X79256Y24820D01*
G01X79263Y24761D01*
G01X79272Y24702D01*
G01X79284Y24643D01*
G01X79297Y24585D01*
G01X79312Y24527D01*
G01X79329Y24469D01*
G01X79348Y24413D01*
G01X79369Y24357D01*
G01X79392Y24301D01*
G01X79417Y24247D01*
G01X79443Y24193D01*
G01X79472Y24140D01*
G01X79502Y24089D01*
G01X79534Y24038D01*
G01X79568Y23989D01*
G01X79603Y23941D01*
G01X79640Y23893D01*
G01X79678Y23848D01*
G01X79718Y23803D01*
G01X79760Y23760D01*
G01X79803Y23719D01*
G01X79847Y23678D01*
G01X79893Y23640D01*
G01X79940Y23603D01*
G01X79989Y23568D01*
G01X80038Y23534D01*
G01X80089Y23502D01*
G01X80141Y23472D01*
G01X80193Y23443D01*
G01X80247Y23417D01*
G01X80301Y23392D01*
G01X80356Y23369D01*
G01X80412Y23348D01*
G01X80469Y23329D01*
G01X80527Y23312D01*
G01X80585Y23296D01*
G01X80643Y23283D01*
G01X80702Y23272D01*
G01X80761Y23263D01*
G01X80820Y23256D01*
G01X80880Y23251D01*
G01X80940Y23248D01*
G01X81000Y23247D01*
G01X81060Y23248D01*
G01X81119Y23251D01*
G01X81179Y23256D01*
G01X81238Y23263D01*
G01X81297Y23272D01*
G01X81356Y23283D01*
G01X81415Y23296D01*
G01X81473Y23312D01*
G01X81530Y23329D01*
G01X81586Y23348D01*
G01X81643Y23369D01*
G01X81698Y23392D01*
G01X81752Y23417D01*
G01X81806Y23443D01*
G01X81859Y23472D01*
G01X81910Y23502D01*
G01X81961Y23534D01*
G01X82010Y23568D01*
G01X82059Y23603D01*
G01X82106Y23640D01*
G01X82151Y23678D01*
G01X82196Y23719D01*
G01X82239Y23760D01*
G01X82280Y23803D01*
G01X82320Y23848D01*
G01X82359Y23893D01*
G01X82396Y23941D01*
G01X82431Y23989D01*
G01X82465Y24038D01*
G01X82497Y24089D01*
G01X82527Y24140D01*
G01X82556Y24193D01*
G01X82583Y24247D01*
G01X82607Y24301D01*
G01X82630Y24357D01*
G01X82651Y24413D01*
G01X82670Y24469D01*
G01X82687Y24527D01*
G01X82702Y24585D01*
G01X82716Y24643D01*
G01X82727Y24702D01*
G01X82736Y24761D01*
G01X82743Y24820D01*
G01X82748Y24880D01*
G01X82751Y24940D01*
G01X82752Y24999D01*
G01X82751Y25059D01*
G01X82748Y25119D01*
G01X82743Y25179D01*
G01X82736Y25238D01*
G01X82727Y25297D01*
G01X82716Y25356D01*
G01X82702Y25414D01*
G01X82687Y25472D01*
G01X82670Y25530D01*
G01X82651Y25587D01*
G01X82630Y25642D01*
G01X82607Y25698D01*
G01X82583Y25752D01*
G01X82556Y25806D01*
G01X82527Y25858D01*
G01X82497Y25910D01*
G01X82465Y25961D01*
G01X82431Y26010D01*
G01X82396Y26058D01*
G01X82359Y26106D01*
G01X82320Y26151D01*
G01X82280Y26196D01*
G01X82239Y26239D01*
G01X82196Y26280D01*
G01X82151Y26321D01*
G01X82106Y26359D01*
G01X82059Y26396D01*
G01X82010Y26431D01*
G01X81961Y26465D01*
G01X81910Y26497D01*
G01X81859Y26527D01*
G01X81806Y26556D01*
G01X81752Y26582D01*
G01X81698Y26607D01*
G01X81643Y26630D01*
G01X81586Y26651D01*
G01X81530Y26670D01*
G01X81473Y26687D01*
G01X81415Y26702D01*
G01X81356Y26715D01*
G01X81297Y26726D01*
G01X81238Y26736D01*
G01X81179Y26743D01*
G01X81119Y26748D01*
G01X81060Y26751D01*
G37*
G36*
G01X74859Y39960D02*
G01X74803Y39961D01*
G01X74746Y39960D01*
G01X74689Y39957D01*
G01X74632Y39952D01*
G01X74576Y39944D01*
G01X74520Y39934D01*
G01X74465Y39923D01*
G01X74409Y39910D01*
G01X74355Y39894D01*
G01X74301Y39876D01*
G01X74248Y39856D01*
G01X74195Y39834D01*
G01X74144Y39811D01*
G01X74093Y39785D01*
G01X74043Y39758D01*
G01X73994Y39728D01*
G01X73947Y39697D01*
G01X73901Y39664D01*
G01X73856Y39630D01*
G01X73812Y39594D01*
G01X73770Y39556D01*
G01X73729Y39516D01*
G01X73689Y39475D01*
G01X73651Y39433D01*
G01X73615Y39389D01*
G01X73581Y39344D01*
G01X73548Y39298D01*
G01X73517Y39251D01*
G01X73487Y39202D01*
G01X73460Y39152D01*
G01X73434Y39101D01*
G01X73411Y39050D01*
G01X73389Y38997D01*
G01X73369Y38944D01*
G01X73351Y38890D01*
G01X73335Y38836D01*
G01X73322Y38780D01*
G01X73311Y38725D01*
G01X73301Y38669D01*
G01X73293Y38613D01*
G01X73288Y38556D01*
G01X73285Y38499D01*
G01X73284Y38443D01*
G01X73285Y38386D01*
G01X73288Y38329D01*
G01X73293Y38272D01*
G01X73301Y38216D01*
G01X73311Y38160D01*
G01X73322Y38105D01*
G01X73335Y38049D01*
G01X73351Y37995D01*
G01X73369Y37941D01*
G01X73389Y37888D01*
G01X73411Y37835D01*
G01X73434Y37784D01*
G01X73460Y37733D01*
G01X73487Y37683D01*
G01X73517Y37634D01*
G01X73548Y37587D01*
G01X73581Y37541D01*
G01X73615Y37496D01*
G01X73651Y37452D01*
G01X73689Y37410D01*
G01X73729Y37369D01*
G01X73770Y37329D01*
G01X73812Y37291D01*
G01X73856Y37255D01*
G01X73901Y37221D01*
G01X73947Y37188D01*
G01X73994Y37157D01*
G01X74043Y37127D01*
G01X74093Y37100D01*
G01X74144Y37074D01*
G01X74195Y37051D01*
G01X74248Y37029D01*
G01X74301Y37009D01*
G01X74355Y36991D01*
G01X74409Y36975D01*
G01X74465Y36962D01*
G01X74520Y36951D01*
G01X74576Y36941D01*
G01X74632Y36933D01*
G01X74689Y36928D01*
G01X74746Y36925D01*
G01X74803Y36924D01*
G01X74859Y36925D01*
G01X74916Y36928D01*
G01X74973Y36933D01*
G01X75029Y36941D01*
G01X75085Y36951D01*
G01X75140Y36962D01*
G01X75196Y36975D01*
G01X75250Y36991D01*
G01X75304Y37009D01*
G01X75357Y37029D01*
G01X75410Y37051D01*
G01X75461Y37074D01*
G01X75512Y37100D01*
G01X75562Y37127D01*
G01X75611Y37157D01*
G01X75658Y37188D01*
G01X75704Y37221D01*
G01X75749Y37255D01*
G01X75793Y37291D01*
G01X75835Y37329D01*
G01X75876Y37369D01*
G01X75916Y37410D01*
G01X75954Y37452D01*
G01X75990Y37496D01*
G01X76024Y37541D01*
G01X76057Y37587D01*
G01X76088Y37634D01*
G01X76118Y37683D01*
G01X76145Y37733D01*
G01X76171Y37784D01*
G01X76194Y37835D01*
G01X76216Y37888D01*
G01X76236Y37941D01*
G01X76254Y37995D01*
G01X76270Y38049D01*
G01X76283Y38105D01*
G01X76294Y38160D01*
G01X76304Y38216D01*
G01X76312Y38272D01*
G01X76317Y38329D01*
G01X76320Y38386D01*
G01X76321Y38443D01*
G01X76320Y38499D01*
G01X76317Y38556D01*
G01X76312Y38613D01*
G01X76304Y38669D01*
G01X76294Y38725D01*
G01X76283Y38780D01*
G01X76270Y38836D01*
G01X76254Y38890D01*
G01X76236Y38944D01*
G01X76216Y38997D01*
G01X76194Y39050D01*
G01X76171Y39101D01*
G01X76145Y39152D01*
G01X76118Y39202D01*
G01X76088Y39251D01*
G01X76057Y39298D01*
G01X76024Y39344D01*
G01X75990Y39389D01*
G01X75954Y39433D01*
G01X75916Y39475D01*
G01X75876Y39516D01*
G01X75835Y39556D01*
G01X75793Y39594D01*
G01X75749Y39630D01*
G01X75704Y39664D01*
G01X75658Y39697D01*
G01X75611Y39728D01*
G01X75562Y39758D01*
G01X75512Y39785D01*
G01X75461Y39811D01*
G01X75410Y39834D01*
G01X75357Y39856D01*
G01X75304Y39876D01*
G01X75250Y39894D01*
G01X75196Y39910D01*
G01X75140Y39923D01*
G01X75085Y39934D01*
G01X75029Y39944D01*
G01X74973Y39952D01*
G01X74916Y39957D01*
G01X74859Y39960D01*
G37*
G36*
G01X32949Y39960D02*
G01X32893Y39961D01*
G01X32836Y39960D01*
G01X32779Y39957D01*
G01X32722Y39952D01*
G01X32666Y39944D01*
G01X32610Y39934D01*
G01X32555Y39923D01*
G01X32499Y39910D01*
G01X32445Y39894D01*
G01X32391Y39876D01*
G01X32338Y39856D01*
G01X32285Y39834D01*
G01X32234Y39811D01*
G01X32183Y39785D01*
G01X32133Y39758D01*
G01X32084Y39728D01*
G01X32037Y39697D01*
G01X31991Y39664D01*
G01X31946Y39630D01*
G01X31902Y39594D01*
G01X31860Y39556D01*
G01X31819Y39516D01*
G01X31779Y39475D01*
G01X31741Y39433D01*
G01X31705Y39389D01*
G01X31671Y39344D01*
G01X31638Y39298D01*
G01X31607Y39251D01*
G01X31577Y39202D01*
G01X31550Y39152D01*
G01X31524Y39101D01*
G01X31501Y39050D01*
G01X31479Y38997D01*
G01X31459Y38944D01*
G01X31441Y38890D01*
G01X31425Y38836D01*
G01X31412Y38780D01*
G01X31401Y38725D01*
G01X31391Y38669D01*
G01X31383Y38613D01*
G01X31378Y38556D01*
G01X31375Y38499D01*
G01X31374Y38443D01*
G01X31375Y38386D01*
G01X31378Y38329D01*
G01X31383Y38272D01*
G01X31391Y38216D01*
G01X31401Y38160D01*
G01X31412Y38105D01*
G01X31425Y38049D01*
G01X31441Y37995D01*
G01X31459Y37941D01*
G01X31479Y37888D01*
G01X31501Y37835D01*
G01X31524Y37784D01*
G01X31550Y37733D01*
G01X31577Y37683D01*
G01X31607Y37634D01*
G01X31638Y37587D01*
G01X31671Y37541D01*
G01X31705Y37496D01*
G01X31741Y37452D01*
G01X31779Y37410D01*
G01X31819Y37369D01*
G01X31860Y37329D01*
G01X31902Y37291D01*
G01X31946Y37255D01*
G01X31991Y37221D01*
G01X32037Y37188D01*
G01X32084Y37157D01*
G01X32133Y37127D01*
G01X32183Y37100D01*
G01X32234Y37074D01*
G01X32285Y37051D01*
G01X32338Y37029D01*
G01X32391Y37009D01*
G01X32445Y36991D01*
G01X32499Y36975D01*
G01X32555Y36962D01*
G01X32610Y36951D01*
G01X32666Y36941D01*
G01X32722Y36933D01*
G01X32779Y36928D01*
G01X32836Y36925D01*
G01X32893Y36924D01*
G01X32949Y36925D01*
G01X33006Y36928D01*
G01X33063Y36933D01*
G01X33119Y36941D01*
G01X33175Y36951D01*
G01X33230Y36962D01*
G01X33286Y36975D01*
G01X33340Y36991D01*
G01X33394Y37009D01*
G01X33447Y37029D01*
G01X33500Y37051D01*
G01X33551Y37074D01*
G01X33602Y37100D01*
G01X33652Y37127D01*
G01X33701Y37157D01*
G01X33748Y37188D01*
G01X33794Y37221D01*
G01X33839Y37255D01*
G01X33883Y37291D01*
G01X33925Y37329D01*
G01X33966Y37369D01*
G01X34006Y37410D01*
G01X34044Y37452D01*
G01X34080Y37496D01*
G01X34114Y37541D01*
G01X34147Y37587D01*
G01X34178Y37634D01*
G01X34208Y37683D01*
G01X34235Y37733D01*
G01X34261Y37784D01*
G01X34284Y37835D01*
G01X34306Y37888D01*
G01X34326Y37941D01*
G01X34344Y37995D01*
G01X34360Y38049D01*
G01X34373Y38105D01*
G01X34384Y38160D01*
G01X34394Y38216D01*
G01X34402Y38272D01*
G01X34407Y38329D01*
G01X34410Y38386D01*
G01X34411Y38443D01*
G01X34410Y38499D01*
G01X34407Y38556D01*
G01X34402Y38613D01*
G01X34394Y38669D01*
G01X34384Y38725D01*
G01X34373Y38780D01*
G01X34360Y38836D01*
G01X34344Y38890D01*
G01X34326Y38944D01*
G01X34306Y38997D01*
G01X34284Y39050D01*
G01X34261Y39101D01*
G01X34235Y39152D01*
G01X34208Y39202D01*
G01X34178Y39251D01*
G01X34147Y39298D01*
G01X34114Y39344D01*
G01X34080Y39389D01*
G01X34044Y39433D01*
G01X34006Y39475D01*
G01X33966Y39516D01*
G01X33925Y39556D01*
G01X33883Y39594D01*
G01X33839Y39630D01*
G01X33794Y39664D01*
G01X33748Y39697D01*
G01X33701Y39728D01*
G01X33652Y39758D01*
G01X33602Y39785D01*
G01X33551Y39811D01*
G01X33500Y39834D01*
G01X33447Y39856D01*
G01X33394Y39876D01*
G01X33340Y39894D01*
G01X33286Y39910D01*
G01X33230Y39923D01*
G01X33175Y39934D01*
G01X33119Y39944D01*
G01X33063Y39952D01*
G01X33006Y39957D01*
G01X32949Y39960D01*
G37*
G36*
G01X71678Y40341D02*
G01X71628Y40342D01*
G01X71576Y40341D01*
G01X71523Y40338D01*
G01X71472Y40333D01*
G01X71420Y40325D01*
G01X71369Y40315D01*
G01X71319Y40304D01*
G01X71268Y40290D01*
G01X71219Y40274D01*
G01X71170Y40257D01*
G01X71122Y40237D01*
G01X71074Y40215D01*
G01X71028Y40191D01*
G01X70983Y40166D01*
G01X70939Y40138D01*
G01X70895Y40109D01*
G01X70854Y40078D01*
G01X70813Y40045D01*
G01X70774Y40011D01*
G01X70736Y39975D01*
G01X70700Y39938D01*
G01X70666Y39899D01*
G01X70633Y39858D01*
G01X70601Y39817D01*
G01X70572Y39774D01*
G01X70544Y39730D01*
G01X70519Y39685D01*
G01X70494Y39639D01*
G01X70472Y39592D01*
G01X70452Y39544D01*
G01X70445Y39530D01*
G01X70436Y39517D01*
G01X70426Y39506D01*
G01X70413Y39496D01*
G01X70399Y39488D01*
G01X70385Y39483D01*
G01X70394Y39469D01*
G01X70401Y39454D01*
G01X70405Y39437D01*
G01X70407Y39420D01*
G01X70403Y39395D01*
G01X70391Y39343D01*
G01X70381Y39290D01*
G01X70373Y39238D01*
G01X70367Y39184D01*
G01X70364Y39131D01*
G01X70363Y39078D01*
G01X70364Y39024D01*
G01X70367Y38971D01*
G01X70373Y38917D01*
G01X70381Y38865D01*
G01X70391Y38812D01*
G01X70403Y38760D01*
G01X70407Y38735D01*
G01X70405Y38718D01*
G01X70401Y38701D01*
G01X70394Y38686D01*
G01X70385Y38672D01*
G01X70399Y38667D01*
G01X70413Y38659D01*
G01X70426Y38649D01*
G01X70436Y38638D01*
G01X70445Y38625D01*
G01X70452Y38611D01*
G01X70472Y38563D01*
G01X70494Y38516D01*
G01X70519Y38470D01*
G01X70544Y38425D01*
G01X70572Y38381D01*
G01X70601Y38338D01*
G01X70633Y38297D01*
G01X70666Y38256D01*
G01X70700Y38217D01*
G01X70736Y38180D01*
G01X70774Y38144D01*
G01X70813Y38110D01*
G01X70854Y38077D01*
G01X70895Y38046D01*
G01X70939Y38017D01*
G01X70983Y37989D01*
G01X71028Y37964D01*
G01X71074Y37940D01*
G01X71122Y37918D01*
G01X71170Y37898D01*
G01X71219Y37881D01*
G01X71268Y37865D01*
G01X71319Y37851D01*
G01X71369Y37840D01*
G01X71420Y37830D01*
G01X71472Y37822D01*
G01X71523Y37817D01*
G01X71576Y37814D01*
G01X71628Y37813D01*
G01X71678Y37814D01*
G01X71729Y37817D01*
G01X71780Y37822D01*
G01X71830Y37829D01*
G01X71880Y37838D01*
G01X71930Y37850D01*
G01X71980Y37863D01*
G01X72028Y37878D01*
G01X72076Y37895D01*
G01X72123Y37914D01*
G01X72170Y37935D01*
G01X72215Y37958D01*
G01X72260Y37982D01*
G01X72304Y38009D01*
G01X72346Y38037D01*
G01X72387Y38067D01*
G01X72427Y38098D01*
G01X72466Y38131D01*
G01X72504Y38166D01*
G01X72539Y38201D01*
G01X72574Y38239D01*
G01X72607Y38278D01*
G01X72638Y38318D01*
G01X72668Y38359D01*
G01X72696Y38401D01*
G01X72723Y38445D01*
G01X72747Y38490D01*
G01X72770Y38535D01*
G01X72791Y38582D01*
G01X72810Y38629D01*
G01X72827Y38677D01*
G01X72842Y38725D01*
G01X72855Y38775D01*
G01X72867Y38825D01*
G01X72876Y38875D01*
G01X72883Y38925D01*
G01X72888Y38976D01*
G01X72891Y39027D01*
G01X72892Y39078D01*
G01X72891Y39128D01*
G01X72888Y39179D01*
G01X72883Y39230D01*
G01X72876Y39280D01*
G01X72867Y39330D01*
G01X72855Y39380D01*
G01X72842Y39430D01*
G01X72827Y39478D01*
G01X72810Y39526D01*
G01X72791Y39573D01*
G01X72770Y39620D01*
G01X72747Y39665D01*
G01X72723Y39710D01*
G01X72696Y39754D01*
G01X72668Y39796D01*
G01X72638Y39837D01*
G01X72607Y39877D01*
G01X72574Y39916D01*
G01X72539Y39954D01*
G01X72504Y39989D01*
G01X72466Y40024D01*
G01X72427Y40057D01*
G01X72387Y40088D01*
G01X72346Y40118D01*
G01X72304Y40146D01*
G01X72260Y40173D01*
G01X72215Y40197D01*
G01X72170Y40220D01*
G01X72123Y40241D01*
G01X72076Y40260D01*
G01X72028Y40277D01*
G01X71980Y40292D01*
G01X71930Y40305D01*
G01X71880Y40317D01*
G01X71830Y40326D01*
G01X71780Y40333D01*
G01X71729Y40338D01*
G01X71678Y40341D01*
G37*
G36*
G01X70275Y38633D02*
G01X69532Y38633D01*
G01X69532Y37893D01*
G01X69581Y37913D01*
G01X69629Y37935D01*
G01X69676Y37958D01*
G01X69723Y37984D01*
G01X69767Y38011D01*
G01X69811Y38041D01*
G01X69854Y38072D01*
G01X69895Y38104D01*
G01X69935Y38139D01*
G01X69973Y38175D01*
G01X70011Y38213D01*
G01X70046Y38252D01*
G01X70079Y38293D01*
G01X70111Y38335D01*
G01X70141Y38378D01*
G01X70170Y38423D01*
G01X70195Y38468D01*
G01X70220Y38515D01*
G01X70243Y38562D01*
G01X70263Y38611D01*
G01X70275Y38633D01*
G37*
G36*
G01X68643Y38633D02*
G01X67900Y38633D01*
G01X67912Y38611D01*
G01X67932Y38562D01*
G01X67955Y38515D01*
G01X67980Y38468D01*
G01X68005Y38423D01*
G01X68034Y38378D01*
G01X68064Y38335D01*
G01X68096Y38293D01*
G01X68129Y38252D01*
G01X68164Y38213D01*
G01X68202Y38175D01*
G01X68240Y38139D01*
G01X68280Y38104D01*
G01X68321Y38072D01*
G01X68364Y38041D01*
G01X68408Y38011D01*
G01X68453Y37984D01*
G01X68499Y37958D01*
G01X68546Y37935D01*
G01X68594Y37913D01*
G01X68643Y37893D01*
G01X68643Y38633D01*
G37*
G36*
G01X69581Y40242D02*
G01X69532Y40262D01*
G01X69532Y39522D01*
G01X70275Y39522D01*
G01X70263Y39544D01*
G01X70243Y39593D01*
G01X70220Y39640D01*
G01X70195Y39687D01*
G01X70170Y39732D01*
G01X70141Y39777D01*
G01X70111Y39820D01*
G01X70079Y39862D01*
G01X70046Y39903D01*
G01X70011Y39942D01*
G01X69973Y39980D01*
G01X69935Y40016D01*
G01X69895Y40051D01*
G01X69854Y40083D01*
G01X69811Y40114D01*
G01X69767Y40144D01*
G01X69723Y40171D01*
G01X69676Y40197D01*
G01X69629Y40221D01*
G01X69581Y40242D01*
G37*
G36*
G01X68643Y39522D02*
G01X68643Y40262D01*
G01X68594Y40242D01*
G01X68546Y40221D01*
G01X68499Y40197D01*
G01X68453Y40171D01*
G01X68408Y40144D01*
G01X68364Y40114D01*
G01X68321Y40083D01*
G01X68280Y40051D01*
G01X68240Y40016D01*
G01X68202Y39980D01*
G01X68164Y39942D01*
G01X68129Y39903D01*
G01X68096Y39862D01*
G01X68064Y39820D01*
G01X68034Y39777D01*
G01X68005Y39732D01*
G01X67980Y39687D01*
G01X67955Y39640D01*
G01X67932Y39593D01*
G01X67912Y39544D01*
G01X67900Y39522D01*
G01X68643Y39522D01*
G37*
G36*
G01X20797Y43746D02*
G01X19883Y43746D01*
G01X19883Y43335D01*
G01X19884Y43302D01*
G01X19887Y43269D01*
G01X19892Y43236D01*
G01X19900Y43204D01*
G01X19910Y43173D01*
G01X19921Y43142D01*
G01X19934Y43112D01*
G01X19950Y43083D01*
G01X19967Y43055D01*
G01X19987Y43029D01*
G01X20008Y43003D01*
G01X20030Y42979D01*
G01X20054Y42957D01*
G01X20080Y42936D01*
G01X20106Y42916D01*
G01X20134Y42899D01*
G01X20163Y42883D01*
G01X20193Y42870D01*
G01X20224Y42859D01*
G01X20255Y42849D01*
G01X20287Y42841D01*
G01X20320Y42836D01*
G01X20353Y42833D01*
G01X20386Y42832D01*
G01X20797Y42832D01*
G01X20797Y43746D01*
G37*
G36*
G01X59532Y44127D02*
G01X58618Y44127D01*
G01X58618Y43716D01*
G01X58619Y43683D01*
G01X58622Y43650D01*
G01X58627Y43617D01*
G01X58635Y43585D01*
G01X58645Y43554D01*
G01X58656Y43523D01*
G01X58669Y43493D01*
G01X58685Y43464D01*
G01X58702Y43436D01*
G01X58722Y43410D01*
G01X58743Y43384D01*
G01X58765Y43360D01*
G01X58789Y43338D01*
G01X58815Y43317D01*
G01X58841Y43297D01*
G01X58869Y43280D01*
G01X58898Y43264D01*
G01X58928Y43251D01*
G01X58959Y43240D01*
G01X58990Y43230D01*
G01X59022Y43222D01*
G01X59055Y43217D01*
G01X59088Y43214D01*
G01X59121Y43213D01*
G01X59532Y43213D01*
G01X59532Y44127D01*
G37*
G36*
G01X4059Y47751D02*
G01X3999Y47752D01*
G01X3940Y47751D01*
G01X3880Y47748D01*
G01X3820Y47743D01*
G01X3761Y47736D01*
G01X3702Y47727D01*
G01X3643Y47716D01*
G01X3584Y47702D01*
G01X3527Y47687D01*
G01X3469Y47670D01*
G01X3413Y47651D01*
G01X3356Y47630D01*
G01X3301Y47607D01*
G01X3247Y47582D01*
G01X3193Y47556D01*
G01X3140Y47527D01*
G01X3089Y47497D01*
G01X3038Y47465D01*
G01X2989Y47432D01*
G01X2940Y47396D01*
G01X2894Y47359D01*
G01X2848Y47320D01*
G01X2803Y47280D01*
G01X2760Y47239D01*
G01X2719Y47196D01*
G01X2679Y47151D01*
G01X2640Y47105D01*
G01X2603Y47059D01*
G01X2567Y47010D01*
G01X2534Y46961D01*
G01X2502Y46910D01*
G01X2472Y46859D01*
G01X2443Y46806D01*
G01X2417Y46752D01*
G01X2392Y46698D01*
G01X2369Y46643D01*
G01X2348Y46586D01*
G01X2329Y46530D01*
G01X2312Y46472D01*
G01X2297Y46415D01*
G01X2283Y46356D01*
G01X2272Y46297D01*
G01X2263Y46238D01*
G01X2256Y46179D01*
G01X2251Y46119D01*
G01X2248Y46059D01*
G01X2247Y46000D01*
G01X2248Y45940D01*
G01X2251Y45880D01*
G01X2256Y45820D01*
G01X2263Y45761D01*
G01X2272Y45702D01*
G01X2283Y45643D01*
G01X2297Y45584D01*
G01X2312Y45527D01*
G01X2329Y45469D01*
G01X2348Y45413D01*
G01X2369Y45356D01*
G01X2392Y45301D01*
G01X2417Y45247D01*
G01X2443Y45193D01*
G01X2472Y45140D01*
G01X2502Y45089D01*
G01X2534Y45038D01*
G01X2567Y44989D01*
G01X2603Y44940D01*
G01X2640Y44894D01*
G01X2679Y44848D01*
G01X2719Y44803D01*
G01X2760Y44760D01*
G01X2803Y44719D01*
G01X2848Y44679D01*
G01X2894Y44640D01*
G01X2940Y44603D01*
G01X2989Y44567D01*
G01X3038Y44534D01*
G01X3089Y44502D01*
G01X3140Y44472D01*
G01X3193Y44444D01*
G01X3247Y44417D01*
G01X3301Y44392D01*
G01X3356Y44369D01*
G01X3413Y44348D01*
G01X3469Y44329D01*
G01X3527Y44312D01*
G01X3584Y44297D01*
G01X3643Y44283D01*
G01X3702Y44272D01*
G01X3761Y44263D01*
G01X3820Y44256D01*
G01X3880Y44251D01*
G01X3940Y44248D01*
G01X3999Y44247D01*
G01X4059Y44248D01*
G01X4119Y44251D01*
G01X4179Y44256D01*
G01X4238Y44263D01*
G01X4297Y44272D01*
G01X4356Y44283D01*
G01X4415Y44297D01*
G01X4472Y44312D01*
G01X4530Y44329D01*
G01X4586Y44348D01*
G01X4643Y44369D01*
G01X4698Y44392D01*
G01X4752Y44417D01*
G01X4806Y44444D01*
G01X4859Y44472D01*
G01X4910Y44502D01*
G01X4961Y44534D01*
G01X5010Y44567D01*
G01X5059Y44603D01*
G01X5105Y44640D01*
G01X5151Y44679D01*
G01X5196Y44719D01*
G01X5239Y44760D01*
G01X5280Y44803D01*
G01X5320Y44848D01*
G01X5359Y44894D01*
G01X5396Y44940D01*
G01X5432Y44989D01*
G01X5465Y45038D01*
G01X5497Y45089D01*
G01X5527Y45140D01*
G01X5555Y45193D01*
G01X5582Y45247D01*
G01X5607Y45301D01*
G01X5630Y45356D01*
G01X5651Y45413D01*
G01X5670Y45469D01*
G01X5687Y45527D01*
G01X5702Y45584D01*
G01X5716Y45643D01*
G01X5727Y45702D01*
G01X5736Y45761D01*
G01X5743Y45820D01*
G01X5748Y45880D01*
G01X5751Y45940D01*
G01X5752Y46000D01*
G01X5751Y46059D01*
G01X5748Y46119D01*
G01X5743Y46179D01*
G01X5736Y46238D01*
G01X5727Y46297D01*
G01X5716Y46356D01*
G01X5702Y46415D01*
G01X5687Y46472D01*
G01X5670Y46530D01*
G01X5651Y46586D01*
G01X5630Y46643D01*
G01X5607Y46698D01*
G01X5582Y46752D01*
G01X5555Y46806D01*
G01X5527Y46859D01*
G01X5497Y46910D01*
G01X5465Y46961D01*
G01X5432Y47010D01*
G01X5396Y47059D01*
G01X5359Y47105D01*
G01X5320Y47151D01*
G01X5280Y47196D01*
G01X5239Y47239D01*
G01X5196Y47280D01*
G01X5151Y47320D01*
G01X5105Y47359D01*
G01X5059Y47396D01*
G01X5010Y47432D01*
G01X4961Y47465D01*
G01X4910Y47497D01*
G01X4859Y47527D01*
G01X4806Y47556D01*
G01X4752Y47582D01*
G01X4698Y47607D01*
G01X4643Y47630D01*
G01X4586Y47651D01*
G01X4530Y47670D01*
G01X4472Y47687D01*
G01X4415Y47702D01*
G01X4356Y47716D01*
G01X4297Y47727D01*
G01X4238Y47736D01*
G01X4179Y47743D01*
G01X4119Y47748D01*
G01X4059Y47751D01*
G37*
G36*
G01X81060Y47751D02*
G01X81000Y47752D01*
G01X80940Y47751D01*
G01X80880Y47748D01*
G01X80820Y47743D01*
G01X80761Y47736D01*
G01X80702Y47727D01*
G01X80643Y47716D01*
G01X80585Y47702D01*
G01X80527Y47687D01*
G01X80469Y47670D01*
G01X80412Y47651D01*
G01X80356Y47630D01*
G01X80301Y47607D01*
G01X80247Y47582D01*
G01X80193Y47556D01*
G01X80141Y47527D01*
G01X80089Y47497D01*
G01X80038Y47465D01*
G01X79989Y47432D01*
G01X79940Y47396D01*
G01X79893Y47359D01*
G01X79847Y47320D01*
G01X79803Y47280D01*
G01X79760Y47239D01*
G01X79718Y47196D01*
G01X79678Y47151D01*
G01X79640Y47105D01*
G01X79603Y47059D01*
G01X79568Y47010D01*
G01X79534Y46961D01*
G01X79502Y46910D01*
G01X79472Y46859D01*
G01X79443Y46806D01*
G01X79417Y46752D01*
G01X79392Y46698D01*
G01X79369Y46643D01*
G01X79348Y46586D01*
G01X79329Y46530D01*
G01X79312Y46472D01*
G01X79297Y46415D01*
G01X79284Y46356D01*
G01X79272Y46297D01*
G01X79263Y46238D01*
G01X79256Y46179D01*
G01X79251Y46119D01*
G01X79248Y46059D01*
G01X79247Y46000D01*
G01X79248Y45940D01*
G01X79251Y45880D01*
G01X79256Y45820D01*
G01X79263Y45761D01*
G01X79272Y45702D01*
G01X79284Y45643D01*
G01X79297Y45584D01*
G01X79312Y45527D01*
G01X79329Y45469D01*
G01X79348Y45413D01*
G01X79369Y45356D01*
G01X79392Y45301D01*
G01X79417Y45247D01*
G01X79443Y45193D01*
G01X79472Y45140D01*
G01X79502Y45089D01*
G01X79534Y45038D01*
G01X79568Y44989D01*
G01X79603Y44940D01*
G01X79640Y44894D01*
G01X79678Y44848D01*
G01X79718Y44803D01*
G01X79760Y44760D01*
G01X79803Y44719D01*
G01X79847Y44679D01*
G01X79893Y44640D01*
G01X79940Y44603D01*
G01X79989Y44567D01*
G01X80038Y44534D01*
G01X80089Y44502D01*
G01X80141Y44472D01*
G01X80193Y44444D01*
G01X80247Y44417D01*
G01X80301Y44392D01*
G01X80356Y44369D01*
G01X80412Y44348D01*
G01X80469Y44329D01*
G01X80527Y44312D01*
G01X80585Y44297D01*
G01X80643Y44283D01*
G01X80702Y44272D01*
G01X80761Y44263D01*
G01X80820Y44256D01*
G01X80880Y44251D01*
G01X80940Y44248D01*
G01X81000Y44247D01*
G01X81060Y44248D01*
G01X81119Y44251D01*
G01X81179Y44256D01*
G01X81238Y44263D01*
G01X81297Y44272D01*
G01X81356Y44283D01*
G01X81415Y44297D01*
G01X81473Y44312D01*
G01X81530Y44329D01*
G01X81586Y44348D01*
G01X81643Y44369D01*
G01X81698Y44392D01*
G01X81752Y44417D01*
G01X81806Y44444D01*
G01X81859Y44472D01*
G01X81910Y44502D01*
G01X81961Y44534D01*
G01X82010Y44567D01*
G01X82059Y44603D01*
G01X82106Y44640D01*
G01X82151Y44679D01*
G01X82196Y44719D01*
G01X82239Y44760D01*
G01X82280Y44803D01*
G01X82320Y44848D01*
G01X82359Y44894D01*
G01X82396Y44940D01*
G01X82431Y44989D01*
G01X82465Y45038D01*
G01X82497Y45089D01*
G01X82527Y45140D01*
G01X82556Y45193D01*
G01X82583Y45247D01*
G01X82607Y45301D01*
G01X82630Y45356D01*
G01X82651Y45413D01*
G01X82670Y45469D01*
G01X82687Y45527D01*
G01X82702Y45584D01*
G01X82716Y45643D01*
G01X82727Y45702D01*
G01X82736Y45761D01*
G01X82743Y45820D01*
G01X82748Y45880D01*
G01X82751Y45940D01*
G01X82752Y46000D01*
G01X82751Y46059D01*
G01X82748Y46119D01*
G01X82743Y46179D01*
G01X82736Y46238D01*
G01X82727Y46297D01*
G01X82716Y46356D01*
G01X82702Y46415D01*
G01X82687Y46472D01*
G01X82670Y46530D01*
G01X82651Y46586D01*
G01X82630Y46643D01*
G01X82607Y46698D01*
G01X82583Y46752D01*
G01X82556Y46806D01*
G01X82527Y46859D01*
G01X82497Y46910D01*
G01X82465Y46961D01*
G01X82431Y47010D01*
G01X82396Y47059D01*
G01X82359Y47105D01*
G01X82320Y47151D01*
G01X82280Y47196D01*
G01X82239Y47239D01*
G01X82196Y47280D01*
G01X82151Y47320D01*
G01X82106Y47359D01*
G01X82059Y47396D01*
G01X82010Y47432D01*
G01X81961Y47465D01*
G01X81910Y47497D01*
G01X81859Y47527D01*
G01X81806Y47556D01*
G01X81752Y47582D01*
G01X81698Y47607D01*
G01X81643Y47630D01*
G01X81586Y47651D01*
G01X81530Y47670D01*
G01X81473Y47687D01*
G01X81415Y47702D01*
G01X81356Y47716D01*
G01X81297Y47727D01*
G01X81238Y47736D01*
G01X81179Y47743D01*
G01X81119Y47748D01*
G01X81060Y47751D01*
G37*
G36*
G01X20797Y45737D02*
G01X20386Y45737D01*
G01X20353Y45736D01*
G01X20320Y45733D01*
G01X20287Y45728D01*
G01X20255Y45720D01*
G01X20224Y45710D01*
G01X20193Y45699D01*
G01X20163Y45686D01*
G01X20134Y45670D01*
G01X20106Y45653D01*
G01X20080Y45633D01*
G01X20054Y45612D01*
G01X20030Y45590D01*
G01X20008Y45566D01*
G01X19987Y45540D01*
G01X19967Y45514D01*
G01X19950Y45486D01*
G01X19934Y45457D01*
G01X19921Y45427D01*
G01X19910Y45396D01*
G01X19900Y45365D01*
G01X19892Y45333D01*
G01X19887Y45300D01*
G01X19884Y45267D01*
G01X19883Y45234D01*
G01X19883Y44823D01*
G01X20797Y44823D01*
G01X20797Y45737D01*
G37*
G36*
G01X59532Y46118D02*
G01X59121Y46118D01*
G01X59088Y46117D01*
G01X59055Y46114D01*
G01X59022Y46109D01*
G01X58990Y46101D01*
G01X58959Y46091D01*
G01X58928Y46080D01*
G01X58898Y46067D01*
G01X58869Y46051D01*
G01X58841Y46034D01*
G01X58815Y46014D01*
G01X58789Y45993D01*
G01X58765Y45971D01*
G01X58743Y45947D01*
G01X58722Y45921D01*
G01X58702Y45895D01*
G01X58685Y45867D01*
G01X58669Y45838D01*
G01X58656Y45808D01*
G01X58645Y45777D01*
G01X58635Y45746D01*
G01X58627Y45714D01*
G01X58622Y45681D01*
G01X58619Y45648D01*
G01X58618Y45615D01*
G01X58618Y45204D01*
G01X59532Y45204D01*
G01X59532Y46118D01*
G37*

%LPD*%
G54D17*
G01X71628Y16218D02*
G01X71628Y21298D01*
G01X63246Y29680D01*
G01X24638Y29680D01*
G01X23876Y30442D01*
G01X23876Y44285D01*
G01X62611Y44666D02*
G01X62611Y46698D01*
G01X63246Y47333D01*
G01X73406Y47333D01*
G01X80518Y40221D01*
G01X80518Y30569D01*
G01X71628Y21679D01*
G01X71628Y16218D01*
G01X65151Y44666D02*
G01X73152Y44666D01*
G01X78740Y39078D01*
G01X78740Y34506D01*
G01X76073Y31839D01*
G01X63500Y31839D01*
G01X61468Y33871D01*
G01X61468Y39078D01*
G01X50927Y45174D02*
G01X53213Y45174D01*
G01X56388Y41999D01*
G01X56388Y39078D01*
G01X13335Y44412D02*
G01X13335Y42380D01*
G01X16383Y39332D01*
G01X21717Y39332D01*
G01X23876Y41491D01*
G01X23876Y44285D01*
G01X26416Y44285D02*
G01X26416Y36919D01*
G01X30480Y32855D01*
G01X55245Y32855D01*
G01X58928Y36538D01*
G01X58928Y39078D01*
G01X48387Y45174D02*
G01X48387Y42888D01*
G01X49403Y41872D01*
G01X53848Y41872D01*
G01X53848Y39078D01*
G01X38227Y45174D02*
G01X38227Y39078D01*
G01X38608Y39078D01*
G01X40767Y45174D02*
G01X40767Y39078D01*
G01X41148Y39078D01*
G01X43307Y45174D02*
G01X43307Y39078D01*
G01X43688Y39078D01*
G01X45847Y45174D02*
G01X45847Y39078D01*
G01X46228Y39078D01*
G54D18*
G01X8255Y44412D02*
G01X8255Y34050D01*
G01X17809Y24495D01*
G54D11*
G01X60071Y44666D03*
G54D12*
G01X62611Y44666D03*
G01X65151Y44666D03*
G54D13*
G01X61468Y16218D03*
G01X61468Y39078D03*
G01X64008Y16218D03*
G01X66548Y16218D03*
G01X66548Y39078D03*
G01X64008Y39078D03*
G01X69088Y16218D03*
G01X69088Y39078D03*
G01X71628Y16218D03*
G01X71628Y39078D03*
G01X58928Y16218D03*
G01X58928Y39078D03*
G01X56388Y16218D03*
G01X56388Y39078D03*
G01X53848Y39078D03*
G01X53848Y16218D03*
G01X51308Y16218D03*
G01X48768Y16218D03*
G01X46228Y16218D03*
G01X43688Y16218D03*
G01X41148Y16218D03*
G01X38608Y16218D03*
G01X36068Y16218D03*
G01X36068Y39078D03*
G01X38608Y39078D03*
G01X41148Y39078D03*
G01X43688Y39078D03*
G01X46228Y39078D03*
G01X48768Y39078D03*
G01X51308Y39078D03*
G54D14*
G01X50927Y45174D03*
G01X48387Y45174D03*
G01X45847Y45174D03*
G01X43307Y45174D03*
G01X40767Y45174D03*
G54D15*
G01X38227Y45174D03*
G54D11*
G01X21336Y44285D03*
G54D12*
G01X23876Y44285D03*
G01X26416Y44285D03*
G54D14*
G01X8255Y44412D03*
G01X10795Y44412D03*
G54D15*
G01X13335Y44412D03*
G54D16*
G01X16922Y25446D02*
G01X18695Y23545D01*
G01X14161Y19317D02*
G01X12388Y21218D01*
G01X19771Y19899D02*
G01X17870Y18125D01*
M00*
M02*
